<?xml version="1.0" encoding="utf-8"?>
<!-- Generator: Adobe Illustrator 24.0.1, SVG Export Plug-In . SVG Version: 6.00 Build 0)  -->
<svg version="1.1" id="Ebene_1" xmlns="http://www.w3.org/2000/svg" xmlns:xlink="http://www.w3.org/1999/xlink" x="0px" y="0px"
	 viewBox="0 0 800 150" style="enable-background:new 0 0 800 150;" xml:space="preserve">
<style type="text/css">
	.st0{fill:#FF6600;}
	.st1{fill:#2D2D2D;}
</style>
<g>
	<rect x="32.1" y="3.6" class="st0" width="405" height="113.6"/>
	<g>
		<g>
			<path d="M536.5,3.6l-13.2,113.6h-36.9c-3.4-17.5-6.4-37.3-8.9-59.6c-1.2,9.5-3.9,29.4-8.2,59.6h-36.7L419.4,3.6h28.7l3.1,39.7
				l3,38.3c1.1-19.8,3.8-45.8,8.2-78h30.7c0.4,3.3,1.5,15.8,3.2,37.5l3.3,43.2c1.7-27.5,4.4-54.4,8.2-80.7H536.5z"/>
			<path d="M542.4,3.6h49.3v22.7h-19.7v21.5h18.5v21.6h-18.5v25h21.7v22.7h-51.2V3.6z"/>
			<path d="M602.1,3.6H623c13.9,0,23.4,0.5,28.3,1.6c4.9,1.1,9,3.8,12.1,8.2s4.7,11.5,4.7,21.2c0,8.8-1.1,14.8-3.3,17.8
				c-2.2,3-6.5,4.9-13,5.5c5.8,1.5,9.8,3.4,11.8,5.8c2,2.4,3.3,4.7,3.8,6.7s0.7,7.6,0.7,16.8v30h-27.4V79.5c0-6.1-0.5-9.9-1.4-11.3
				c-1-1.4-3.5-2.2-7.5-2.2v51.2h-29.6V3.6z M631.7,23.1v25.3c3.3,0,5.7-0.5,7-1.4c1.3-0.9,2-3.9,2-8.9v-6.2c0-3.6-0.6-6-1.9-7.1
				S635.1,23.1,631.7,23.1z"/>
			<path d="M739.1,3.6v22.7h-17.5v90.9H692V26.4h-17.5V3.6H739.1z"/>
		</g>
	</g>
	<g>
		<path class="st1" d="M114.6,85l3.4-0.6l5.7,0.6l4.6-0.6h4l2.8,0.6l-0.6,2.8l-6.8,1.7l-12.6,1.7l-4.5,0.6l-4.6,1.7l-1.7-0.6
			l-1.7,1.2l-11.9,2.3l-4.5,1.7L76,103.2v0.6l-2.3,1.7h-0.6l-1.7,1.1l-0.6,1.1l-1.1,0.6v2.2h-0.6l-4,1.2l-2.8,2.2h-2.8l-2.8,0.6
			l-1.2-0.6v-1.7l2.8-1.7h1.2l0.6-0.6v-3.4l2.8-3.4l7.9-4l1.7-1.1l4-4.5l2.3,0.6l2.3-1.2l8.5-4l5.7-1.1l4-0.6l1.7,0.6l2.8-1.7h0.6
			l1.1,0.6l3.4-1.1L114.6,85z M85.7,1.5V0.9h1.7v0.6l0.6,0.6l2.3,0.6l0.6,6.2l-1.7,2.3l0.6,4l0.6,1.1l-1.1,5.7l0.6,2.3l0.6,7.4V35
			l-1.7,2.3l0.6,2.2l1.1,1.2v5.7h0.6l0.6-0.6l1.2,0.6l-0.6,1.7l-1.7-0.6l-0.6,1.7h-0.6l-2.3,0.6l-2.3-1.2l0.6-1.7l1.2-2.3l0.6-0.6
			v-1.7l-1.7-2.3l0.6-1.7h-0.6l-1.7,1.7l0.6,0.6l-0.6,10.2l-0.6,2.3h-1.1l-0.6-1.1v-0.6h-0.6L80,52.1L79.4,60v10.8l-1.1,0.6l0.6,1.7
			l-1.1,2.2l1.1,1.7l0.6,5.1L74.4,85l-2.8-2.8l-0.6-1.7l0.6-1.1l1.1,0.6l0.6,1.1h0.6l0.6-0.6v-1.7l1.1-4l-1.1-1.1l1.7-4l-1.1-1.1
			h-1.2L72.6,68l-1.7-3.4l0.6-2.8h1.7l1.2,2.8h0.6v-8L73.2,60l-2.3,0.6L70.3,60l0.6-4.5l0.6-1.2l-0.6-0.6v-1.7h1.2l0.6,0.6v1.1
			l0.6-0.6v-0.6h1.2l0.6,1.1l1.1-1.7l0.6-3.5h-1.1l-1.7,2.8l-2.2-3.4l1.1-5.1v-0.6l1.7-2.3l-0.6-2.8l1.2-3.5v-9.6l0.6-4.5v-2.3
			l0.6-0.6v-0.6l-1.7,0.6L73.7,14l4.6-6.9l2.8,1.2l0.6-0.6l-1.1-2.8l1.7-1.7L85.7,1.5z M75.5,85.6l1.7-0.6l3.5,2.2v2.3l-1.2,1.7
			l-2.8-0.6l-2.2-3.5l0.6-1.1L75.5,85.6z"/>
		<path class="st1" d="M156.5,50.8l4.6-4.5l1.7,0.6h0.6v2.3l-1.2,4l-1.1,1.7l-0.6,1.2l-1.7,2.3v1.1l-1.7,2.3l-1,2.7l-1.8,1.8v5.7
			l-0.6,2.8l-1.7,1.2v1.7l2.2,0.4l4.4-4.5l3.4-4.4l-0.3-4.1l1.9-1.2l0.6-7.2l-0.3-2.4l2.3-3.4l3.5-4.4l3.1,1l2,1.2v4l-1.7,1.1v0.6
			l0.6,2.3l-1.1,1.1l-1.2,5.1l-2.8,2.3l-1.7,3.4l-1.1,1.1l-1.3,2.8l2.3-0.8l1.8-1.4l1.6-1.2l2.4-0.6l3.8-2.6l3-1.4l1.6-1.5l3.4-1.9
			l2.6-1.6l4-0.7l-1.7,3.3l-1.8,1.9l-2.4,1.2l-2.7,2.1L181,69l-5.1,2.3l-0.6,1.1l-4.7,0.6l-1.5,2.2l-2.3,1.7l-2.7,1.2l-5.3,3.9
			l-3.4,1.1l-2.8,2.8v2.8l-0.6,0.6h-0.6V90l1.1,3.9l1,2.6l1.3,1.5l3.4,0.6l2.8-0.8l1-1.6l2-0.6l1.1-0.8l2.8-0.4l3.3-2l3.5-3.4
			l1.1-0.4l5.3-3.4l3.4-3.9l3.3-3.1l2.2-0.6l0.7,3l-4.1,4.3l-5.5,4.6l-4,2.2l-0.6,1.8l-4,3.5l-2.8,1.7l-4.6,0.6l-0.6,1.7v1.7
			l-3.4,0.6l-2.3,1.7h-1.7l-8.3,1.2l-4.6-3.1l-0.8-4.3l-1.1-1.7v-4l-0.6-1.7l0.6-1.2v-0.6l-1.2-2.8l1.2-5.1V78l1.7-3.4l0.6-4
			l0.6-0.6l2.2-4.6l1.7-5.7l4.5-6.2l1.7-1.1v-1.2L156.5,50.8z"/>
		<path class="st1" d="M218.8-0.2l5.1-5.1h2.8l1.1,1.7l-1.1,7.4l-1.2,0.6l-1.1,8l-2.3,4.6L221,18l-1.7,5.1l-1.1,4.5l-0.6,0.6v1.7
			l-1.2,1.1v0.6l0.6,0.6l-2.2,11.4l-1.7,0.6v0.6l1.2,2.8l-0.6,0.6v3.4l-1.1,3.4l-1.1,4l-1.2,3.4v4.6l0.6,1.1l-1.7,1.7v5.7l-1.2,2.3
			l-1.1,8h0.6v1.7l-1.7,1.2l1.1,1.7l0.6,0.6v14.8l0.6,0.6l2.8-0.6l2.3-8v-1.7l1.2-1.1v-3.4l1.7-0.6l0.6-0.6l2.8-7.4V81l1.2-1.1h1.1
			l1.1-4l1.2-1.7l1.7-4.6l1.7-1.7h1.7l1.7-5.1l3.4-1.7v-2.3l2.8-2.8l4-5.1l10.2-10.8h4l1.2,1.2l-0.6,4l-1.2,2.8l-1.1,5.7L250,66.9
			l-1.7,7.4l-1.1,2.3l0.6,1.7l-0.6,3.5l3.4-0.6l1.7-1.7l2.3,0.6h0.6l2.3-2.3h1.1l2.8-2.3l5.7-1.7h0.6l-0.6,4l-2.8,1.2l-4,1.1
			l-2.3,1.7l-0.6,1.1l-8,2.3h-2.2l-1.2,2.2l-2.8,1.7v5.1l-0.6,2.3l-2.8,6.8l-4.5,3.4l-4.6,0.7l-8.5-4.6l-2.8-3.5h-3.4l-0.6,0.6
			l0.6,2.2l-1.1,1.2l-1.2,2.3l-1.1,4l-0.6,5.1l-4.6,3.4l-0.6,1.1l-4.6,1.7l-0.6-1.2v-3.4l-1.7-6.8l-0.6-5.1l-0.6-1.7l0.6-3.5
			l2.2-2.8v-0.6l-1.7-2.2l1.7-4l-1.7-3.4l2.2-5.1l-1.1-1.1l1.1-2.3l2.8-2.3l-1.1-2.8l1.7-6.8l-1.2-4v-0.6l1.7-1.2l-0.6-1.7l1.7-2.3
			l-0.6-1.7l-2.8-1.7v-0.6l1.1-0.6h1.7l1.7-2.8l-0.6-2.8l-1.1-4l1.1-4l-0.6-4l2.3-1.1v-3.4h0.6v-2.3l2.3-2.8l-1.1-1.7h-0.6v-2.3
			l0.6-0.6h0.6l-0.6-2.3l1.1-1.2l0.6-2.8v-0.6l-0.6-2.2l1.1-2.3l0.6-2.3l2.8-5.1L218.8-0.2z M242.1,56.1l-0.6,0.6l-2.3,2.8
			l-8.5,12.5l-4.5,8.5l-4.6,6.2l0.6,1.7l-0.6,0.6v0.6l9.6-1.7l6.9-2.3l0.6-3.4l-0.6-1.7l1.7-4v-5.1l2.8-13.7v-1.1L242.1,56.1z
			 M234.1,93h-1.7l-2.3,4l1.7,2.2h0.6l1.7-2.2l1.2-1.2L234.1,93z"/>
		<path class="st1" d="M284.1,50.8l4.6-4.5l1.7,0.6h0.6v2.3l-1.2,4l-1.1,1.7l-0.6,1.2l-1.7,2.3v1.1l-1.7,2.3l-1,2.7l-1.8,1.8v5.7
			l-0.6,2.8l-1.7,1.2v1.7l2.2,0.4l4.4-4.5l3.4-4.4l-0.3-4.1l1.9-1.2l0.6-7.2l-0.3-2.4l2.3-3.4l3.5-4.4l3.1,1l2,1.2v4l-1.7,1.1v0.6
			l0.6,2.3l-1.1,1.1l-1.2,5.1L296,65l-1.7,3.4l-1.1,1.1l-1.3,2.8l2.3-0.8l1.8-1.4l1.6-1.2l2.4-0.6l3.8-2.6l3-1.4l1.6-1.5l3.4-1.9
			l2.6-1.6l4-0.7l-1.7,3.3l-1.8,1.9l-2.4,1.2l-2.7,2.1l-1.1,1.7l-5.1,2.3l-0.6,1.1l-4.7,0.6l-1.5,2.2l-2.3,1.7l-2.7,1.2l-5.3,3.9
			l-3.4,1.1l-2.8,2.8v2.8l-0.6,0.6H279V90l1.1,3.9l1,2.6l1.3,1.5l3.4,0.6l2.8-0.8l1-1.6l2-0.6l1.1-0.8l2.8-0.4l3.3-2l3.5-3.4
			l1.1-0.4l5.3-3.4l3.4-3.9l3.3-3.1l2.2-0.6l0.7,3l-4.1,4.3l-5.5,4.6l-4,2.2l-0.6,1.8l-4,3.5l-2.8,1.7l-4.6,0.6l-0.6,1.7v1.7
			l-3.4,0.6l-2.3,1.7h-1.7l-8.3,1.2l-4.6-3.1l-0.8-4.3l-1.1-1.7v-4l-0.6-1.7l0.6-1.2v-0.6l-1.2-2.8l1.2-5.1V78l1.7-3.4l0.6-4
			l0.6-0.6l2.2-4.6l1.7-5.7l4.5-6.2l1.7-1.1v-1.2L284.1,50.8z"/>
		<path class="st1" d="M334.5,60.4v-0.6h1.7l1.1,4.6v4l-2.3,1.7v1.7l1.7,3.4v1.7l-1.2,3.4l1.2,1.7l-0.6,6.2l1.7,3.4l11.4-8.5
			l8.5-4.5h1.7l5.1-4.6l4.6-4l2.3,0.6v0.6l0.6,2.8l2.8,4.6l0.6,3.4l1.1,2.8l2.3,4h1.1l1.7-1.7l4.2-1.3l3.1-2.1l5.1-2.1l3.4-2.3
			l2.3,1.7l-4,5.5l-4,1.7l-12.5,8.5h-4l-0.6,0.6l-1.2,1.7l-5.1,2.3h-1.2l-2.3-2.8v-2.3h-0.6l-0.6-0.6l-0.6-6.8l-4-3.4l-5.7,2.8h-1.2
			l-3.4,2.3l-4,3.4l-4.6,2.8l-2.3,2.2l-1.7,0.6l-5.7,4l-5.7,3.4l-1.1-0.6v-8l0.6-3.4L326,94v-1.7l1.7-1.7l-1.2-4l0.6-2.3l-0.6-4
			l1.2-3.4l-1.2-1.1l3.5-8.5L334.5,60.4z"/>
		<path class="st1" d="M437.2,39l2.1-0.7l3.4,0.6l2.2,1.2l1.9,1.6l1.1,2.7l0.6,3.5l-1,1.3l-0.7,1.5v2.8l-3.1,3.1l-2.7,1.7l-2-0.4
			l-0.6-1.5l1.6-1.5v-2l-1.3-1.5l-2.3,0.3l-2.1,1.7l-1.2,4l-0.8,2l-0.3,2.3l0.1,2.3l-0.6,3.4l-0.1,6.5l-1.7,2.8l1.1,2.8l0.3,2.3
			l-0.3,2.8l0.6,4v4l-0.6,1.2l1.2,8.5l-1.2,1.1v0.6l1.7,1.7l-1.1,2.2l-0.6,0.6h-1.1l-2.3,2.8l-2.2-1.2l-0.6,0.6l0.6,2.3l-0.6,0.6
			l-2.8-0.6v-2.8l-0.6-0.6H420l-1.2,1.7l-1.7-0.6l-2.8-0.6l-2.8-2.8l1.1-1.1l-0.6-3.4l-1.7-0.6l-3.5,0.6l0.6,1.1l-0.6,0.6h-0.6
			l-0.6-1.7l-2.8-1.7h-1.7v-1.7l-5.1-0.6l-0.6-0.6l5.1-5.7l2.8-2.2l4,1.1L410,94l3.2,2.2h1.1l2.3,3.5l5.1,1.1l1.2-1.1l-0.7-3
			l1.2-4.4v-2.8l0.6-2.3l-0.6-1.1l-0.6-4.6l1.1-1.1v-1.7l1.7-5.1l-1.6-3l-0.3-2.2l1.3-2.3l0.6-2.2l-1.2-1.2l1-3.1l0.8-3.1l0.3-2.6
			v-3.7l0.8-2.4l2.2-1.5l0.1-1.7l0.4-1.1l1.2-0.6l0.8-1.8l3.3-1.9L437.2,39z"/>
	</g>
</g>
<g>
	<path d="M43.2,137.7h-4.7v-3.2c0-0.9-0.1-1.5-0.2-1.7c-0.1-0.2-0.3-0.3-0.7-0.3c-0.4,0-0.6,0.1-0.7,0.4s-0.2,0.9-0.2,1.8v8.4
		c0,0.9,0.1,1.5,0.2,1.7s0.3,0.4,0.7,0.4c0.4,0,0.6-0.1,0.7-0.4c0.1-0.3,0.2-0.9,0.2-1.9v-2.3h4.7v0.7c0,1.9-0.1,3.2-0.4,4
		c-0.3,0.8-0.9,1.5-1.8,2.1c-0.9,0.6-2,0.9-3.4,0.9c-1.4,0-2.5-0.3-3.4-0.8s-1.5-1.2-1.8-2.1c-0.3-0.9-0.4-2.2-0.4-4v-5.3
		c0-1.3,0-2.3,0.1-2.9c0.1-0.7,0.4-1.3,0.8-1.9c0.4-0.6,1.1-1.1,1.9-1.4c0.8-0.3,1.7-0.5,2.7-0.5c1.4,0,2.5,0.3,3.4,0.8
		c0.9,0.5,1.5,1.2,1.8,2s0.4,2.1,0.4,3.8V137.7z"/>
	<path d="M55.8,129.8v18.2h-4.7v-7.6h-1.4v7.6h-4.7v-18.2h4.7v6.5h1.4v-6.5H55.8z"/>
	<path d="M57.7,129.8h7.9v3.6h-3.2v3.4h3v3.5h-3v4h3.5v3.6h-8.2V129.8z"/>
	<path d="M78.3,137.7h-4.7v-3.2c0-0.9-0.1-1.5-0.2-1.7c-0.1-0.2-0.3-0.3-0.7-0.3c-0.4,0-0.6,0.1-0.7,0.4s-0.2,0.9-0.2,1.8v8.4
		c0,0.9,0.1,1.5,0.2,1.7s0.3,0.4,0.7,0.4c0.4,0,0.6-0.1,0.7-0.4c0.1-0.3,0.2-0.9,0.2-1.9v-2.3h4.7v0.7c0,1.9-0.1,3.2-0.4,4
		c-0.3,0.8-0.9,1.5-1.8,2.1c-0.9,0.6-2,0.9-3.4,0.9c-1.4,0-2.5-0.3-3.4-0.8s-1.5-1.2-1.8-2.1c-0.3-0.9-0.4-2.2-0.4-4v-5.3
		c0-1.3,0-2.3,0.1-2.9c0.1-0.7,0.4-1.3,0.8-1.9c0.4-0.6,1.1-1.1,1.9-1.4c0.8-0.3,1.7-0.5,2.7-0.5c1.4,0,2.5,0.3,3.4,0.8
		c0.9,0.5,1.5,1.2,1.8,2s0.4,2.1,0.4,3.8V137.7z"/>
	<path d="M91.3,129.8l-2.7,8.2l3,10h-4.9l-1.9-7.8v7.8H80v-18.2h4.7v7.1l2.1-7.1H91.3z"/>
	<path d="M92.3,129.8h4.8c1.3,0,2.3,0.1,3,0.3c0.7,0.2,1.2,0.5,1.6,0.9c0.3,0.4,0.6,0.8,0.7,1.4c0.1,0.5,0.2,1.4,0.2,2.5v1.6
		c0,1.2-0.1,2-0.4,2.5s-0.7,0.9-1.3,1.2c-0.6,0.3-1.5,0.4-2.5,0.4h-1.3v7.3h-4.7V129.8z M97.1,132.9v4.6c0.1,0,0.3,0,0.3,0
		c0.4,0,0.7-0.1,0.9-0.3c0.2-0.2,0.3-0.7,0.3-1.3v-1.5c0-0.6-0.1-1-0.3-1.2S97.7,132.9,97.1,132.9z"/>
	<path d="M114.7,140.4c0,1.8,0,3.1-0.1,3.9c-0.1,0.8-0.4,1.5-0.8,2.1c-0.5,0.6-1.1,1.1-1.8,1.4s-1.7,0.5-2.7,0.5
		c-1,0-1.8-0.2-2.6-0.5c-0.8-0.3-1.4-0.8-1.9-1.4s-0.8-1.3-0.8-2.1s-0.1-2.1-0.1-3.9v-3.1c0-1.8,0-3.1,0.1-3.9
		c0.1-0.8,0.4-1.5,0.8-2.1c0.5-0.6,1.1-1.1,1.8-1.4s1.7-0.5,2.7-0.5c1,0,1.8,0.2,2.6,0.5c0.8,0.3,1.4,0.8,1.9,1.4s0.8,1.3,0.8,2.1
		s0.1,2.1,0.1,3.9V140.4z M109.9,134.4c0-0.8,0-1.4-0.1-1.6c-0.1-0.2-0.3-0.4-0.6-0.4c-0.2,0-0.4,0.1-0.6,0.3
		c-0.1,0.2-0.2,0.8-0.2,1.7v8.5c0,1.1,0,1.7,0.1,2c0.1,0.2,0.3,0.4,0.6,0.4c0.3,0,0.5-0.1,0.6-0.4s0.1-1,0.1-2V134.4z"/>
	<path d="M121.2,129.8v18.2h-4.7v-18.2H121.2z"/>
	<path d="M133.6,129.8v18.2h-4.1l-2.5-8.3v8.3h-4v-18.2h4l2.7,8.2v-8.2H133.6z"/>
	<path d="M145,129.8v3.6h-2.8v14.5h-4.7v-14.5h-2.8v-3.6H145z"/>
	<path d="M155.6,138.9v3.1h-6v-3.1H155.6z"/>
	<path d="M165.7,129.8v14.5h2.9v3.6H161v-18.2H165.7z"/>
	<path d="M174.5,129.8v18.2h-4.7v-18.2H174.5z"/>
	<path d="M187.4,137.7h-4.7v-3.2c0-0.9-0.1-1.5-0.2-1.7c-0.1-0.2-0.3-0.3-0.7-0.3c-0.4,0-0.6,0.1-0.7,0.4s-0.2,0.9-0.2,1.8v8.4
		c0,0.9,0.1,1.5,0.2,1.7s0.3,0.4,0.7,0.4c0.4,0,0.6-0.1,0.7-0.4c0.1-0.3,0.2-0.9,0.2-1.9v-2.3h4.7v0.7c0,1.9-0.1,3.2-0.4,4
		c-0.3,0.8-0.9,1.5-1.8,2.1c-0.9,0.6-2,0.9-3.4,0.9c-1.4,0-2.5-0.3-3.4-0.8s-1.5-1.2-1.8-2.1c-0.3-0.9-0.4-2.2-0.4-4v-5.3
		c0-1.3,0-2.3,0.1-2.9c0.1-0.7,0.4-1.3,0.8-1.9c0.4-0.6,1.1-1.1,1.9-1.4c0.8-0.3,1.7-0.5,2.7-0.5c1.4,0,2.5,0.3,3.4,0.8
		c0.9,0.5,1.5,1.2,1.8,2s0.4,2.1,0.4,3.8V137.7z"/>
	<path d="M200,129.8v18.2h-4.7v-7.6h-1.4v7.6h-4.7v-18.2h4.7v6.5h1.4v-6.5H200z"/>
	<path d="M211.4,129.8v3.6h-2.8v14.5h-4.7v-14.5h-2.8v-3.6H211.4z"/>
	<path d="M212.5,129.8h4.7c1.5,0,2.6,0.1,3.4,0.3c0.8,0.2,1.4,0.7,1.9,1.4s0.7,1.8,0.7,3.4c0,1.1-0.2,1.8-0.5,2.2
		c-0.3,0.4-1,0.7-2,1c1.1,0.2,1.8,0.7,2.2,1.2c0.4,0.6,0.6,1.5,0.6,2.6v1.7c0,1.2-0.1,2.1-0.4,2.7c-0.3,0.6-0.7,1-1.3,1.2
		s-1.9,0.3-3.8,0.3h-5.5V129.8z M217.2,132.9v4c0.2,0,0.4,0,0.5,0c0.5,0,0.8-0.1,0.9-0.3c0.1-0.2,0.2-0.9,0.2-2c0-0.6-0.1-1-0.2-1.2
		c-0.1-0.2-0.2-0.4-0.4-0.4C218,132.9,217.7,132.9,217.2,132.9z M217.2,139.7v5.1c0.7,0,1.1-0.1,1.3-0.3c0.2-0.2,0.3-0.6,0.3-1.4
		v-1.7c0-0.8-0.1-1.3-0.2-1.4S217.9,139.8,217.2,139.7z"/>
	<path d="M229.9,129.8v14.5h2.9v3.6h-7.6v-18.2H229.9z"/>
	<path d="M238.7,129.8v18.2h-4.7v-18.2H238.7z"/>
	<path d="M251.6,137.7h-4.7v-3.2c0-0.9-0.1-1.5-0.2-1.7c-0.1-0.2-0.3-0.3-0.7-0.3c-0.4,0-0.6,0.1-0.7,0.4s-0.2,0.9-0.2,1.8v8.4
		c0,0.9,0.1,1.5,0.2,1.7s0.3,0.4,0.7,0.4c0.4,0,0.6-0.1,0.7-0.4c0.1-0.3,0.2-0.9,0.2-1.9v-2.3h4.7v0.7c0,1.9-0.1,3.2-0.4,4
		c-0.3,0.8-0.9,1.5-1.8,2.1c-0.9,0.6-2,0.9-3.4,0.9c-1.4,0-2.5-0.3-3.4-0.8s-1.5-1.2-1.8-2.1c-0.3-0.9-0.4-2.2-0.4-4v-5.3
		c0-1.3,0-2.3,0.1-2.9c0.1-0.7,0.4-1.3,0.8-1.9c0.4-0.6,1.1-1.1,1.9-1.4c0.8-0.3,1.7-0.5,2.7-0.5c1.4,0,2.5,0.3,3.4,0.8
		c0.9,0.5,1.5,1.2,1.8,2s0.4,2.1,0.4,3.8V137.7z"/>
	<path d="M264.6,129.8l-2.7,8.2l3,10h-4.9l-1.9-7.8v7.8h-4.7v-18.2h4.7v7.1l2.1-7.1H264.6z"/>
	<path d="M275.1,138.9v3.1h-6v-3.1H275.1z"/>
	<path d="M280.5,129.8h8v3.6h-3.3v3.4h2.9v3.5h-2.9v7.6h-4.7V129.8z"/>
	<path d="M294.4,129.8v14.5h2.9v3.6h-7.6v-18.2H294.4z"/>
	<path d="M309.2,129.8v12.2c0,1.4,0,2.3-0.1,2.9c-0.1,0.6-0.4,1.1-0.8,1.7c-0.4,0.6-1,1-1.7,1.3c-0.7,0.3-1.6,0.5-2.6,0.5
		c-1.1,0-2-0.2-2.9-0.5s-1.5-0.8-1.9-1.4s-0.7-1.2-0.7-1.8c-0.1-0.6-0.1-2-0.1-4v-10.8h4.7v13.6c0,0.8,0,1.3,0.1,1.5
		c0.1,0.2,0.3,0.3,0.5,0.3c0.3,0,0.5-0.1,0.6-0.4c0.1-0.2,0.1-0.8,0.1-1.7v-13.4H309.2z M302.8,126.3v2.9h-2.9v-2.9H302.8z
		 M307.7,126.3v2.9h-2.9v-2.9H307.7z"/>
	<path d="M322,137.7h-4.7v-3.2c0-0.9-0.1-1.5-0.2-1.7c-0.1-0.2-0.3-0.3-0.7-0.3c-0.4,0-0.6,0.1-0.7,0.4s-0.2,0.9-0.2,1.8v8.4
		c0,0.9,0.1,1.5,0.2,1.7s0.3,0.4,0.7,0.4c0.4,0,0.6-0.1,0.7-0.4c0.1-0.3,0.2-0.9,0.2-1.9v-2.3h4.7v0.7c0,1.9-0.1,3.2-0.4,4
		c-0.3,0.8-0.9,1.5-1.8,2.1c-0.9,0.6-2,0.9-3.4,0.9c-1.4,0-2.5-0.3-3.4-0.8s-1.5-1.2-1.8-2.1c-0.3-0.9-0.4-2.2-0.4-4v-5.3
		c0-1.3,0-2.3,0.1-2.9c0.1-0.7,0.4-1.3,0.8-1.9c0.4-0.6,1.1-1.1,1.9-1.4c0.8-0.3,1.7-0.5,2.7-0.5c1.4,0,2.5,0.3,3.4,0.8
		c0.9,0.5,1.5,1.2,1.8,2s0.4,2.1,0.4,3.8V137.7z"/>
	<path d="M334.6,129.8v18.2h-4.7v-7.6h-1.4v7.6h-4.7v-18.2h4.7v6.5h1.4v-6.5H334.6z"/>
	<path d="M346,129.8v3.6h-2.8v14.5h-4.7v-14.5h-2.8v-3.6H346z"/>
	<path d="M351.8,129.8v14.5h2.9v3.6h-7.6v-18.2H351.8z"/>
	<path d="M360.6,129.8v18.2h-4.7v-18.2H360.6z"/>
	<path d="M373,129.8v18.2h-4.1l-2.5-8.3v8.3h-4v-18.2h4l2.7,8.2v-8.2H373z"/>
	<path d="M385.8,136.5H381v-1.7c0-1,0-1.7-0.1-2s-0.3-0.4-0.6-0.4c-0.3,0-0.5,0.1-0.6,0.3s-0.2,0.8-0.2,1.7v8.7
		c0,0.8,0.1,1.4,0.2,1.6c0.1,0.3,0.3,0.4,0.6,0.4c0.3,0,0.6-0.1,0.7-0.4c0.1-0.3,0.2-0.9,0.2-1.7v-2.2h-1v-2.8h5.5v9.8h-3l-0.4-1.3
		c-0.3,0.6-0.7,1-1.2,1.3c-0.5,0.3-1.1,0.4-1.7,0.4c-0.8,0-1.5-0.2-2.2-0.6c-0.7-0.4-1.2-0.9-1.6-1.4s-0.6-1.2-0.7-1.8
		c-0.1-0.6-0.1-1.6-0.1-2.8v-5.4c0-1.7,0.1-3,0.3-3.8s0.7-1.5,1.6-2.2c0.9-0.7,2-1,3.4-1c1.4,0,2.5,0.3,3.4,0.9s1.5,1.2,1.8,2
		c0.3,0.8,0.4,1.9,0.4,3.4V136.5z"/>
	<path d="M397.6,135.3h-4.4v-1.3c0-0.6-0.1-1-0.2-1.2s-0.3-0.3-0.6-0.3c-0.3,0-0.5,0.1-0.6,0.3c-0.1,0.2-0.2,0.6-0.2,1.1
		c0,0.6,0.1,1.1,0.2,1.4c0.2,0.3,0.6,0.7,1.3,1.1c2.1,1.2,3.4,2.3,4,3.1s0.8,2.1,0.8,3.9c0,1.3-0.2,2.3-0.5,2.9
		c-0.3,0.6-0.9,1.1-1.8,1.5c-0.9,0.4-1.9,0.6-3,0.6c-1.3,0-2.3-0.2-3.2-0.7c-0.9-0.5-1.5-1.1-1.8-1.8s-0.4-1.8-0.4-3.2v-1.2h4.4v2.2
		c0,0.7,0.1,1.1,0.2,1.3c0.1,0.2,0.3,0.3,0.7,0.3s0.5-0.1,0.7-0.4c0.2-0.2,0.2-0.6,0.2-1.1c0-1.1-0.1-1.8-0.4-2.1
		c-0.3-0.3-1-0.9-2.2-1.7c-1.2-0.8-2-1.3-2.3-1.7s-0.7-0.8-0.9-1.5c-0.3-0.6-0.4-1.4-0.4-2.4c0-1.4,0.2-2.4,0.5-3.1
		c0.4-0.6,0.9-1.1,1.7-1.5c0.8-0.4,1.8-0.5,2.9-0.5c1.2,0,2.3,0.2,3.1,0.6c0.9,0.4,1.4,0.9,1.7,1.5c0.3,0.6,0.4,1.6,0.4,3.1V135.3z"
		/>
	<path d="M410.1,129.8v18.2h-4.1l-2.5-8.3v8.3h-4v-18.2h4l2.7,8.2v-8.2H410.1z"/>
	<path d="M412,129.8h7.9v3.6h-3.2v3.4h3v3.5h-3v4h3.5v3.6H412V129.8z"/>
	<path d="M430.7,129.8v3.6h-2.8v14.5h-4.7v-14.5h-2.8v-3.6H430.7z"/>
	<path d="M439.6,129.8v3.6l-3.5,10.9h3.5v3.6h-8.7v-2.6l3.6-11.9h-3.2v-3.6H439.6z"/>
	<path d="M458.6,129.8l-2.1,18.2h-5.9c-0.5-2.8-1-6-1.4-9.5c-0.2,1.5-0.6,4.7-1.3,9.5H442l-2.1-18.2h4.6l0.5,6.3l0.5,6.1
		c0.2-3.2,0.6-7.3,1.3-12.5h4.9c0.1,0.5,0.2,2.5,0.5,6l0.5,6.9c0.3-4.4,0.7-8.7,1.3-12.9H458.6z"/>
	<path d="M459.5,129.8h7.9v3.6h-3.2v3.4h3v3.5h-3v4h3.5v3.6h-8.2V129.8z"/>
	<path d="M469.1,129.8h3.3c2.2,0,3.7,0.1,4.5,0.3s1.4,0.6,1.9,1.3c0.5,0.7,0.7,1.8,0.7,3.4c0,1.4-0.2,2.4-0.5,2.9
		c-0.4,0.5-1,0.8-2.1,0.9c0.9,0.2,1.6,0.5,1.9,0.9s0.5,0.7,0.6,1.1c0.1,0.3,0.1,1.2,0.1,2.7v4.8h-4.4v-6c0-1-0.1-1.6-0.2-1.8
		s-0.6-0.3-1.2-0.3v8.2h-4.7V129.8z M473.8,132.9v4c0.5,0,0.9-0.1,1.1-0.2c0.2-0.1,0.3-0.6,0.3-1.4v-1c0-0.6-0.1-1-0.3-1.1
		S474.3,132.9,473.8,132.9z"/>
	<path d="M492.7,129.8L490,138l3,10h-4.9l-1.9-7.8v7.8h-4.7v-18.2h4.7v7.1l2.1-7.1H492.7z"/>
	<path class="st0" d="M497.9,129.8h4.7c1.5,0,2.6,0.1,3.4,0.3s1.4,0.7,1.9,1.4c0.5,0.7,0.7,1.8,0.7,3.4c0,1.1-0.2,1.8-0.5,2.2
		s-1,0.7-2,1c1.1,0.2,1.8,0.7,2.2,1.2c0.4,0.6,0.6,1.5,0.6,2.6v1.7c0,1.2-0.1,2.1-0.4,2.7c-0.3,0.6-0.7,1-1.3,1.2
		c-0.6,0.2-1.9,0.3-3.8,0.3h-5.5V129.8z M502.6,132.9v4c0.2,0,0.4,0,0.5,0c0.5,0,0.8-0.1,0.9-0.3c0.1-0.2,0.2-0.9,0.2-2
		c0-0.6-0.1-1-0.2-1.2c-0.1-0.2-0.2-0.4-0.4-0.4C503.4,132.9,503.1,132.9,502.6,132.9z M502.6,139.7v5.1c0.7,0,1.1-0.1,1.3-0.3
		s0.3-0.6,0.3-1.4v-1.7c0-0.8-0.1-1.3-0.2-1.4C503.7,139.9,503.3,139.8,502.6,139.7z"/>
	<path class="st0" d="M510.6,129.8h7.9v3.6h-3.2v3.4h3v3.5h-3v4h3.5v3.6h-8.2V129.8z"/>
	<path class="st0" d="M537.9,129.8l-2.1,18.2h-5.9c-0.5-2.8-1-6-1.4-9.5c-0.2,1.5-0.6,4.7-1.3,9.5h-5.9l-2.1-18.2h4.6l0.5,6.3
		l0.5,6.1c0.2-3.2,0.6-7.3,1.3-12.5h4.9c0.1,0.5,0.2,2.5,0.5,6l0.5,6.9c0.3-4.4,0.7-8.7,1.3-12.9H537.9z"/>
	<path class="st0" d="M538.8,129.8h7.9v3.6h-3.2v3.4h3v3.5h-3v4h3.5v3.6h-8.2V129.8z"/>
	<path class="st0" d="M559.3,136.5h-4.7v-1.7c0-1,0-1.7-0.1-2s-0.3-0.4-0.6-0.4c-0.3,0-0.5,0.1-0.6,0.3c-0.1,0.2-0.2,0.8-0.2,1.7
		v8.7c0,0.8,0.1,1.4,0.2,1.6c0.1,0.3,0.3,0.4,0.6,0.4c0.3,0,0.6-0.1,0.7-0.4c0.1-0.3,0.2-0.9,0.2-1.7v-2.2h-1v-2.8h5.5v9.8h-3
		l-0.4-1.3c-0.3,0.6-0.7,1-1.2,1.3c-0.5,0.3-1.1,0.4-1.7,0.4c-0.8,0-1.5-0.2-2.2-0.6c-0.7-0.4-1.2-0.9-1.6-1.4
		c-0.4-0.6-0.6-1.2-0.7-1.8c-0.1-0.6-0.1-1.6-0.1-2.8v-5.4c0-1.7,0.1-3,0.3-3.8c0.2-0.8,0.7-1.5,1.6-2.2c0.9-0.7,2-1,3.4-1
		c1.4,0,2.5,0.3,3.4,0.9s1.5,1.2,1.8,2c0.3,0.8,0.4,1.9,0.4,3.4V136.5z"/>
	<path class="st0" d="M570.6,129.8v3.6h-2.8v14.5h-4.7v-14.5h-2.8v-3.6H570.6z"/>
	<path class="st0" d="M593.5,129.8l-2.1,18.2h-5.9c-0.5-2.8-1-6-1.4-9.5c-0.2,1.5-0.6,4.7-1.3,9.5h-5.9l-2.1-18.2h4.6l0.5,6.3
		l0.5,6.1c0.2-3.2,0.6-7.3,1.3-12.5h4.9c0.1,0.5,0.2,2.5,0.5,6l0.5,6.9c0.3-4.4,0.7-8.7,1.3-12.9H593.5z"/>
	<path class="st0" d="M602.4,129.8l2.7,18.2h-4.8l-0.3-3.3h-1.7l-0.3,3.3h-4.9l2.4-18.2H602.4z M599.9,141.5
		c-0.2-2.1-0.5-4.6-0.7-7.6c-0.5,3.5-0.8,6-0.9,7.6H599.9z"/>
	<path class="st0" d="M615.9,135.3h-4.4v-1.3c0-0.6-0.1-1-0.2-1.2s-0.3-0.3-0.6-0.3c-0.3,0-0.5,0.1-0.6,0.3
		c-0.1,0.2-0.2,0.6-0.2,1.1c0,0.6,0.1,1.1,0.2,1.4c0.2,0.3,0.6,0.7,1.3,1.1c2.1,1.2,3.4,2.3,4,3.1s0.8,2.1,0.8,3.9
		c0,1.3-0.2,2.3-0.5,2.9c-0.3,0.6-0.9,1.1-1.8,1.5c-0.9,0.4-1.9,0.6-3,0.6c-1.3,0-2.3-0.2-3.2-0.7s-1.5-1.1-1.8-1.8
		c-0.3-0.7-0.4-1.8-0.4-3.2v-1.2h4.4v2.2c0,0.7,0.1,1.1,0.2,1.3c0.1,0.2,0.3,0.3,0.7,0.3s0.5-0.1,0.7-0.4s0.2-0.6,0.2-1.1
		c0-1.1-0.1-1.8-0.4-2.1c-0.3-0.3-1-0.9-2.2-1.7c-1.2-0.8-2-1.3-2.3-1.7c-0.4-0.4-0.7-0.8-0.9-1.5s-0.4-1.4-0.4-2.4
		c0-1.4,0.2-2.4,0.5-3.1s0.9-1.1,1.7-1.5c0.8-0.4,1.8-0.5,2.9-0.5c1.2,0,2.3,0.2,3.1,0.6c0.9,0.4,1.4,0.9,1.7,1.5
		c0.3,0.6,0.4,1.6,0.4,3.1V135.3z"/>
	<path class="st0" d="M626.6,129.8v18.2h-4.7v-18.2H626.6z"/>
	<path class="st0" d="M639.1,129.8v18.2h-4.1l-2.5-8.3v8.3h-4v-18.2h4l2.7,8.2v-8.2H639.1z"/>
	<path class="st0" d="M645,129.8h7.9v3.6h-3.2v3.4h3v3.5h-3v4h3.5v3.6H645V129.8z"/>
	<path class="st0" d="M665.3,129.8v12.2c0,1.4,0,2.3-0.1,2.9c-0.1,0.6-0.4,1.1-0.8,1.7c-0.4,0.6-1,1-1.7,1.3
		c-0.7,0.3-1.6,0.5-2.6,0.5c-1.1,0-2-0.2-2.9-0.5c-0.8-0.4-1.5-0.8-1.9-1.4c-0.4-0.6-0.7-1.2-0.7-1.8c-0.1-0.6-0.1-2-0.1-4v-10.8
		h4.7v13.6c0,0.8,0,1.3,0.1,1.5c0.1,0.2,0.3,0.3,0.5,0.3c0.3,0,0.5-0.1,0.6-0.4c0.1-0.2,0.1-0.8,0.1-1.7v-13.4H665.3z"/>
	<path class="st0" d="M667.1,129.8h3.3c2.2,0,3.7,0.1,4.5,0.3s1.4,0.6,1.9,1.3c0.5,0.7,0.7,1.8,0.7,3.4c0,1.4-0.2,2.4-0.5,2.9
		c-0.4,0.5-1,0.8-2.1,0.9c0.9,0.2,1.6,0.5,1.9,0.9s0.5,0.7,0.6,1.1c0.1,0.3,0.1,1.2,0.1,2.7v4.8h-4.4v-6c0-1-0.1-1.6-0.2-1.8
		s-0.6-0.3-1.2-0.3v8.2h-4.7V129.8z M671.9,132.9v4c0.5,0,0.9-0.1,1.1-0.2c0.2-0.1,0.3-0.6,0.3-1.4v-1c0-0.6-0.1-1-0.3-1.1
		S672.4,132.9,671.9,132.9z"/>
	<path class="st0" d="M679.5,129.8h7.9v3.6h-3.2v3.4h3v3.5h-3v4h3.5v3.6h-8.2V129.8z"/>
	<path class="st0" d="M689.1,129.8h3.3c2.2,0,3.7,0.1,4.5,0.3s1.4,0.6,1.9,1.3c0.5,0.7,0.7,1.8,0.7,3.4c0,1.4-0.2,2.4-0.5,2.9
		c-0.4,0.5-1,0.8-2.1,0.9c0.9,0.2,1.6,0.5,1.9,0.9s0.5,0.7,0.6,1.1c0.1,0.3,0.1,1.2,0.1,2.7v4.8h-4.4v-6c0-1-0.1-1.6-0.2-1.8
		s-0.6-0.3-1.2-0.3v8.2h-4.7V129.8z M693.8,132.9v4c0.5,0,0.9-0.1,1.1-0.2c0.2-0.1,0.3-0.6,0.3-1.4v-1c0-0.6-0.1-1-0.3-1.1
		S694.4,132.9,693.8,132.9z"/>
	<path class="st0" d="M715.5,135.3h-4.4v-1.3c0-0.6-0.1-1-0.2-1.2s-0.3-0.3-0.6-0.3c-0.3,0-0.5,0.1-0.6,0.3
		c-0.1,0.2-0.2,0.6-0.2,1.1c0,0.6,0.1,1.1,0.2,1.4c0.2,0.3,0.6,0.7,1.3,1.1c2.1,1.2,3.4,2.3,4,3.1s0.8,2.1,0.8,3.9
		c0,1.3-0.2,2.3-0.5,2.9c-0.3,0.6-0.9,1.1-1.8,1.5c-0.9,0.4-1.9,0.6-3,0.6c-1.3,0-2.3-0.2-3.2-0.7s-1.5-1.1-1.8-1.8
		c-0.3-0.7-0.4-1.8-0.4-3.2v-1.2h4.4v2.2c0,0.7,0.1,1.1,0.2,1.3c0.1,0.2,0.3,0.3,0.7,0.3s0.5-0.1,0.7-0.4s0.2-0.6,0.2-1.1
		c0-1.1-0.1-1.8-0.4-2.1c-0.3-0.3-1-0.9-2.2-1.7c-1.2-0.8-2-1.3-2.3-1.7c-0.4-0.4-0.7-0.8-0.9-1.5s-0.4-1.4-0.4-2.4
		c0-1.4,0.2-2.4,0.5-3.1s0.9-1.1,1.7-1.5c0.8-0.4,1.8-0.5,2.9-0.5c1.2,0,2.3,0.2,3.1,0.6c0.9,0.4,1.4,0.9,1.7,1.5
		c0.3,0.6,0.4,1.6,0.4,3.1V135.3z"/>
	<path class="st0" d="M726.9,129.8v3.6h-2.8v14.5h-4.7v-14.5h-2.8v-3.6H726.9z"/>
	<path class="st0" d="M735.3,129.8l2.7,18.2h-4.8l-0.3-3.3h-1.7l-0.3,3.3H726l2.4-18.2H735.3z M732.8,141.5
		c-0.2-2.1-0.5-4.6-0.7-7.6c-0.5,3.5-0.8,6-0.9,7.6H732.8z"/>
	<path class="st0" d="M738.8,129.8h3.5c2.3,0,3.8,0.1,4.6,0.3s1.4,0.6,1.8,1c0.4,0.5,0.7,1,0.8,1.6c0.1,0.6,0.2,1.7,0.2,3.5v6.4
		c0,1.6-0.1,2.7-0.2,3.3c-0.2,0.5-0.4,1-0.8,1.3c-0.4,0.3-0.9,0.5-1.4,0.7c-0.6,0.1-1.4,0.2-2.5,0.2h-6V129.8z M743.5,132.9v12
		c0.7,0,1.1-0.1,1.3-0.4c0.2-0.3,0.2-1,0.2-2.2v-7.1c0-0.8,0-1.4-0.1-1.6c-0.1-0.2-0.2-0.4-0.4-0.5
		C744.4,132.9,744,132.9,743.5,132.9z"/>
	<path class="st0" d="M761,129.8v3.6h-2.8v14.5h-4.7v-14.5h-2.8v-3.6H761z"/>
	<path class="st0" d="M766.9,129.8l-0.7,13.7h-3.5l-0.7-13.7H766.9z M766.6,144.3v3.6h-4.2v-3.6H766.6z"/>
</g>
<g>
	<path d="M748.4,116.4h18.2v4.7h-18.2V116.4z"/>
	<path d="M753.9,104.5v4.4h-1.3c-0.6,0-1,0.1-1.2,0.2s-0.3,0.3-0.3,0.6c0,0.3,0.1,0.5,0.3,0.6c0.2,0.1,0.6,0.2,1.1,0.2
		c0.6,0,1.1-0.1,1.4-0.2c0.3-0.2,0.7-0.6,1.1-1.3c1.2-2.1,2.3-3.4,3.1-4s2.1-0.8,3.9-0.8c1.3,0,2.3,0.2,2.9,0.5
		c0.6,0.3,1.1,0.9,1.5,1.8c0.4,0.9,0.6,1.9,0.6,3c0,1.3-0.2,2.3-0.7,3.2c-0.5,0.9-1.1,1.5-1.8,1.8s-1.8,0.4-3.2,0.4h-1.2v-4.4h2.2
		c0.7,0,1.1-0.1,1.3-0.2c0.2-0.1,0.3-0.3,0.3-0.7s-0.1-0.5-0.4-0.7c-0.2-0.2-0.6-0.2-1.1-0.2c-1.1,0-1.8,0.1-2.1,0.4
		c-0.3,0.3-0.9,1-1.7,2.2c-0.8,1.2-1.3,2-1.7,2.3s-0.8,0.7-1.5,0.9c-0.6,0.3-1.4,0.4-2.4,0.4c-1.4,0-2.4-0.2-3.1-0.5
		c-0.6-0.4-1.1-0.9-1.5-1.7c-0.4-0.8-0.5-1.8-0.5-2.9c0-1.2,0.2-2.3,0.6-3.1c0.4-0.9,0.9-1.4,1.5-1.7c0.6-0.3,1.6-0.4,3.1-0.4H753.9
		z"/>
	<path d="M748.4,102.6v-7.9h3.6v3.2h3.4v-3h3.5v3h4v-3.5h3.6v8.2H748.4z"/>
	<path d="M748.4,93.1v-3.3c0-2.2,0.1-3.7,0.3-4.5c0.2-0.8,0.6-1.4,1.3-1.9c0.7-0.5,1.8-0.7,3.4-0.7c1.4,0,2.4,0.2,2.9,0.5
		s0.8,1,0.9,2.1c0.2-0.9,0.5-1.6,0.9-1.9s0.7-0.5,1.1-0.6c0.3-0.1,1.2-0.1,2.7-0.1h4.8v4.4h-6c-1,0-1.6,0.1-1.8,0.2
		c-0.2,0.2-0.3,0.6-0.3,1.2h8.2v4.7H748.4z M751.5,88.4h4c0-0.5-0.1-0.9-0.2-1.1c-0.1-0.2-0.6-0.3-1.4-0.3h-1c-0.6,0-1,0.1-1.1,0.3
		C751.6,87.4,751.5,87.8,751.5,88.4z"/>
	<path d="M748.4,76h14.5v-2.9h3.6v7.6h-18.2V76z"/>
	<path d="M759,61.5c1.8,0,3.1,0,3.9,0.1c0.8,0.1,1.5,0.4,2.1,0.8c0.6,0.5,1.1,1.1,1.4,1.8s0.5,1.7,0.5,2.7c0,1-0.2,1.8-0.5,2.6
		c-0.3,0.8-0.8,1.4-1.4,1.9s-1.3,0.8-2.1,0.8s-2.1,0.1-3.9,0.1h-3.1c-1.8,0-3.1,0-3.9-0.1c-0.8-0.1-1.5-0.4-2.1-0.8
		c-0.6-0.5-1.1-1.1-1.4-1.8S748,68,748,67c0-1,0.2-1.8,0.5-2.6c0.3-0.8,0.8-1.4,1.4-1.9s1.3-0.8,2.1-0.8s2.1-0.1,3.9-0.1H759z
		 M753.1,66.2c-0.8,0-1.4,0-1.6,0.1c-0.2,0.1-0.4,0.3-0.4,0.6c0,0.2,0.1,0.4,0.3,0.6c0.2,0.1,0.8,0.2,1.7,0.2h8.5c1.1,0,1.7,0,2-0.1
		c0.2-0.1,0.4-0.3,0.4-0.6c0-0.3-0.1-0.5-0.4-0.6s-1-0.1-2-0.1H753.1z"/>
	<path d="M748.4,48.9h18.2v4.7h-7.6V55h7.6v4.7h-18.2V55h6.5v-1.4h-6.5V48.9z"/>
	<path d="M748.4,36.4h18.2v4.1l-8.3,2.5h8.3v4h-18.2v-4l8.2-2.7h-8.2V36.4z"/>
	<path d="M748.4,30.5v-7.9h3.6v3.2h3.4v-3h3.5v3h4v-3.5h3.6v8.2H748.4z"/>
	<path d="M762.9,18h3.7v3.4h-3.7V18z"/>
	<path d="M748.4,5.4l18.2,2.4V15l-18.2,2.7v-5c5-0.6,9.2-1,12.7-1.2c-3.5-0.2-6.6-0.5-9.3-0.8l-3.4-0.3V5.4z"/>
	<path d="M762.9,2.6h3.7V6h-3.7V2.6z"/>
</g>
</svg>
