<?xml version="1.0" encoding="UTF-8"?>
<svg id="Ebene_1" data-name="Ebene 1" xmlns="http://www.w3.org/2000/svg" viewBox="0 0 283.46 223.28">
  <defs>
    <style>
      .cls-1 {
        fill: #039;
      }

      .cls-2 {
        fill: #fff;
      }

      .cls-3 {
        fill: #aa383a;
      }

      .cls-4 {
        fill: #dfaa44;
      }

      .cls-5 {
        fill: #e1af4e;
      }

      .cls-6 {
        fill: #0e3e9e;
      }

      .cls-7 {
        fill: #a52d2f;
      }
    </style>
  </defs>
  <rect class="cls-2" width="283.46" height="223.28"/>
  <g>
    <path class="cls-1" d="M76.8,147.01s0,.05,0,.08c0,.38-.13,.81-.4,1.29-.27,.48-.61,.95-1.01,1.42-.41,.47-.84,.91-1.32,1.33-.47,.41-.9,.76-1.3,1.03-.67,.47-1.36,.9-2.07,1.3s-1.46,.8-2.25,1.22c-.14,.09-.3,.14-.47,.14-.16,0-.3-.05-.44-.16-.14-.11-.26-.23-.36-.37-.07-.13-.1-.26-.1-.39,0-.16,.04-.31,.13-.46,.08-.15,.21-.27,.38-.36,.83-.43,1.58-.84,2.28-1.23,.69-.39,1.31-.78,1.85-1.17,.31-.22,.66-.5,1.02-.83,.37-.33,.71-.68,1.02-1.03s.58-.7,.79-1.05c.21-.35,.31-.65,.31-.89,0-.34-.13-.68-.4-1.01-.27-.33-.68-.68-1.23-1.05-.24-.16-.52-.33-.85-.53s-.69-.41-1.07-.63-.77-.45-1.18-.68c-.41-.23-.81-.46-1.2-.68-.13-.07-.25-.13-.37-.21-.12-.07-.24-.14-.35-.21-.07,.85-.14,1.71-.23,2.57-.09,.86-.16,1.69-.23,2.48-.1,.98-.19,1.84-.25,2.56-.06,.73-.09,1.21-.09,1.46,0,.18,.07,.39,.2,.63,.03,.05,.07,.16,.14,.33,.05,.1,.08,.2,.08,.29,0,.16-.04,.29-.12,.4s-.17,.19-.28,.25c-.24,.08-.41,.12-.51,.12-.16,0-.32-.04-.48-.12-.16-.08-.3-.23-.4-.45-.08-.16-.17-.36-.27-.6-.11-.24-.16-.52-.16-.83,0-.34,.04-.94,.12-1.81,.08-.86,.17-1.85,.28-2.97,.09-.85,.17-1.73,.25-2.64,.07-.91,.14-1.78,.21-2.62-.09-.04-.18-.08-.27-.12s-.17-.08-.25-.12c-.38,0-.67-.18-.86-.53v.04c-.12-.16-.18-.34-.18-.55,0-.22,.07-.41,.22-.55,.2-.22,.45-.33,.77-.33,.08,0,.16,0,.26,.02,.09,.01,.18,.05,.27,.1,.76,.41,1.53,.82,2.3,1.24,.77,.42,1.51,.83,2.21,1.22,.7,.39,1.33,.76,1.9,1.09,.56,.33,1.01,.61,1.36,.83,1.74,1.13,2.61,2.34,2.61,3.63v.04s0,.05,0,.08Zm-9.05,4.87s-.02-.03-.02-.04l.02,.02v.02Z"/>
    <path class="cls-1" d="M89.93,151.17c0,.14-.03,.28-.1,.41s-.18,.25-.35,.35c-.3,.18-.67,.35-1.12,.5s-.92,.27-1.41,.36c-.08,.01-.16,.02-.24,.03-.08,0-.16,0-.24,0-.41,0-.79-.08-1.17-.23-.37-.15-.67-.38-.87-.7-.09-.14-.17-.29-.23-.42-.06-.14-.1-.3-.13-.48-.25,.3-.53,.59-.83,.86-.31,.27-.61,.5-.89,.69-.81,.51-1.59,.77-2.34,.77-.28,0-.52-.02-.73-.06h.02c-.81-.2-1.37-.7-1.67-1.51-.09-.22-.15-.47-.19-.75-.03-.28-.05-.55-.05-.83,0-.58,.05-1.14,.16-1.7,.1-.56,.21-.99,.31-1.29,.11-.24,.25-.41,.43-.52,.18-.11,.37-.17,.57-.17,.21,0,.4,.07,.56,.21,.16,.14,.25,.32,.25,.54v.16s-.01,.09-.04,.16l.02-.02c-.13,.38-.24,.8-.31,1.27-.08,.46-.12,.9-.12,1.31,0,.37,.04,.67,.12,.9,.08,.26,.24,.43,.47,.51,.1,.03,.22,.04,.33,.04,.17,0,.36-.04,.56-.11,.2-.07,.41-.18,.62-.32,.75-.51,1.35-1.08,1.82-1.7s.8-1.23,1.01-1.82c.09-.2,.21-.33,.36-.41,.15-.08,.32-.12,.5-.12h.1s.09,.01,.16,.04l-.02-.02c.18,.04,.34,.13,.48,.27,.14,.14,.21,.3,.21,.5v.08s0,.07-.02,.14v-.02c-.14,.62-.22,1.14-.22,1.57,0,.2,.01,.37,.04,.53s.06,.29,.1,.41v-.02c.07,.18,.16,.31,.28,.37,.12,.07,.27,.1,.42,.1,.03,0,.05,0,.08,0s.06,0,.1,0c.35-.04,.7-.12,1.03-.24,.33-.12,.62-.25,.87-.39,.17-.09,.33-.14,.49-.14,.35,0,.59,.16,.71,.49,.07,.13,.1,.27,.1,.41Z"/>
    <path class="cls-1" d="M95.45,148.97c-.07,0-.14,0-.22-.02-.08-.01-.15-.05-.22-.1h.02c-.18-.08-.32-.12-.41-.12h-.12s-.07,0-.1,.02c-.18,.03-.41,.08-.67,.16-.26,.08-.53,.18-.82,.3-.28,.12-.57,.27-.86,.42-.29,.16-.57,.31-.81,.47-.38,.24-.64,.47-.79,.71-.1,.17-.17,.32-.2,.46s-.05,.29-.08,.46v-.02c-.03,.29-.12,.5-.29,.64-.17,.14-.37,.21-.59,.21s-.42-.08-.6-.23-.27-.38-.29-.68c-.01-.13-.02-.26-.02-.39v-1.36c0-.3,0-.59,.02-.85,.01-.27,.03-.51,.06-.72-.11-.07-.16-.17-.16-.31,0-.09,.03-.18,.1-.27,.12-.2,.22-.41,.31-.65v.02c.07-.18,.17-.31,.3-.38s.28-.11,.44-.11c.03,0,.07,0,.14,.02,.07,.01,.14,.02,.22,.02,.14,.05,.28,.14,.39,.27,.12,.12,.18,.28,.18,.46,0,.03,0,.05,0,.08,0,.03,0,.05,0,.08-.04,.14-.07,.33-.1,.57-.03,.24-.05,.45-.06,.65,.03-.01,.05-.02,.06-.03,.01,0,.03-.02,.06-.05s.06-.05,.1-.06c.28-.2,.6-.39,.96-.58,.37-.19,.74-.36,1.13-.51,.39-.15,.77-.28,1.14-.38,.37-.1,.71-.16,1.01-.18h.08c.26,0,.5,.04,.71,.12,.21,.08,.37,.16,.47,.24,.22,.17,.33,.39,.33,.65,0,.22-.06,.42-.18,.59h.02c-.17,.26-.39,.39-.67,.39Z"/>
    <path class="cls-1" d="M105.84,150.68c0,.33-.16,.59-.49,.79-.24,.12-.57,.27-.99,.45s-.92,.36-1.48,.53c-.56,.17-1.18,.32-1.87,.45-.68,.13-1.39,.2-2.14,.22h-.16c-1.02,0-1.82-.19-2.39-.58-.57-.39-.85-.91-.85-1.56,0-.22,.04-.47,.11-.74,.07-.27,.19-.54,.36-.82,.38-.67,.94-1.29,1.67-1.86,.73-.57,1.56-1.03,2.49-1.37,.1-.03,.31-.04,.61-.04h.22c.07,0,.12,0,.16,.02,.34,.05,.59,.16,.76,.33,.16,.17,.25,.37,.27,.59,0,.22-.08,.43-.23,.62-.15,.19-.36,.31-.62,.36-.05,0-.11,0-.16,0-.05,0-.12,0-.2,0-.12,0-.24,0-.35-.02-.12-.01-.24-.04-.35-.08-.22,.07-.46,.17-.71,.31-.25,.14-.5,.31-.74,.51s-.46,.41-.67,.65c-.2,.24-.36,.47-.48,.71-.09,.17-.14,.33-.14,.47,0,.21,.11,.38,.32,.52,.22,.14,.55,.21,1.01,.21,.63,0,1.24-.06,1.84-.18,.6-.12,1.15-.26,1.66-.41s.96-.32,1.34-.48c.38-.16,.66-.3,.84-.4,.16-.08,.31-.12,.47-.12,.31,0,.56,.12,.73,.37h.02c.09,.18,.14,.35,.14,.51Z"/>
    <path class="cls-1" d="M117.13,150.54c.01,.08,.02,.16,.02,.24,0,.16-.04,.31-.13,.45-.08,.14-.22,.26-.4,.35-.59,.26-1.13,.47-1.61,.64s-1,.25-1.55,.26h-.12c-.5,0-.96-.08-1.39-.24-.43-.16-.82-.45-1.16-.86-.24-.3-.41-.62-.53-.96-.12-.34-.21-.63-.28-.88-.03-.01-.04-.05-.04-.12-.08-.26-.17-.39-.28-.39-.05,0-.13,.02-.23,.07s-.22,.1-.36,.17c-.18,.11-.4,.26-.66,.45-.25,.2-.52,.41-.81,.65-.28,.24-.56,.48-.82,.74-.27,.26-.5,.5-.7,.74-.28,.33-.6,.49-.98,.49-.25,0-.46-.08-.65-.24s-.29-.4-.31-.73c-.04-.5-.07-1-.09-1.5s-.03-.99-.03-1.44c0-1.48,.11-2.83,.34-4.06,.23-1.22,.65-2.25,1.27-3.07l-.02,.02c.09-.16,.21-.27,.35-.33,.14-.07,.29-.1,.43-.1,.17,0,.33,.04,.47,.12,.34,.17,.51,.41,.51,.71,0,.21-.08,.4-.24,.57-.28,.33-.5,.74-.67,1.24-.17,.5-.3,1.03-.39,1.61-.09,.58-.15,1.18-.19,1.8-.03,.62-.05,1.21-.05,1.78v.41c0,.13,0,.25,.02,.37,.18-.18,.39-.37,.61-.55,.22-.18,.44-.36,.66-.52,.22-.16,.42-.31,.62-.45s.37-.25,.51-.34c.29-.17,.58-.3,.86-.4,.29-.1,.56-.15,.83-.15,.18,0,.39,.04,.61,.12,.31,.12,.56,.29,.75,.52,.18,.23,.31,.55,.39,.97,.05,.28,.13,.57,.23,.88,.1,.31,.21,.54,.32,.69,.13,.14,.27,.26,.41,.33,.14,.08,.39,.12,.73,.12s.68-.06,1.07-.19c.39-.12,.86-.31,1.42-.56,.16-.08,.29-.12,.41-.12,.17,0,.32,.05,.44,.16,.12,.1,.23,.23,.3,.37v-.02c.04,.05,.07,.12,.08,.2Z"/>
    <path class="cls-1" d="M132.44,153c0,.13-.02,.25-.07,.34-.05,.1-.1,.19-.17,.27-.08,.1-.17,.19-.29,.25s-.24,.1-.38,.1c-.25,0-.47-.11-.67-.31-.18-.22-.54-.47-1.06-.74-.52-.27-1.11-.56-1.77-.87-.55-.26-1.1-.53-1.66-.82s-1.06-.56-1.52-.83c0,.14,0,.27,0,.38s0,.22,0,.32,0,.22,0,.34c0,.12,0,.25,0,.36l.19,.19c.06,.06,.09,.1,.11,.13h-.02c.03,.07,.04,.12,.04,.16v.08c0,.25-.08,.46-.24,.63-.08,.1-.17,.19-.26,.25-.1,.06-.22,.09-.36,.09-.17,0-.33-.05-.47-.14-.14-.08-.3-.21-.47-.39s-.25-.45-.25-.79v-3.14c-.18-.33-.28-.71-.28-1.16,0-.42,.12-.79,.37-1.12,.01-.29,.03-.59,.04-.9,.01-.31,.03-.64,.06-.96,.03-.54,.05-1.05,.07-1.54s.03-.93,.03-1.33c0-.34,.1-.58,.31-.72,.21-.14,.44-.21,.69-.21,.28,0,.48,.08,.63,.25,.14,.16,.24,.38,.28,.64v.14c0,.2-.05,.43-.14,.69,0,.22,0,.47-.02,.74-.01,.27-.03,.54-.06,.82-.03,.22-.05,.45-.06,.67s-.02,.44-.02,.65c.26-.13,.56-.26,.89-.39s.67-.27,1.01-.41c.34-.13,.67-.27,.99-.4,.32-.14,.61-.26,.86-.38,.25-.12,.46-.22,.62-.31,.16-.09,.25-.17,.28-.24,.09-.18,.23-.31,.41-.38s.37-.11,.55-.11c.29,0,.49,.09,.61,.26s.18,.36,.18,.57c0,.03,0,.06,0,.1,0,.04,0,.07,0,.1-.04,.25-.14,.45-.29,.6s-.29,.27-.41,.36c-.03,.01-.06,.04-.1,.08-.34,.2-.78,.41-1.31,.64s-1.07,.46-1.62,.68c-.58,.24-1.11,.46-1.6,.67-.49,.21-.85,.41-1.09,.59l-.04,.67c.22,.21,.49,.42,.8,.62s.64,.4,.99,.59c.35,.19,.72,.38,1.09,.56,.37,.18,.75,.37,1.13,.55,.37,.18,.72,.36,1.06,.52,.34,.16,.66,.33,.95,.49,.29,.16,.56,.32,.79,.48s.41,.31,.54,.47v.02c.13,.18,.2,.36,.2,.53Z"/>
    <path class="cls-1" d="M141.82,148.69c-.08,.14-.2,.24-.37,.3-.07,.03-.14,.04-.24,.05-.09,0-.19,.02-.29,.03,.13,.26,.2,.56,.2,.9,0,.22-.04,.47-.13,.75s-.25,.54-.48,.81c-.35,.41-.72,.76-1.11,1.07s-.79,.55-1.23,.74c-.38,.16-.77,.27-1.16,.33-.39,.07-.82,.1-1.28,.12h-.1c-1.18,0-1.98-.38-2.42-1.14-.22-.35-.33-.82-.33-1.39,0-.35,.04-.72,.12-1.1,.17-.79,.49-1.48,.97-2.08,.48-.6,1.04-1.06,1.68-1.38h-.02c.28-.16,.57-.24,.88-.24s.63,.12,.94,.35c.12-.04,.25-.06,.41-.06,.12,0,.23,.01,.33,.04,.22,.03,.45,.09,.68,.21s.43,.23,.6,.36h1.51c.26,0,.48,.09,.67,.27s.28,.38,.28,.6v.04c0,.14-.04,.28-.12,.42Zm-2.53,1.21c0-.33-.15-.6-.45-.83h-1.36c-.34,0-.63-.06-.86-.17-.24-.11-.37-.26-.39-.46-.01,.01-.03,.02-.06,.02-.03,.01-.05,.02-.06,.02l-.04,.02c-.24,.17-.49,.44-.76,.8s-.44,.76-.52,1.21c-.04,.24-.06,.43-.06,.57,0,.26,.05,.46,.14,.59,.18,.25,.46,.37,.84,.37h.16c.33,0,.62-.03,.86-.08,.25-.05,.48-.12,.69-.2,.31-.13,.62-.31,.9-.55,.29-.24,.54-.5,.77-.79,.13-.14,.2-.32,.2-.53Z"/>
    <path class="cls-1" d="M150.43,148.69c-.08,.14-.2,.24-.37,.3-.07,.03-.14,.04-.24,.05-.09,0-.19,.02-.29,.03,.13,.26,.2,.56,.2,.9,0,.22-.04,.47-.13,.75s-.25,.54-.48,.81c-.35,.41-.72,.76-1.11,1.07s-.79,.55-1.23,.74c-.38,.16-.77,.27-1.16,.33-.39,.07-.82,.1-1.28,.12h-.1c-1.18,0-1.98-.38-2.42-1.14-.22-.35-.33-.82-.33-1.39,0-.35,.04-.72,.12-1.1,.17-.79,.49-1.48,.97-2.08,.48-.6,1.04-1.06,1.68-1.38h-.02c.28-.16,.57-.24,.88-.24s.63,.12,.94,.35c.12-.04,.25-.06,.41-.06,.12,0,.23,.01,.33,.04,.22,.03,.45,.09,.68,.21s.43,.23,.6,.36h1.51c.26,0,.48,.09,.67,.27s.28,.38,.28,.6v.04c0,.14-.04,.28-.12,.42Zm-2.53,1.21c0-.33-.15-.6-.45-.83h-1.36c-.34,0-.63-.06-.86-.17-.24-.11-.37-.26-.39-.46-.01,.01-.03,.02-.06,.02-.03,.01-.05,.02-.06,.02l-.04,.02c-.24,.17-.49,.44-.76,.8s-.44,.76-.52,1.21c-.04,.24-.06,.43-.06,.57,0,.26,.05,.46,.14,.59,.18,.25,.46,.37,.84,.37h.16c.33,0,.62-.03,.86-.08,.25-.05,.48-.12,.69-.2,.31-.13,.62-.31,.9-.55,.29-.24,.54-.5,.77-.79,.13-.14,.2-.32,.2-.53Z"/>
    <path class="cls-1" d="M158.38,150.16c-.25,.37-.62,.69-1.12,.95-.03,.01-.07,.04-.14,.07-.07,.03-.12,.06-.18,.09-.08,.04-.15,.07-.23,.09-.07,.02-.15,.05-.23,.09-.08,.04-.18,.09-.29,.15s-.27,.15-.45,.27c-.12,.07-.27,.15-.45,.25-.18,.1-.38,.19-.59,.29-.21,.09-.42,.17-.64,.23-.22,.06-.41,.09-.58,.09-.26-.01-.48-.08-.65-.19-.17-.11-.29-.25-.35-.42-.05,.79-.09,1.56-.12,2.32-.03,.76-.04,1.48-.04,2.16v.71c.11,.08,.18,.17,.24,.29,.05,.11,.09,.24,.12,.38v.08c0,.14-.03,.31-.09,.5-.06,.19-.16,.35-.3,.48-.24,.25-.5,.37-.81,.37-.21,0-.4-.07-.57-.21s-.27-.36-.31-.66v.04c-.03-.11-.04-.24-.05-.39s0-.31,0-.45v-.86c0-1.7,.06-3.38,.18-5.02,.12-1.64,.23-3.14,.33-4.49v-.18c0-.05,0-.11,.02-.18h-.33c-.07-.01-.14-.02-.22-.02-.11,0-.17,0-.2-.02-.26-.1-.45-.23-.57-.38-.12-.15-.18-.3-.18-.46,0-.25,.08-.47,.25-.68,.16-.2,.42-.3,.76-.3h.04c1.35,.07,2.56,.25,3.62,.54,1.07,.29,2,.64,2.8,1.03,.6,.28,1.04,.61,1.31,1.01,.27,.4,.4,.81,.4,1.23v.04c0,.42-.12,.82-.37,1.19Zm-5.7-.93c-.05,.71-.1,1.42-.16,2.14,.05-.12,.16-.28,.33-.47,.21-.16,.45-.24,.71-.24h.16c.07,0,.13,.01,.2,.04,.1-.03,.27-.09,.49-.21s.43-.23,.63-.34c.07-.05,.16-.11,.29-.16,.13-.05,.27-.1,.41-.16,.18-.08,.36-.16,.53-.26,.35-.21,.53-.42,.53-.63,0-.26-.24-.5-.71-.71-.14-.08-.34-.17-.58-.27s-.51-.2-.81-.3c-.29-.1-.6-.2-.92-.29-.32-.09-.63-.16-.93-.22-.07,.67-.12,1.36-.18,2.06Z"/>
    <path class="cls-1" d="M167.6,151.09c0,.16-.05,.31-.14,.45-.09,.14-.24,.25-.45,.31h.02c-.11,.04-.22,.08-.33,.12-.12,.04-.25,.09-.39,.16-.27,.11-.59,.22-.93,.35s-.71,.25-1.1,.36c-.39,.11-.79,.2-1.21,.28-.42,.07-.84,.11-1.26,.11-.35,0-.68-.03-.98-.08-.59-.08-1.06-.3-1.42-.67-.48-.46-.73-1.05-.73-1.77,0-.13,0-.26,.02-.38,.01-.12,.03-.25,.06-.36,.13-.75,.35-1.41,.66-1.98s.61-1.06,.91-1.45c.63-.77,1.18-1.28,1.65-1.51h-.02c.18-.1,.4-.19,.65-.26,.25-.07,.5-.1,.77-.1,.37,0,.68,.08,.94,.25,.29,.17,.49,.4,.6,.69s.17,.6,.17,.92c0,.35-.04,.67-.12,.94-.12,.41-.33,.79-.64,1.16s-.67,.7-1.08,.99c-.41,.29-.86,.54-1.34,.73-.48,.19-.94,.31-1.38,.36,0,.2,.06,.36,.18,.48,.12,.12,.27,.2,.47,.23,.2,.05,.42,.08,.67,.08,.6,0,1.23-.11,1.9-.31,.66-.21,1.26-.41,1.8-.61,.18-.07,.36-.13,.52-.2s.31-.12,.44-.16c.04-.01,.08-.02,.12-.03,.04,0,.09,0,.16,0,.17,0,.32,.05,.44,.15,.12,.1,.23,.22,.3,.36v-.02c.05,.1,.08,.24,.08,.41Zm-4.28-4.38s0-.08-.02-.13c-.01-.05-.03-.08-.04-.11-.03-.03-.08-.04-.16-.04-.07,0-.14,.02-.22,.05-.08,.03-.15,.06-.22,.09h.02c-.14,.08-.32,.23-.53,.45-.22,.22-.44,.49-.65,.79-.21,.3-.38,.62-.51,.96,.25-.08,.49-.18,.74-.29s.47-.25,.68-.4c.21-.15,.39-.31,.54-.49s.25-.36,.3-.54v.02c.04-.16,.06-.28,.06-.35Z"/>
    <path class="cls-1" d="M172.92,148.97c-.07,0-.14,0-.22-.02-.08-.01-.15-.05-.22-.1h.02c-.18-.08-.32-.12-.41-.12h-.12s-.07,0-.1,.02c-.18,.03-.41,.08-.67,.16-.26,.08-.53,.18-.82,.3-.28,.12-.57,.27-.86,.42-.29,.16-.57,.31-.81,.47-.38,.24-.64,.47-.79,.71-.1,.17-.17,.32-.2,.46s-.05,.29-.08,.46v-.02c-.03,.29-.12,.5-.29,.64-.17,.14-.37,.21-.59,.21s-.42-.08-.6-.23-.27-.38-.29-.68c-.01-.13-.02-.26-.02-.39v-1.36c0-.3,0-.59,.02-.85,.01-.27,.03-.51,.06-.72-.11-.07-.16-.17-.16-.31,0-.09,.03-.18,.1-.27,.12-.2,.22-.41,.31-.65v.02c.07-.18,.17-.31,.3-.38s.28-.11,.44-.11c.03,0,.07,0,.14,.02,.07,.01,.14,.02,.22,.02,.14,.05,.28,.14,.39,.27,.12,.12,.18,.28,.18,.46,0,.03,0,.05,0,.08,0,.03,0,.05,0,.08-.04,.14-.07,.33-.1,.57-.03,.24-.05,.45-.06,.65,.03-.01,.05-.02,.06-.03,.01,0,.03-.02,.06-.05s.06-.05,.1-.06c.28-.2,.6-.39,.96-.58,.37-.19,.74-.36,1.13-.51,.39-.15,.77-.28,1.14-.38,.37-.1,.71-.16,1.01-.18h.08c.26,0,.5,.04,.71,.12,.21,.08,.37,.16,.47,.24,.22,.17,.33,.39,.33,.65,0,.22-.06,.42-.18,.59h.02c-.17,.26-.39,.39-.67,.39Z"/>
    <path class="cls-1" d="M184.53,151.11c0,.16-.04,.31-.12,.45-.08,.14-.19,.26-.33,.35-.45,.24-.95,.46-1.51,.66-.56,.2-1.09,.33-1.57,.38-.09,.01-.18,.02-.27,.02h-.24c-.43,0-.78-.07-1.03-.21-.25-.14-.49-.36-.7-.66v.02c-.09-.13-.18-.32-.25-.56-.08-.24-.12-.46-.12-.66-.04,0-.08,.02-.12,.06-.17,.11-.38,.27-.64,.48-.26,.22-.53,.45-.82,.7-.18,.14-.36,.29-.52,.42-.16,.14-.32,.27-.48,.4-.56,.41-1.09,.61-1.57,.61-.41,0-.75-.12-1.04-.37-.37-.31-.55-.79-.55-1.43,.03-.59,.18-1.15,.45-1.67,.2-.39,.44-.77,.72-1.14,.28-.37,.58-.71,.89-1.03s.63-.61,.95-.87c.32-.26,.62-.48,.89-.67,.31-.2,.69-.41,1.12-.64,.43-.23,.89-.34,1.38-.34,.26,0,.53,.05,.8,.15,.27,.1,.54,.26,.81,.48,.13,.1,.22,.22,.28,.33,.05,.12,.08,.23,.08,.33,0,.17-.04,.32-.12,.45-.09,.14-.21,.26-.36,.34-.15,.09-.32,.13-.5,.13-.2,0-.38-.06-.55-.18-.09-.08-.19-.13-.3-.17-.11-.03-.23-.05-.34-.05-.37,0-.8,.17-1.3,.51-.24,.16-.49,.35-.77,.59-.28,.24-.55,.49-.82,.78-.27,.28-.52,.58-.75,.88-.23,.31-.41,.6-.54,.87-.04,.07-.07,.15-.09,.25-.02,.11-.03,.2-.03,.29s0,.14,.02,.16c0,.03,.01,.04,.04,.04,.08,0,.19-.06,.33-.18l.24-.18c.21-.17,.45-.37,.72-.6,.27-.23,.54-.46,.83-.68,.28-.22,.56-.44,.82-.64s.51-.37,.72-.5v.02c.34-.21,.67-.31,.98-.31,.26,0,.48,.08,.65,.24s.25,.4,.25,.73v.29c0,.18,0,.35,.02,.49,.01,.14,.04,.26,.08,.35,.07,.18,.14,.31,.24,.37s.21,.1,.35,.1h.08c.16-.03,.34-.07,.55-.12,.21-.05,.42-.12,.64-.19,.22-.07,.42-.15,.63-.23,.2-.08,.38-.16,.52-.24,.16-.08,.3-.12,.43-.12,.25,0,.46,.11,.65,.31v.02c.13,.17,.2,.35,.2,.53Z"/>
    <path class="cls-1" d="M189.23,147.8c-.14,.18-.36,.27-.66,.29-.12,0-.26,0-.43,0-.17,0-.35-.02-.55-.03-.24-.01-.49-.02-.76-.03-.27,0-.53,0-.8,0,0,.34,.01,.69,.04,1.06,.03,.37,.06,.72,.1,1.07,.04,.35,.08,.67,.14,.98,.05,.31,.11,.58,.18,.82l-.02-.02c.03,.07,.04,.11,.04,.14v.08c0,.22-.06,.41-.19,.56-.12,.15-.28,.25-.46,.29l.02-.02c-.07,.03-.12,.04-.16,.04h-.08c-.2,0-.38-.06-.56-.18s-.3-.31-.36-.59c-.14-.54-.26-1.17-.33-1.91-.08-.73-.12-1.51-.12-2.32h-1.2c-.29,0-.5-.09-.64-.26s-.21-.38-.21-.6,.07-.42,.21-.61,.36-.29,.66-.33h.83c.12,0,.24,0,.35-.02,0-.39,.02-.83,.06-1.33s.09-1,.16-1.52,.14-1.05,.22-1.58c.08-.53,.17-1.03,.28-1.5-.07-.07-.1-.16-.1-.29,0-.09,.01-.16,.04-.22l-.02,.02c.03-.13,.12-.31,.27-.55,.03-.03,.05-.07,.08-.13,.03-.06,.04-.08,.04-.05l.04-.18s.06-.09,.09-.15c.03-.06,.04-.08,0-.05l-.02,.04c.16-.35,.41-.53,.75-.53,.14,0,.3,.05,.47,.16l-.02-.02c.16,.1,.29,.23,.38,.38,.1,.15,.15,.34,.15,.56v.06c0,.16-.02,.28-.06,.38-.04,.1-.09,.2-.16,.3l-.02,.02c-.1,.41-.21,.87-.3,1.39-.1,.52-.19,1.06-.26,1.62-.08,.56-.14,1.11-.2,1.66-.05,.55-.08,1.05-.08,1.49,.24,0,.54,0,.9,.03,.37,.02,.72,.04,1.06,.07,.46,.03,.81,.1,1.05,.21,.24,.11,.36,.36,.36,.74,0,.21-.07,.4-.21,.58Z"/>
    <path class="cls-1" d="M196.72,151.61c-.12,.17-.34,.28-.66,.31-.2,.03-.46,.09-.78,.19-.32,.1-.66,.22-1.01,.36-.33,.12-.65,.23-.97,.34-.32,.11-.61,.2-.87,.27-.42,.1-.78,.16-1.08,.16-.52,0-.94-.13-1.24-.4-.3-.27-.54-.7-.71-1.29-.04-.14-.07-.31-.09-.5s-.03-.38-.03-.58c0-.14,0-.27,0-.38s.02-.21,.03-.3c.03-.3,.07-.6,.13-.88,.06-.29,.13-.56,.21-.82-.05-.05-.08-.14-.08-.26,0-.05,0-.09,0-.13,0-.03,.02-.07,.03-.11,.07-.14,.15-.31,.26-.51s.22-.35,.32-.45c.18-.14,.39-.22,.63-.22,.13,0,.27,.03,.41,.08,.18,.07,.33,.16,.43,.29,.1,.12,.16,.26,.16,.4,0,.12-.02,.22-.06,.31-.14,.26-.28,.61-.42,1.05-.14,.44-.22,.87-.25,1.29v.31c0,.35,.03,.63,.08,.82,.08,.28,.24,.41,.49,.41h.16c.05,0,.12-.01,.2-.04,.18-.03,.4-.08,.65-.18,.25-.09,.5-.19,.77-.29,.45-.18,.89-.35,1.35-.51s.83-.24,1.15-.24h.04c.3,0,.53,.09,.68,.28,.15,.18,.23,.39,.25,.63v.04c0,.2-.06,.38-.19,.55Zm-3-8.21c0,.2-.04,.39-.13,.59s-.22,.36-.4,.49c-.26,.17-.52,.25-.77,.25-.16,0-.32-.03-.49-.09-.17-.06-.33-.16-.47-.3-.25-.28-.37-.58-.37-.92,0-.18,.05-.37,.14-.56,.09-.19,.24-.36,.43-.5,.21-.16,.46-.24,.77-.24,.28,0,.53,.08,.77,.24h.02c.34,.26,.51,.61,.51,1.04Z"/>
    <path class="cls-1" d="M204.07,148.69c-.08,.14-.2,.24-.37,.3-.07,.03-.14,.04-.24,.05-.09,0-.19,.02-.29,.03,.13,.26,.2,.56,.2,.9,0,.22-.04,.47-.13,.75s-.25,.54-.48,.81c-.35,.41-.72,.76-1.11,1.07s-.79,.55-1.23,.74c-.38,.16-.77,.27-1.16,.33-.39,.07-.82,.1-1.28,.12h-.1c-1.18,0-1.98-.38-2.42-1.14-.22-.35-.33-.82-.33-1.39,0-.35,.04-.72,.12-1.1,.17-.79,.49-1.48,.97-2.08,.48-.6,1.04-1.06,1.68-1.38h-.02c.28-.16,.57-.24,.88-.24s.63,.12,.94,.35c.12-.04,.25-.06,.41-.06,.12,0,.23,.01,.33,.04,.22,.03,.45,.09,.68,.21s.43,.23,.6,.36h1.51c.26,0,.48,.09,.67,.27s.28,.38,.28,.6v.04c0,.14-.04,.28-.12,.42Zm-2.53,1.21c0-.33-.15-.6-.45-.83h-1.36c-.34,0-.63-.06-.86-.17-.24-.11-.37-.26-.39-.46-.01,.01-.03,.02-.06,.02-.03,.01-.05,.02-.06,.02l-.04,.02c-.24,.17-.49,.44-.76,.8s-.44,.76-.52,1.21c-.04,.24-.06,.43-.06,.57,0,.26,.05,.46,.14,.59,.18,.25,.46,.37,.84,.37h.16c.33,0,.62-.03,.86-.08,.25-.05,.48-.12,.69-.2,.31-.13,.62-.31,.9-.55,.29-.24,.54-.5,.77-.79,.13-.14,.2-.32,.2-.53Z"/>
    <path class="cls-1" d="M218,151.34c-.08,.15-.21,.26-.39,.34-.09,.03-.17,.05-.25,.07s-.15,.03-.23,.03h-.16c-.16,.07-.33,.12-.53,.18h.02c-.22,.08-.46,.16-.71,.26-.25,.09-.5,.2-.77,.33-.52,.21-1,.31-1.43,.31-.47,0-.9-.11-1.28-.34-.38-.23-.68-.58-.9-1.05-.18-.38-.31-.76-.38-1.14-.07-.38-.13-.7-.17-.96v.02c-.01-.05-.02-.1-.02-.14s0-.07-.02-.1c-.01-.08-.07-.13-.18-.16-.03-.01-.06-.02-.1-.02-.1,0-.21,.02-.3,.07-.1,.05-.21,.1-.32,.17h.02s-.05,.08-.24,.23c-.18,.15-.37,.3-.55,.44v-.02c-.18,.16-.37,.32-.55,.48-.18,.16-.37,.3-.55,.42-.16,.12-.32,.26-.5,.42-.18,.16-.35,.33-.51,.51-.16,.18-.31,.35-.44,.53s-.23,.32-.29,.44c-.1,.21-.24,.35-.39,.43-.16,.08-.31,.12-.47,.12-.07,0-.14,0-.23-.02-.08-.01-.16-.04-.23-.08-.22-.11-.37-.23-.44-.37-.07-.14-.11-.31-.11-.49v-2.04c0-.18,0-.36,0-.53,0-.17-.01-.33-.01-.47v-.49c-.2-.09-.29-.25-.29-.49,.03-.13,.08-.28,.16-.46,.08-.18,.17-.32,.27-.42,.14-.2,.38-.29,.71-.29h.1c.18,.01,.36,.07,.53,.18,.17,.1,.27,.26,.29,.47,0,.04,0,.08,0,.13,0,.05,0,.09,0,.13,.01,.16,.02,.34,.03,.55,0,.21,0,.43,0,.65v.92c.13-.13,.27-.25,.4-.37,.14-.12,.27-.24,.4-.35,.04-.03,.08-.06,.12-.09,.04-.03,.08-.06,.12-.09,.26-.25,.54-.49,.83-.74s.56-.46,.83-.64c.27-.22,.6-.4,.96-.52,.37-.12,.71-.19,1.02-.19h.12c.41,0,.75,.12,1.03,.35,.28,.24,.46,.6,.54,1.08,.07,.47,.14,.89,.22,1.25,.08,.36,.17,.66,.28,.89,.1,.26,.32,.39,.65,.39,.2,0,.39-.04,.57-.12,.1-.04,.21-.08,.3-.13,.1-.04,.2-.08,.3-.11h-.02c.35-.14,.72-.29,1.09-.42,.37-.14,.71-.24,1.01-.3,.05-.01,.14-.02,.27-.02,.29,0,.5,.09,.64,.26s.21,.38,.23,.63v.04c0,.16-.04,.31-.12,.46Z"/>
    <path class="cls-1" d="M86.2,171.83v.08c0,.17-.05,.34-.15,.5-.1,.16-.26,.28-.48,.34v-.02c-.25,.09-.57,.18-.96,.26-.39,.08-.82,.15-1.28,.22s-.93,.12-1.41,.16-.94,.06-1.38,.06c-.26,0-.51,0-.76-.02-.24-.01-.46-.03-.64-.06-.55-.1-.9-.38-1.04-.83v.02c-.03-.07-.04-.13-.05-.19,0-.06,0-.12,0-.19,0-.16,.03-.32,.09-.49,.06-.17,.17-.35,.32-.53,.35-.46,.74-.89,1.17-1.29,.42-.4,.81-.75,1.15-1.05,.09-.09,.18-.18,.27-.27,.08-.08,.17-.16,.25-.23v.02c.16-.13,.24-.24,.24-.33,0-.01,0-.03-.02-.06,0-.03-.09-.04-.27-.04-.2,0-.4,0-.62,0-.22,0-.43-.01-.63-.02-.2,0-.39-.01-.56-.02s-.31-.02-.43-.03c-.29-.04-.51-.15-.68-.32-.16-.18-.25-.38-.25-.6,0-.31,.14-.56,.43-.73v.02c.22-.13,.42-.2,.59-.2,.18,0,.37,.06,.55,.18,.16,.01,.33,.02,.52,.03,.19,0,.39,.01,.59,.02,.2,0,.4,0,.58,0h.47c.94,0,1.54,.31,1.81,.92,.08,.16,.12,.32,.12,.49,0,.5-.29,1.04-.88,1.63-.08,.07-.16,.13-.24,.2-.08,.07-.17,.14-.28,.22-.3,.26-.62,.55-.94,.86-.33,.31-.62,.64-.88,.98-.04,.03-.06,.05-.06,.08h.02s.05,0,.08,.02c.08,.01,.16,.02,.25,.02h.28c.28,0,.59-.01,.94-.04,.35-.03,.71-.06,1.08-.11,.37-.04,.72-.1,1.07-.17,.35-.07,.66-.14,.93-.22,.04-.01,.08-.02,.13-.03s.1,0,.17,0c.21,0,.38,.06,.52,.19,.14,.12,.23,.27,.27,.44l-.02-.02c.03,.07,.04,.11,.04,.14Z"/>
    <path class="cls-1" d="M99.42,171.2c0,.14-.03,.28-.1,.41s-.18,.25-.35,.35c-.3,.18-.67,.35-1.12,.5s-.92,.27-1.41,.36c-.08,.01-.16,.02-.24,.03-.08,0-.16,0-.24,0-.41,0-.79-.08-1.17-.23-.37-.15-.67-.38-.87-.7-.09-.14-.17-.29-.23-.42-.06-.14-.1-.3-.13-.48-.25,.3-.53,.59-.83,.86-.31,.27-.61,.5-.89,.69-.81,.51-1.59,.77-2.34,.77-.28,0-.52-.02-.73-.06h.02c-.81-.2-1.37-.7-1.67-1.51-.09-.22-.15-.47-.19-.75-.03-.28-.05-.55-.05-.83,0-.58,.05-1.14,.16-1.7,.1-.56,.21-.99,.31-1.29,.11-.24,.25-.41,.43-.52,.18-.11,.37-.17,.57-.17,.21,0,.4,.07,.56,.21,.16,.14,.25,.32,.25,.54v.16s-.01,.09-.04,.16l.02-.02c-.13,.38-.24,.8-.31,1.27-.08,.46-.12,.9-.12,1.31,0,.37,.04,.67,.12,.9,.08,.26,.24,.43,.47,.51,.1,.03,.22,.04,.33,.04,.17,0,.36-.04,.56-.11,.2-.07,.41-.18,.62-.32,.75-.51,1.35-1.08,1.82-1.7s.8-1.23,1.01-1.82c.09-.2,.21-.33,.36-.41,.15-.08,.32-.12,.5-.12h.1s.09,.01,.16,.04l-.02-.02c.18,.04,.34,.13,.48,.27,.14,.14,.21,.3,.21,.5v.08s0,.07-.02,.14v-.02c-.14,.62-.22,1.14-.22,1.57,0,.2,.01,.37,.04,.53s.06,.29,.1,.41v-.02c.07,.18,.16,.31,.28,.37,.12,.07,.27,.1,.42,.1,.03,0,.05,0,.08,0s.06,0,.1,0c.35-.04,.7-.12,1.03-.24,.33-.12,.62-.25,.87-.39,.17-.09,.33-.14,.49-.14,.35,0,.59,.16,.71,.49,.07,.13,.1,.27,.1,.41Z"/>
    <path class="cls-1" d="M104.94,169c-.07,0-.14,0-.22-.02-.08-.01-.15-.05-.22-.1h.02c-.18-.08-.32-.12-.41-.12h-.12s-.07,0-.1,.02c-.18,.03-.41,.08-.67,.16-.26,.08-.53,.18-.82,.3-.28,.12-.57,.27-.86,.42-.29,.16-.57,.31-.81,.47-.38,.24-.64,.47-.79,.71-.1,.17-.17,.32-.2,.46s-.05,.29-.08,.46v-.02c-.03,.29-.12,.5-.29,.64-.17,.14-.37,.21-.59,.21s-.42-.08-.6-.23-.27-.38-.29-.68c-.01-.13-.02-.26-.02-.39v-1.36c0-.3,0-.59,.02-.85,.01-.27,.03-.51,.06-.72-.11-.07-.16-.17-.16-.31,0-.09,.03-.18,.1-.27,.12-.2,.22-.41,.31-.65v.02c.07-.18,.17-.31,.3-.38s.28-.11,.44-.11c.03,0,.07,0,.14,.02,.07,.01,.14,.02,.22,.02,.14,.05,.28,.14,.39,.27,.12,.12,.18,.28,.18,.46,0,.03,0,.05,0,.08,0,.03,0,.05,0,.08-.04,.14-.07,.33-.1,.57-.03,.24-.05,.45-.06,.65,.03-.01,.05-.02,.06-.03,.01,0,.03-.02,.06-.05s.06-.05,.1-.06c.28-.2,.6-.39,.96-.58,.37-.19,.74-.36,1.13-.51,.39-.15,.77-.28,1.14-.38,.37-.1,.71-.16,1.01-.18h.08c.26,0,.5,.04,.71,.12,.21,.08,.37,.16,.47,.24,.22,.17,.33,.39,.33,.65,0,.22-.06,.42-.18,.59h.02c-.17,.26-.39,.39-.67,.39Z"/>
    <path class="cls-1" d="M121.16,162.9c-.14,.16-.35,.27-.64,.3-.12,.01-.25,.02-.4,.03-.15,0-.3,0-.46,0h-1.71c-.25,0-.48-.01-.69-.04v.75c0,.83-.03,1.69-.08,2.6-.05,.91-.11,1.81-.18,2.7-.03,.34-.05,.67-.06,.99-.01,.32-.03,.63-.06,.93,.18-.01,.37-.02,.57-.02h1.83c.3,0,.52,.09,.66,.26s.21,.37,.21,.59v.04c0,.22-.08,.42-.24,.6-.16,.18-.38,.27-.67,.27-.34,0-.74,0-1.2,0-.46,0-.96,.02-1.51,.05-.17,.21-.39,.31-.65,.31-.1,0-.22-.03-.33-.08s-.22-.13-.29-.24c-.09,0-.18,0-.26,0s-.17,0-.25,0c-.17,.01-.33,.02-.49,.02h-.77c-.1,0-.21,0-.31-.02-.3-.01-.53-.11-.69-.29s-.24-.38-.24-.6,.08-.43,.25-.61c.16-.18,.4-.27,.7-.27h1.02c.13,0,.27,0,.41,0,.14,0,.31-.02,.49-.03,.03-.26,.04-.53,.05-.8,0-.28,.02-.56,.05-.84,.05-1.02,.1-2.03,.15-3.02,.05-.99,.07-1.93,.07-2.84v-.51c-.12-.01-.24-.02-.37-.02h-.8c-.13,0-.27,0-.41,.02-.09,.07-.2,.11-.32,.15-.12,.03-.24,.05-.34,.05-.13,0-.25-.01-.35-.04-.26-.05-.47-.16-.63-.33s-.24-.37-.24-.59v-.04c0-.18,.07-.36,.21-.53,.14-.17,.36-.29,.66-.35,.16-.04,.36-.07,.61-.08,.25-.01,.51-.02,.79-.02h1.43c.07-.1,.16-.18,.28-.23,.12-.05,.25-.07,.36-.07,.29,0,.5,.11,.65,.33,.37,.01,.76,.02,1.18,.02h2.34c.29,0,.51,.09,.67,.26s.24,.38,.24,.62c0,.22-.07,.42-.21,.58Z"/>
    <path class="cls-1" d="M134.94,171.37c-.08,.15-.21,.26-.39,.34-.09,.03-.17,.05-.25,.07s-.15,.03-.23,.03h-.16c-.16,.07-.33,.12-.53,.18h.02c-.22,.08-.46,.16-.71,.26-.25,.09-.5,.2-.77,.33-.52,.21-1,.31-1.43,.31-.47,0-.9-.11-1.28-.34-.38-.23-.68-.58-.9-1.05-.18-.38-.31-.76-.38-1.14-.07-.38-.13-.7-.17-.96v.02c-.01-.05-.02-.1-.02-.14s0-.07-.02-.1c-.01-.08-.07-.13-.18-.16-.03-.01-.06-.02-.1-.02-.1,0-.21,.02-.3,.07-.1,.05-.21,.1-.32,.17h.02s-.05,.08-.24,.23c-.18,.15-.37,.3-.55,.44v-.02c-.18,.16-.37,.32-.55,.48-.18,.16-.37,.3-.55,.42-.16,.12-.32,.26-.5,.42-.18,.16-.35,.33-.51,.51-.16,.18-.31,.35-.44,.53s-.23,.32-.29,.44c-.1,.21-.24,.35-.39,.43-.16,.08-.31,.12-.47,.12-.07,0-.14,0-.23-.02-.08-.01-.16-.04-.23-.08-.22-.11-.37-.23-.44-.37-.07-.14-.11-.31-.11-.49v-2.04c0-.18,0-.36,0-.53,0-.17-.01-.33-.01-.47v-.49c-.2-.09-.29-.25-.29-.49,.03-.13,.08-.28,.16-.46,.08-.18,.17-.32,.27-.42,.14-.2,.38-.29,.71-.29h.1c.18,.01,.36,.07,.53,.18,.17,.1,.27,.26,.29,.47,0,.04,0,.08,0,.13,0,.05,0,.09,0,.13,.01,.16,.02,.34,.03,.55,0,.21,0,.43,0,.65v.92c.13-.13,.27-.25,.4-.37,.14-.12,.27-.24,.4-.35,.04-.03,.08-.06,.12-.09,.04-.03,.08-.06,.12-.09,.26-.25,.54-.49,.83-.74s.56-.46,.83-.64c.27-.22,.6-.4,.96-.52,.37-.12,.71-.19,1.02-.19h.12c.41,0,.75,.12,1.03,.35,.28,.24,.46,.6,.54,1.08,.07,.47,.14,.89,.22,1.25,.08,.36,.17,.66,.28,.89,.1,.26,.32,.39,.65,.39,.2,0,.39-.04,.57-.12,.1-.04,.21-.08,.3-.13,.1-.04,.2-.08,.3-.11h-.02c.35-.14,.72-.29,1.09-.42,.37-.14,.71-.24,1.01-.3,.05-.01,.14-.02,.27-.02,.29,0,.5,.09,.64,.26s.21,.38,.23,.63v.04c0,.16-.04,.31-.12,.46Z"/>
    <path class="cls-1" d="M138.07,167.83c-.14,.18-.36,.27-.66,.29-.12,0-.26,0-.43,0-.17,0-.35-.02-.55-.03-.24-.01-.49-.02-.76-.03-.27,0-.53,0-.8,0,0,.34,.01,.69,.04,1.06,.03,.37,.06,.72,.1,1.07,.04,.35,.08,.67,.14,.98,.05,.31,.11,.58,.18,.82l-.02-.02c.03,.07,.04,.11,.04,.14v.08c0,.22-.06,.41-.19,.56-.12,.15-.28,.25-.46,.29l.02-.02c-.07,.03-.12,.04-.16,.04h-.08c-.2,0-.38-.06-.56-.18s-.3-.31-.36-.59c-.14-.54-.26-1.17-.33-1.91-.08-.73-.12-1.51-.12-2.32h-1.2c-.29,0-.5-.09-.64-.26s-.21-.38-.21-.6,.07-.42,.21-.61,.36-.29,.66-.33h.83c.12,0,.24,0,.35-.02,0-.39,.02-.83,.06-1.33s.09-1,.16-1.52,.14-1.05,.22-1.58c.08-.53,.17-1.03,.28-1.5-.07-.07-.1-.16-.1-.29,0-.09,.01-.16,.04-.22l-.02,.02c.03-.13,.12-.31,.27-.55,.03-.03,.05-.07,.08-.13,.03-.06,.04-.08,.04-.05l.04-.18s.06-.09,.09-.15c.03-.06,.04-.08,0-.05l-.02,.04c.16-.35,.41-.53,.75-.53,.14,0,.3,.05,.47,.16l-.02-.02c.16,.1,.29,.23,.38,.38,.1,.15,.15,.34,.15,.56v.06c0,.16-.02,.28-.06,.38-.04,.1-.09,.2-.16,.3l-.02,.02c-.1,.41-.21,.87-.3,1.39-.1,.52-.19,1.06-.26,1.62-.08,.56-.14,1.11-.2,1.66-.05,.55-.08,1.05-.08,1.49,.24,0,.54,0,.9,.03,.37,.02,.72,.04,1.06,.07,.46,.03,.81,.1,1.05,.21,.24,.11,.36,.36,.36,.74,0,.21-.07,.4-.21,.58Z"/>
    <path class="cls-1" d="M146.31,171.12c0,.16-.05,.31-.14,.45-.09,.14-.24,.25-.45,.31h.02c-.11,.04-.22,.08-.33,.12-.12,.04-.25,.09-.39,.16-.27,.11-.59,.22-.93,.35s-.71,.25-1.1,.36c-.39,.11-.79,.2-1.21,.28-.42,.07-.84,.11-1.26,.11-.35,0-.68-.03-.98-.08-.59-.08-1.06-.3-1.42-.67-.48-.46-.73-1.05-.73-1.77,0-.13,0-.26,.02-.38,.01-.12,.03-.25,.06-.36,.13-.75,.35-1.41,.66-1.98s.61-1.06,.91-1.45c.63-.77,1.18-1.28,1.65-1.51h-.02c.18-.1,.4-.19,.65-.26,.25-.07,.5-.1,.77-.1,.37,0,.68,.08,.94,.25,.29,.17,.49,.4,.6,.69s.17,.6,.17,.92c0,.35-.04,.67-.12,.94-.12,.41-.33,.79-.64,1.16s-.67,.7-1.08,.99c-.41,.29-.86,.54-1.34,.73-.48,.19-.94,.31-1.38,.36,0,.2,.06,.36,.18,.48,.12,.12,.27,.2,.47,.23,.2,.05,.42,.08,.67,.08,.6,0,1.23-.11,1.9-.31,.66-.21,1.26-.41,1.8-.61,.18-.07,.36-.13,.52-.2s.31-.12,.44-.16c.04-.01,.08-.02,.12-.03,.04,0,.09,0,.16,0,.17,0,.32,.05,.44,.15,.12,.1,.23,.22,.3,.36v-.02c.05,.1,.08,.24,.08,.41Zm-4.28-4.38s0-.08-.02-.13c-.01-.05-.03-.08-.04-.11-.03-.03-.08-.04-.16-.04-.07,0-.14,.02-.22,.05-.08,.03-.15,.06-.22,.09h.02c-.14,.08-.32,.23-.53,.45-.22,.22-.44,.49-.65,.79-.21,.3-.38,.62-.51,.96,.25-.08,.49-.18,.74-.29s.47-.25,.68-.4c.21-.15,.39-.31,.54-.49s.25-.36,.3-.54v.02c.04-.16,.06-.28,.06-.35Z"/>
    <path class="cls-1" d="M151.99,166.17c.08,.16,.12,.31,.12,.45,0,.26-.09,.49-.27,.68s-.38,.29-.6,.29c-.14,0-.29-.05-.43-.14h.02c-.09-.05-.23-.08-.41-.08-.22,0-.47,.05-.76,.15-.28,.1-.57,.23-.86,.38-.29,.16-.59,.34-.88,.56-.29,.22-.55,.44-.79,.68h.02c-.18,.22-.35,.46-.51,.73s-.25,.49-.28,.69v.1c0,.07,.02,.1,.06,.1,.08,0,.2-.04,.35-.12,.18-.1,.38-.22,.6-.35,.22-.13,.44-.25,.66-.37s.45-.23,.67-.32c.22-.1,.43-.18,.63-.25,.07-.03,.14-.04,.22-.04h.25c.22,0,.43,.05,.61,.14,.18,.09,.33,.25,.43,.47,.05,.11,.11,.27,.17,.49,.06,.22,.11,.48,.16,.78,.05,.29,.08,.62,.12,.97,.03,.35,.05,.71,.05,1.08s-.02,.73-.05,1.09c-.03,.36-.09,.7-.17,1.01-.18,.82-.51,1.6-.97,2.34s-1.11,1.36-1.93,1.89l.02-.02c-.17,.1-.33,.16-.49,.16-.17,0-.33-.04-.47-.13-.14-.08-.26-.19-.33-.3-.05-.07-.1-.14-.13-.24-.03-.09-.05-.18-.05-.25,0-.29,.15-.54,.45-.77,.66-.41,1.14-.87,1.45-1.38s.54-1.08,.67-1.68c.07-.3,.11-.57,.13-.81,.02-.24,.03-.48,.03-.7,0-.3-.01-.6-.04-.88-.03-.29-.07-.57-.12-.84,0-.03,0-.05,0-.08,0-.03,0-.05,0-.08-.01-.11-.05-.16-.12-.16-.04,0-.08,.01-.14,.04-.18,.08-.41,.19-.69,.34s-.56,.3-.84,.44c-.12,.08-.24,.15-.37,.22h.02c-.24,.16-.47,.26-.71,.32-.24,.06-.46,.09-.67,.09-.46,0-.82-.14-1.08-.43-.26-.29-.39-.69-.39-1.22,0-.62,.16-1.2,.47-1.77,.31-.56,.68-1.07,1.1-1.53,.27-.29,.59-.57,.93-.85,.35-.28,.72-.53,1.12-.75,.4-.22,.81-.39,1.23-.52,.42-.13,.83-.2,1.24-.2,.21,0,.42,0,.62,.03,.2,.02,.4,.09,.58,.21v-.02c.17,.1,.29,.24,.37,.39Z"/>
    <path class="cls-1" d="M159.89,169c-.07,0-.14,0-.22-.02-.08-.01-.15-.05-.22-.1h.02c-.18-.08-.32-.12-.41-.12h-.12s-.07,0-.1,.02c-.18,.03-.41,.08-.67,.16-.26,.08-.53,.18-.82,.3-.28,.12-.57,.27-.86,.42-.29,.16-.57,.31-.81,.47-.38,.24-.64,.47-.79,.71-.1,.17-.17,.32-.2,.46s-.05,.29-.08,.46v-.02c-.03,.29-.12,.5-.29,.64-.17,.14-.37,.21-.59,.21s-.42-.08-.6-.23-.27-.38-.29-.68c-.01-.13-.02-.26-.02-.39v-1.36c0-.3,0-.59,.02-.85,.01-.27,.03-.51,.06-.72-.11-.07-.16-.17-.16-.31,0-.09,.03-.18,.1-.27,.12-.2,.22-.41,.31-.65v.02c.07-.18,.17-.31,.3-.38s.28-.11,.44-.11c.03,0,.07,0,.14,.02,.07,.01,.14,.02,.22,.02,.14,.05,.28,.14,.39,.27,.12,.12,.18,.28,.18,.46,0,.03,0,.05,0,.08,0,.03,0,.05,0,.08-.04,.14-.07,.33-.1,.57-.03,.24-.05,.45-.06,.65,.03-.01,.05-.02,.06-.03,.01,0,.03-.02,.06-.05s.06-.05,.1-.06c.28-.2,.6-.39,.96-.58,.37-.19,.74-.36,1.13-.51,.39-.15,.77-.28,1.14-.38,.37-.1,.71-.16,1.01-.18h.08c.26,0,.5,.04,.71,.12,.21,.08,.37,.16,.47,.24,.22,.17,.33,.39,.33,.65,0,.22-.06,.42-.18,.59h.02c-.17,.26-.39,.39-.67,.39Z"/>
    <path class="cls-1" d="M171.49,171.14c0,.16-.04,.31-.12,.45-.08,.14-.19,.26-.33,.35-.45,.24-.95,.46-1.51,.66-.56,.2-1.09,.33-1.57,.38-.09,.01-.18,.02-.27,.02h-.24c-.43,0-.78-.07-1.03-.21-.25-.14-.49-.36-.7-.66v.02c-.09-.13-.18-.32-.25-.56-.08-.24-.12-.46-.12-.66-.04,0-.08,.02-.12,.06-.17,.11-.38,.27-.64,.48-.26,.22-.53,.45-.82,.7-.18,.14-.36,.29-.52,.42-.16,.14-.32,.27-.48,.4-.56,.41-1.09,.61-1.57,.61-.41,0-.75-.12-1.04-.37-.37-.31-.55-.79-.55-1.43,.03-.59,.18-1.15,.45-1.67,.2-.39,.44-.77,.72-1.14,.28-.37,.58-.71,.89-1.03s.63-.61,.95-.87c.32-.26,.62-.48,.89-.67,.31-.2,.69-.41,1.12-.64,.43-.23,.89-.34,1.38-.34,.26,0,.53,.05,.8,.15,.27,.1,.54,.26,.81,.48,.13,.1,.22,.22,.28,.33,.05,.12,.08,.23,.08,.33,0,.17-.04,.32-.12,.45-.09,.14-.21,.26-.36,.34-.15,.09-.32,.13-.5,.13-.2,0-.38-.06-.55-.18-.09-.08-.19-.13-.3-.17-.11-.03-.23-.05-.34-.05-.37,0-.8,.17-1.3,.51-.24,.16-.49,.35-.77,.59-.28,.24-.55,.49-.82,.78-.27,.28-.52,.58-.75,.88-.23,.31-.41,.6-.54,.87-.04,.07-.07,.15-.09,.25-.02,.11-.03,.2-.03,.29s0,.14,.02,.16c0,.03,.01,.04,.04,.04,.08,0,.19-.06,.33-.18l.24-.18c.21-.17,.45-.37,.72-.6,.27-.23,.54-.46,.83-.68,.28-.22,.56-.44,.82-.64s.51-.37,.72-.5v.02c.34-.21,.67-.31,.98-.31,.26,0,.48,.08,.65,.24s.25,.4,.25,.73v.29c0,.18,0,.35,.02,.49,.01,.14,.04,.26,.08,.35,.07,.18,.14,.31,.24,.37s.21,.1,.35,.1h.08c.16-.03,.34-.07,.55-.12,.21-.05,.42-.12,.64-.19,.22-.07,.42-.15,.63-.23,.2-.08,.38-.16,.52-.24,.16-.08,.3-.12,.43-.12,.25,0,.46,.11,.65,.31v.02c.13,.17,.2,.35,.2,.53Z"/>
    <path class="cls-1" d="M176.2,167.83c-.14,.18-.36,.27-.66,.29-.12,0-.26,0-.43,0-.17,0-.35-.02-.55-.03-.24-.01-.49-.02-.76-.03-.27,0-.53,0-.8,0,0,.34,.01,.69,.04,1.06,.03,.37,.06,.72,.1,1.07,.04,.35,.08,.67,.14,.98,.05,.31,.11,.58,.18,.82l-.02-.02c.03,.07,.04,.11,.04,.14v.08c0,.22-.06,.41-.19,.56-.12,.15-.28,.25-.46,.29l.02-.02c-.07,.03-.12,.04-.16,.04h-.08c-.2,0-.38-.06-.56-.18s-.3-.31-.36-.59c-.14-.54-.26-1.17-.33-1.91-.08-.73-.12-1.51-.12-2.32h-1.2c-.29,0-.5-.09-.64-.26s-.21-.38-.21-.6,.07-.42,.21-.61,.36-.29,.66-.33h.83c.12,0,.24,0,.35-.02,0-.39,.02-.83,.06-1.33s.09-1,.16-1.52,.14-1.05,.22-1.58c.08-.53,.17-1.03,.28-1.5-.07-.07-.1-.16-.1-.29,0-.09,.01-.16,.04-.22l-.02,.02c.03-.13,.12-.31,.27-.55,.03-.03,.05-.07,.08-.13,.03-.06,.04-.08,.04-.05l.04-.18s.06-.09,.09-.15c.03-.06,.04-.08,0-.05l-.02,.04c.16-.35,.41-.53,.75-.53,.14,0,.3,.05,.47,.16l-.02-.02c.16,.1,.29,.23,.38,.38,.1,.15,.15,.34,.15,.56v.06c0,.16-.02,.28-.06,.38-.04,.1-.09,.2-.16,.3l-.02,.02c-.1,.41-.21,.87-.3,1.39-.1,.52-.19,1.06-.26,1.62-.08,.56-.14,1.11-.2,1.66-.05,.55-.08,1.05-.08,1.49,.24,0,.54,0,.9,.03,.37,.02,.72,.04,1.06,.07,.46,.03,.81,.1,1.05,.21,.24,.11,.36,.36,.36,.74,0,.21-.07,.4-.21,.58Z"/>
    <path class="cls-1" d="M183.68,171.63c-.12,.17-.34,.28-.66,.31-.2,.03-.46,.09-.78,.19-.32,.1-.66,.22-1.01,.36-.33,.12-.65,.23-.97,.34-.32,.11-.61,.2-.87,.27-.42,.1-.78,.16-1.08,.16-.52,0-.94-.13-1.24-.4-.3-.27-.54-.7-.71-1.29-.04-.14-.07-.31-.09-.5s-.03-.38-.03-.58c0-.14,0-.27,0-.38s.02-.21,.03-.3c.03-.3,.07-.6,.13-.88,.06-.29,.13-.56,.21-.82-.05-.05-.08-.14-.08-.26,0-.05,0-.09,0-.13,0-.03,.02-.07,.03-.11,.07-.14,.15-.31,.26-.51s.22-.35,.32-.45c.18-.14,.39-.22,.63-.22,.13,0,.27,.03,.41,.08,.18,.07,.33,.16,.43,.29,.1,.12,.16,.26,.16,.4,0,.12-.02,.22-.06,.31-.14,.26-.28,.61-.42,1.05-.14,.44-.22,.87-.25,1.29v.31c0,.35,.03,.63,.08,.82,.08,.28,.24,.41,.49,.41h.16c.05,0,.12-.01,.2-.04,.18-.03,.4-.08,.65-.18,.25-.09,.5-.19,.77-.29,.45-.18,.89-.35,1.35-.51s.83-.24,1.15-.24h.04c.3,0,.53,.09,.68,.28,.15,.18,.23,.39,.25,.63v.04c0,.2-.06,.38-.19,.55Zm-3-8.21c0,.2-.04,.39-.13,.59s-.22,.36-.4,.49c-.26,.17-.52,.25-.77,.25-.16,0-.32-.03-.49-.09-.17-.06-.33-.16-.47-.3-.25-.28-.37-.58-.37-.92,0-.18,.05-.37,.14-.56,.09-.19,.24-.36,.43-.5,.21-.16,.46-.24,.77-.24,.28,0,.53,.08,.77,.24h.02c.34,.26,.51,.61,.51,1.04Z"/>
    <path class="cls-1" d="M191.04,168.72c-.08,.14-.2,.24-.37,.3-.07,.03-.14,.04-.24,.05-.09,0-.19,.02-.29,.03,.13,.26,.2,.56,.2,.9,0,.22-.04,.47-.13,.75s-.25,.54-.48,.81c-.35,.41-.72,.76-1.11,1.07s-.79,.55-1.23,.74c-.38,.16-.77,.27-1.16,.33-.39,.07-.82,.1-1.28,.12h-.1c-1.18,0-1.98-.38-2.42-1.14-.22-.35-.33-.82-.33-1.39,0-.35,.04-.72,.12-1.1,.17-.79,.49-1.48,.97-2.08,.48-.6,1.04-1.06,1.68-1.38h-.02c.28-.16,.57-.24,.88-.24s.63,.12,.94,.35c.12-.04,.25-.06,.41-.06,.12,0,.23,.01,.33,.04,.22,.03,.45,.09,.68,.21s.43,.23,.6,.36h1.51c.26,0,.48,.09,.67,.27s.28,.38,.28,.6v.04c0,.14-.04,.28-.12,.42Zm-2.53,1.21c0-.33-.15-.6-.45-.83h-1.36c-.34,0-.63-.06-.86-.17-.24-.11-.37-.26-.39-.46-.01,.01-.03,.02-.06,.02-.03,.01-.05,.02-.06,.02l-.04,.02c-.24,.17-.49,.44-.76,.8s-.44,.76-.52,1.21c-.04,.24-.06,.43-.06,.57,0,.26,.05,.46,.14,.59,.18,.25,.46,.37,.84,.37h.16c.33,0,.62-.03,.86-.08,.25-.05,.48-.12,.69-.2,.31-.13,.62-.31,.9-.55,.29-.24,.54-.5,.77-.79,.13-.14,.2-.32,.2-.53Z"/>
    <path class="cls-1" d="M204.97,171.37c-.08,.15-.21,.26-.39,.34-.09,.03-.17,.05-.25,.07s-.15,.03-.23,.03h-.16c-.16,.07-.33,.12-.53,.18h.02c-.22,.08-.46,.16-.71,.26-.25,.09-.5,.2-.77,.33-.52,.21-1,.31-1.43,.31-.47,0-.9-.11-1.28-.34-.38-.23-.68-.58-.9-1.05-.18-.38-.31-.76-.38-1.14-.07-.38-.13-.7-.17-.96v.02c-.01-.05-.02-.1-.02-.14s0-.07-.02-.1c-.01-.08-.07-.13-.18-.16-.03-.01-.06-.02-.1-.02-.1,0-.21,.02-.3,.07-.1,.05-.21,.1-.32,.17h.02s-.05,.08-.24,.23c-.18,.15-.37,.3-.55,.44v-.02c-.18,.16-.37,.32-.55,.48-.18,.16-.37,.3-.55,.42-.16,.12-.32,.26-.5,.42-.18,.16-.35,.33-.51,.51-.16,.18-.31,.35-.44,.53s-.23,.32-.29,.44c-.1,.21-.24,.35-.39,.43-.16,.08-.31,.12-.47,.12-.07,0-.14,0-.23-.02-.08-.01-.16-.04-.23-.08-.22-.11-.37-.23-.44-.37-.07-.14-.11-.31-.11-.49v-2.04c0-.18,0-.36,0-.53,0-.17-.01-.33-.01-.47v-.49c-.2-.09-.29-.25-.29-.49,.03-.13,.08-.28,.16-.46,.08-.18,.17-.32,.27-.42,.14-.2,.38-.29,.71-.29h.1c.18,.01,.36,.07,.53,.18,.17,.1,.27,.26,.29,.47,0,.04,0,.08,0,.13,0,.05,0,.09,0,.13,.01,.16,.02,.34,.03,.55,0,.21,0,.43,0,.65v.92c.13-.13,.27-.25,.4-.37,.14-.12,.27-.24,.4-.35,.04-.03,.08-.06,.12-.09,.04-.03,.08-.06,.12-.09,.26-.25,.54-.49,.83-.74s.56-.46,.83-.64c.27-.22,.6-.4,.96-.52,.37-.12,.71-.19,1.02-.19h.12c.41,0,.75,.12,1.03,.35,.28,.24,.46,.6,.54,1.08,.07,.47,.14,.89,.22,1.25,.08,.36,.17,.66,.28,.89,.1,.26,.32,.39,.65,.39,.2,0,.39-.04,.57-.12,.1-.04,.21-.08,.3-.13,.1-.04,.2-.08,.3-.11h-.02c.35-.14,.72-.29,1.09-.42,.37-.14,.71-.24,1.01-.3,.05-.01,.14-.02,.27-.02,.29,0,.5,.09,.64,.26s.21,.38,.23,.63v.04c0,.16-.04,.31-.12,.46Z"/>
  </g>
  <g>
    <path class="cls-5" d="M80.2,17.7c.06-.03,.1-.07,.11-.1-.11,.05-.13,.09-.11,.1Z"/>
    <path class="cls-5" d="M30.35,42.56l.44-.49c-.3,.31-.41,.44-.44,.49Z"/>
    <path class="cls-5" d="M113.48,13.72s-.04,.02-.08,.03c.51-.05,1.21-.12,2.34-.24l-2.26,.21Z"/>
    <path class="cls-5" d="M25.26,155.95l-.35-.68c.15,.31,.25,.51,.35,.68Z"/>
    <path class="cls-5" d="M10.34,86.78c.01,.22-.02,.6-.03,.97,.03-.46,.08-.83,.03-.97Z"/>
    <path class="cls-5" d="M131.22,13.33h-.96s.36,.06,.96,0Z"/>
    <path class="cls-5" d="M164.9,9.95s-.03-.02-.09-.03c-.05,.01,0,.02,.09,.03Z"/>
    <path class="cls-5" d="M151.67,10.21c-.28,.04-.61,.08-.94,.13,.4-.04,.91-.08,.94-.13Z"/>
    <path class="cls-5" d="M150.27,10.41c.15-.02,.3-.05,.45-.07-.25,.03-.46,.05-.45,.07Z"/>
    <path class="cls-5" d="M212.76,27.31c-.94-.31-1.77-.5-2.63-.71l2.63,.71Z"/>
    <path class="cls-5" d="M114.87,209.2l-.22,.03c.2,0,.24-.02,.22-.03Z"/>
    <path class="cls-5" d="M211.28,27.87l-.65-.24c.24,.1,.45,.17,.65,.24Z"/>
    <path class="cls-5" d="M113.39,15.74c-.97,.21-2.99,.29-2.97,.38,1.04-.11,2.52-.19,2.97-.38Z"/>
    <path class="cls-5" d="M137.78,205.66h.64c-.31,0-.5,0-.64,0Z"/>
    <path class="cls-5" d="M211.28,27.87l.75,.28c-.06-.04-.14-.09-.21-.13-.17-.04-.36-.09-.54-.15Z"/>
    <path class="cls-5" d="M226.72,197.36s-.02,0-.04,.02c-.07,.04-.13,.07-.21,.1l.24-.12Z"/>
    <path class="cls-5" d="M232.34,195.08c-.38,.19-.75,.37-1.16,.57,.63-.28,.95-.44,1.16-.57Z"/>
    <path class="cls-5" d="M210.13,26.61l-1.5-.4c.53,.16,1.02,.29,1.5,.4Z"/>
    <path class="cls-5" d="M272.39,145.5c-.04,.21-.09,.4-.13,.59,.06-.25,.1-.45,.13-.59Z"/>
    <path class="cls-5" d="M10.93,82.2c.03-.15,.06-.35,.09-.52-.02-.06-.04-.03-.09,.52Z"/>
    <path class="cls-5" d="M17.65,125.95v.02s0,0,0,0c0,0,0-.02,0-.02Z"/>
    <path class="cls-5" d="M16.94,123.71c.16,.72,.49,1.72,.71,2.24-.18-.72-.38-1.38-.71-2.24Z"/>
    <path class="cls-5" d="M18.96,130.82c-.02-.09-.04-.16-.07-.27,.02,.1,.04,.18,.07,.27Z"/>
    <path class="cls-5" d="M13.82,84.39s0,0-.01,0c0,.01,0,.02,0,.03v-.03Z"/>
    <path class="cls-5" d="M13.22,93.63c-.02,.16-.04,.39-.05,.64,.02-.16,.04-.37,.05-.64Z"/>
    <path class="cls-5" d="M27.59,152.38s0,0,0,0c0,.02,.01,.02,.02,.04,0-.02,0-.03-.01-.04Z"/>
    <path class="cls-5" d="M94.72,201.77c-1.08-.22-2.21-.37-3.34-.66-1.14-.27-2.3-.55-3.49-.83-1.18-.29-2.4-.55-3.6-.87-1.2-.35-2.4-.71-3.6-1.07-1.2-.36-2.41-.72-3.6-1.08-1.17-.43-2.33-.86-3.46-1.27-1.14-.42-2.25-.84-3.34-1.24-1.07-.42-2.06-.92-3.04-1.35-.45-.14-.95-.3-1.47-.52-.51-.23-1.05-.49-1.62-.77-1.13-.55-2.35-1.16-3.52-1.88l-.09-.41-2-1.1c-.73-.58,1.52,.87,.19-.09-.28-.1-.54-.22-.81-.33-.09-.2-4.77-3.4-1.5-1.4-2.41-1.69-4.69-3.57-6.89-5.54-1.44-1.32-1.01-.6-2.52-2.16-.25-.37,.6,.5,.55,.3-1.14-1.17-2.03-2.09-2.8-2.88-.78-.78-1.48-1.4-2.12-2.06-.65-.65-1.3-1.29-2.02-2.06-.7-.8-1.45-1.75-2.36-2.98l.35,.39c-.73-.76-1.82-2.42-1.88-2.41,.21,.81,.74,.82,1.73,2.42-.33,.04-1.49-1.8-1.58-1.59-.74-1.24-1.39-1.82-2.07-2.88-.51-.95-1.23-2.03-1.85-3.11-.62-1.07-1.2-2.09-1.53-2.84-.58-.88-1.38-1.78-2.45-3.77-.55-1.54,.35,.25-.58-1.75l-.3-.25c-.8-1.62-.62-1.4-.53-1.37-.81-1.76-.88-1.36-1.8-3.61,.22,.4,.46,.78,.7,1.17-.81-1.6-1.06-2.3-2.03-4.6,.09,.02,.49,.94,.76,1.63-.34-1.33-.99-2.1-1.24-2.8,.02,.22,.64,1.84,.18,1.11-.43-1.16-1.19-2.38-1.34-3.28,.2,.41,.42,.81,.63,1.21-1.06-2.37-.67-1.23-1.67-4.03,.07,.15,.07,.06,.13,.11-.82-1.71-1.46-4.1-2.27-6.76l.2,.49c-.4-1.05-.68-1.61-.85-2.2,.37,1.55,.2,1.15,.11,1.33-.36-2.09-1.21-3-1.95-6.37,.09,.03,.41,.81,.58,1.74,.56,1.06,.79,1.15,1.51,3.12-.44-1.22-.88-2.69-.68-2.41l-.34-.33c-.21-.76-.37-1.36-.52-1.94-.23-.29,.18,1.6-.39-.14-.58-1.98-.03-1.12-.22-1.41-.79-2.73-.53-1.08-1.09-3.76,.08,.26,.24,.77,.28,1-.37-1.92-1.08-4.69-.91-5.31,.12,.27,.21,.31,.34,1.04l-.05-.02c.64,2.06-.42-1.75-.02-1.14-.13,.18-.62-2.53-.8-3.75l-.1,.42c-1.2-3.98,.36,.16-.34-3.84-.5-2.53,.09,.97-.26-.58-.2-1.73-.17-2.39-.48-4.91,0-.71-.04-2.15,.17-2.29-.2-1.53-.15-4.66-.34-5.53-.1,2.63,.24,2.61,.19,5.69l-.25-.85c-.15-2.13-.29-4.86-.21-6.33-.04,.3-.09,.43-.13,.24-.05-3.04-.18-3.93,.07-6.88,.2-.37,.06,1.35,0,2.61,.27-1.89,.11-1.99,.47-4.93,.17-.14-.2,1.98-.09,2.33,.1-1.08,.16-2.17,.29-3.26,0,.01,.02,0,.03,0-.19-.5,.33-2.47,.62-4.45,.43-2.32,.65-3.67,.82-4.77,.15-1.1,.23-1.95,.51-3.24,.26-.66,.38-.84,.36-.54-.43,1.09-.29,.91-.34,1.32,.4-1.56,1.28-3.27,1.09-2.39,.74-2.42-.42,.82,0-.67,.36-1.1,.77-2.18,1.2-3.26-.27,.33-.73,1.47-.18-.25,.24-.72,.49-1.23,.73-1.8,.26-.56,.5-1.2,.96-2.09-.07,.29,.45-.48-.2,.86,.46-.84,1.11-2.18,1.26-2.76-1.12,1.87,1.6-3.19,.66-1.86,.38-.62,.76-1.24,1.19-1.82-.26,.42-.23,.5-.61,1.13,.47-.44,.88-1.55,1.25-2.21,.41-.65,1.57-2.27,1.72-2.36,.17-.3,.5-.79,.83-1.22,.34-.42,.68-.8,.81-.89,.59-.84-.05-.14,.08-.42,.69-.93,1.44-1.82,2.2-2.7,.2-.07,.62-.09,.32,.33,.78-1.06,.02-.6,1.38-2.05-.61,.98,1.9-1.81,.97-.43,.43-.37,1.22-1.13,2.06-1.93,.82-.83,1.74-1.68,2.39-2.29,.7-.87-1.49,1.22-1.53,1.02,.92-.85,1.6-1.53,2.15-2.1,.56-.56,1.01-1,1.42-1.42,.81-.85,1.55-1.54,3.05-2.63l-.79,.55c1.77-1.5,1.61-1.28,2.62-2.19-.4,.54,2.45-1.09,5.69-3.03,.22-.26-1.93,.91-1.49,.45l2.16-1.32c.17-.08-.06,.09-.32,.29,1.93-1.2,3.81-1.8,4.29-2.31l2.19-.75-.87,.28c.22-.26,2.52-1.34,2.98-1.6,2.33-1.14,3.24-1.43,4.62-1.8-.45,.08-1.58,.29,.32-.47,.05,.17,1.06-.2,2.07-.54,1.01-.34,2.01-.7,2.01-.6,.78-.28,2.21-.6,2.26-.77l-.07,.25c.09-.36,2.97-1.23,5.19-1.86-.4,.54,2.44-.69,3.53-.53,.35-.39,3.97-1,4.32-1.31,1.74-.37,1.62-.06,2.08-.06l.79-.26c.9-.05,4.2-.58,6.17-.77,.6-.18,1.19-.34,1.8-.5l.69,.02c.28-.1,1.8-.34,.85-.31l.99-.11c.05-.27,1.38-.24,3.37-.58,.47,0,.35,.07-.08,.15,.99-.1,.58,.08,1.13,.12-.71,0,3.53-.84,.84-.69-.2-.09,1.37-.33,2.35-.36l.62,.19,1.15-.36c1.54-.16,2.2-.05,3.45-.13-1.27,.12-2.8,.7,.5,.42-1.74,.18-2.57,.37-3.46,.5,.68-.04,1.02-.05-.03,.14,2.56-.28,.84-.21,3.39-.45-.12,.23,.6,.24,2.85,.11h-1.69c.08-.04,.19-.07,.32-.1-.64,.03-.82,.01-.96-.06,.51-.04,2.95-.52,3.38-.45-2.6-.07,4.45-.72,2.79-.76,.28-.1,2.06-.31,2.26-.22-2.11,.4,1.63,.06,1.3,.25,.78-.15-1.69,.03-.63-.17,1.27-.16,2.21-.14,2.92-.16l-.52,.1,1.97-.14c.31-.15-1.92,.04-.12-.23,.48,0,2.28-.29,2.23-.19-.84,.25-.19,.37-1.72,.6,1.27-.17,5.32-.69,3.66-.69l1.52-.18c-.96,.03-3.65,.19-.61-.21l-.02,.05,2.1-.42h.94c-.03-.05,.29-.14,1.08-.23,.21,.04,.96-.02,.91,.07,2.28-.28,2.08-.37,2.37-.47,1.27-.17,1.75-.18,1.17,.02,1.75-.18,4.79-.54,5.99-.56,2.32-.34-.49,0,.86-.28,2.06,.17,7.73-.67,11.54-.97-1.06-.25,1.04-.12,1.72-.47-.82,.15,3.64,.04,.3,.33l2.03-.15c1.4,.1-3.36,.33-1.24,.46,1.14-.07,2.08-.22,3.07-.36,.99-.12,2.03-.21,3.38-.2-.89,.26,2.07-.14,1.4,.15-.55,.08-1.3,.1-2.06,.14l.47,.03c4.98-.02,1.44-.3,4.05-.49,3.04,0,2.39,.25,2.56,.35,.46,.08,1.99,.05,2.78,.09-1.84,0-3.4-.3-2.54-.43,1.33,.26,4.47,.33,5.31,.3-4.27-.69-2.97-.3-7.04-.77-.57,.09-.47,.33-2.93,.23,1.54-.12-.11-.13-.54-.17,.48,.12-1.71,.09-2.45,.18-.69-.09,1.47-.37-1.03-.34l-.46,.34c-.98,0,.4-.27-1.67-.08,1.11-.22-.35-.27,2.46-.42-1.69-.1-2.98,.04-4.17,.19-1.19,.17-2.29,.34-3.58,.53,.27-.04,.29-.09,.55-.13-.55,.13-1.56,.2-2.33,.28-1.73,.06,1.35-.25,.9-.31-.93,.08-1.86,.14-2.79,.24-.06,0-.07,0-.07-.02-.73,.11-1.42,.21-1.69,.15,.82-.18,1.13-.32,1.69-.46l-2.91,.5c.31-.14-2.43,.04-.36-.23l-4.32,.49-.39-.18c-1.03,.15-1.06,.19,.19,.09-1.48,.1-6.51,1.12-5.78,.6-3.37,.58-4.6,.65-8.68,1.26,3.13-.58-3.65,.19-.32-.31-1.97,.14-2.35,.43-3.88,.65-1.46,.08-.84-.21,.71-.48l-1.82,.32,.03-.05-1.58,.31c-1.7,.09-.38-.18-2.13,0l-.36,.24-1.2,.02c.45,.04-.57,.19-1.84,.35l.02-.05-1.54,.21c1.51-.28-1.41,.1-.72-.11-1.32,.14-1.34,.14-3.72,.39l.43,.1c-3.1,.38-.15-.19-2.66,.02l.17,.14c-3.66,.03-6.16,.64-8.86,.77,1.54-.19,1.13-.33,1.1-.28-2.31,.27-6.09,.7-8.45,1.21-.9-.09-1.12-.13-3.58,.15-1.78,.31-2.03,.38-2.59,.6-1.73,.22-4.92,.98-5.04,.86-.37,.21-1.55,.29-2.46,.62l-.21-.02,.18,.11c-3.1,.35-5.03,1.44-8.12,2.03l.51-.19c-.42,.14-.83,.28-1.25,.44-.22,0,.28-.2,.31-.3l-2.93,.91-2.9,1,1.18-.29c-1.22,.43-1.97,.89-3.39,1.33,2.21-1.09-1.91,.72-2.33,.74l1.19-.56q-1.66,.71-1.46,.79c-2.13,.94-1.59,.37-3.49,1.41l1.4-.63c.45-.11-.5,.47-1.44,.89-.23,.08-.92,.32-.22-.02-1.64,.84-4.13,2.03-4.8,2.5-.9,.44-.66,.19-.21-.11-1.7,1.01-2.08,1.24-2.46,1.46-.38,.24-.79,.42-2.42,1.54v-.11s-1.07,.82-1.07,.82c-.58,.3-1.15,.6-1.71,.93l.63-.31c-1.05,.77-1.69,1.26-2.93,2.12,.14-.16,.27-.32,.41-.47-2.87,2.27-3.51,2.4-6.02,4.83-.19,.14,.18-.25,.38-.45-2.26,2.32-1.99,1.45-4.13,3.93,.11-.17-.18,.04-.12-.07-.34,.36-.65,.75-.96,1.13l-.05-.2-.63,1.06-.75,.55c-.11,.16-.22,.32-.32,.49-.64,.5-1.27,1.22-1.94,2-.66,.79-1.31,1.69-2.08,2.47l.4-.17c-.75,1.15-1.51,2.41-2.38,3.67-.79,1.31-1.72,2.63-2.51,4.06-1.68,2.81-3.23,5.9-4.26,9.05l-.12-.17c-.28,.87-.47,1.77-.71,2.65-.6,1.35,.14-.88-.09-.48-.43,1.4-.44,1.72-.49,2.08-.04,.37-.12,.79-.55,2.43-.53,1.66,0-.62,.21-1.42-.84,3.08-1.65,7.7-2.07,9.91,.02,.05,.03,.2,.05,.08-.22,2.11-.64,4.87-.75,7.2-.08-.06-.05-.64-.03-1.22-.06,.84-.19,1.98-.16,2.7l-.09-.89c-.16,1.79-.06,5.24-.22,5.64,.07-.22,.19-.13,.2,1.42-.12,.43-.06,1.48,.03,2.74,.14,1.25,.25,2.7,.32,3.94-.11-.29-.25-2.1-.21-1.59,.01,1.25,.27,2.35,.45,3.43l-.14-.32c.25,1.91,.56,3.81,.9,5.69-.15,.89,.96,5.33,.71,4.98,.39,2.01-.22-1.71,.32,.83,.02,.7,.51,2.29,.33,2.21l-.08-.27,.4,1.77-.41-1.08c.36,1.52,.78,2.6,.93,2.64,.23,1.46,.82,3.48,.84,4.17l-.18-.52c1.1,4,1.35,6.77,2.63,9.8,.05,.24,0,.22-.15-.26,.26,.82,.5,1.64,.79,2.45l-.32-.54c.53,1.32,1.04,2.64,1.59,3.95l-.1-.02c.91,2.66,2.59,6.73,4.1,10.02l-.25-.48c1.78,3.53,1.51,3.51,2.91,6.05-.07-.08-.12-.16-.17-.26,.4,.77,.77,1.56,1.2,2.31l-.35-.47c1.08,1.61,2.46,4.95,2.02,3.84,.63,.9,1.68,2.47,1.94,2.69,1.52,2.4,.28,.65,1.16,2.17,1.1,1.74,1.44,1.95,2.99,4.28h-.1c.75,1.08,1.33,1.66,2.44,3.11l-.36-.4c.49,.56,.86,1.04,1.18,1.46,.32,.41,.59,.77,.86,1.1,.52,.67,1,1.27,1.9,2.04,.8,.96,2.45,2.67,2.25,2.7,1.32,1.31,2.56,2.41,3.77,3.53,1.28,1.04,2.49,2.17,3.97,3.27,.29,.59,.64,.48,2.3,1.99l-.04-.22c4.18,3.11,9.18,6.55,14.55,8.79l.09,.21,1.12,.32c1.43,.56,2.97,1.16,4.54,1.77,1.58,.61,3.17,1.26,4.79,1.73,3.21,1.02,6.27,2.03,8.66,2.56,.79,.15,1.78,.35,2.89,.56,1.1,.23,2.32,.49,3.56,.75l-.27-.03c2.18,.39,4.42,.79,6.71,1.2,2.3,.32,4.65,.67,7.03,1.06-.3,.02,.16,.13-.38,.1,1.15,.03,2.81,.3,3.84,.43l-1.19-.24c1.38,0,3.32,.33,4,.51l2.17,.06c.14,.03,.36,.06,.39,.09l.39-.06,1.13,.27c.54,0,3.4,.12,4.3-.02,.2,.08,2.22,.26,.66,.2,2.63,.17,5.26,.21,7.89,.32l-1.23-.11c-.15-.17,2.22-.16,3.44-.11-1.61,.13-.14,.22,.55,.33,1.07-.08-.93-.13-.37-.22,1.35-.1,4.2-.16,4.91-.09l-.8,.06c1.83-.06,2.68,.21,4.47,.14,1.62-.17,2.81-.09,2.47-.34,2.34-.12,.91,.15,1.66,.16,1.1-.13,4.36-.21,4.78-.1,1.26-.45,6.29-.16,6.75-.54l1.92,.06c.06-.09,.42-.31,1.97-.45,1.46,0,1.13,.17,1.58,.23l.96-.39c8.43-.26,19.46-1.52,28.65-2.1,1.02-.12,2.11-.24,3.24-.37,1.16-.17,2.38-.29,3.59-.51,1.22-.21,2.46-.4,3.68-.66,1.23-.23,2.45-.48,3.64-.75l-.52,.16c1.59-.31,3.17-.67,4.74-1.05-1.15,.23-2.3,.5-3.46,.7,1.03-.25,1.81-.55,2.8-.78,5.19-1.15,12-3.21,18-5.85,3.75-2,2.73-.79,6.32-2.73-.3,.18-.4,.28-.67,.44,3.9-2.01,6-3.16,9.67-5.63-.24,.59,2.43-1.56,2.2-1.18l.22-.34c.86-.5,2.79-1.82,2.57-1.55l1.43-1.37h.23c.52-.38,1.15-.95,1.83-1.56,.69-.6,1.42-1.27,2.09-1.95,1.39-1.3,2.56-2.58,3.15-2.98,2.07-2.49,4.61-5.79,6.91-9.49,2.31-3.69,4.39-7.75,5.95-11.46,.37-1.09,1.13-3.3,1.73-5.03l.78-1.81c.49-1.81,.81-3.77,1.31-5.43,.02,.02,.02,.09,0,.21,.21-.92,.44-1.82,.6-2.71,.17-.89,.36-1.76,.41-2.65,.38-2.03,.73-4.01,.81-3.36-.14-.12,.02-1.21,.21-2.26,.16-1.06,.35-2.09,.35-2.09,0,0,.04-.41,.12-1.2,.05-.78,.16-1.94,.24-3.41,.17-2.95,.25-7.21-.04-12.38-.33-5.16-1.02-11.24-2.38-17.76-1.32-6.52-3.26-13.53-6.18-20.45-1.47-3.45-3.18-6.87-5.18-10.15-.52-.81-1.01-1.63-1.56-2.42l-1.54-2.28c-.99-1.55-1.98-3.09-2.97-4.63-4.03-6.33-9.08-12.02-14.48-16.27-5.37-4.32-10.93-7.39-15.8-9.66-2.47-1.05-4.71-2.08-6.81-2.75-2.07-.71-3.87-1.38-5.44-1.74-.87-.13-3.16-.78-2.35-.33-1.76-.52-2.48-1.04-2.86-1,2.34,.88-.84,.13,1.41,1.07l-1.49-.45c-.33,0,2.05,.55,1.63,.61l.5-.13c1.19,.44,1.83,.71,2.22,.94,1.16,.27,2.03,.11,4.61,1.33l-.74-.27c2.16,.84,1.25,.69,1.69,.91l-.48-.19,1.76,.84c-1.34-.63-3.68-1.3-2.49-.85,2.53,1.08-.64-.32,1.29,.4,1.2,.46,.81,.46,.72,.52,.71,.29,1.44,.53,2.13,.87-.12,.07-1.39-.62-.59-.13l2.68,1.09c.34,.53,2.95,1.15,3.95,2.1-1.86-.92,.11,.19-.23,.12l2.24,1.2,1.12,.6,1.08,.66c.38,.29-1.18-.62-.52-.23,.76,.58,1.37,.76,1.81,1.04,.16,.16,.97,.66,1.7,1.13,.72,.5,1.34,1.01,1.22,1.05,1.35,1.06,1.69,1.21,2,1.35,.31,.13,.62,.24,1.81,1.32,.24,.37-1.99-1.59-.97-.58l2.6,2.07c-.27-.14-.64-.25-1.58-1.05,3.44,2.87,5.67,5.52,7.72,8.14,2.05,2.62,3.84,5.29,6.11,8.68,.49,1.06-.54-.64-1.08-1.26,1.72,2.4,2.69,4.25,3.74,6.02,1,1.69,1.94,3.29,3.21,5.44h.16c3.17,6.16,6.45,13.89,8.29,21.58l-.15-.93c.41,1.01,.86,2.71,1.21,3.96-.02,.21-.48-.85,.08,1.37-.06-.47-.23-1.43-.1-1.16,.61,3.34,1.6,8.53,2.25,14.31,.64,5.78,.89,12.13,.54,17.66-.28,7.48-1.52,15.25-3.88,22.6-2.35,7.36-5.81,14.31-10.01,20.24,1.25-1.83,.98-.87-.03,.47-.79,.84-1.49,1.65-2.13,2.45-.68,.77-1.3,1.55-1.93,2.32-.66,.74-1.3,1.51-2.03,2.25-.75,.72-1.51,1.49-2.45,2.18-3.06,2.91-6.35,5.14-9.78,7.09-3.43,1.96-6.93,3.69-10.51,5.5l-.2-.08c-1.13,.4-1.38,.63-2.53,1.14v-.05c-2.75,1.07-6.06,2.47-7.71,2.93l-.05,.2c-1.67,.57-.91,.18-2.6,.83l.02-.1-1.96,.78c.12-.31-4.79,1.36-6.2,1.54-2.19,.61-6.39,1.68-9.8,2.06-.33-.01-1.53,.06-2.98,.21-1.5,.11-3.26,.25-4.63,.35-5.33,.54-12.94,1.3-19.72,1.81l.14,.19-1.77,.15s-.22-.05,.05-.09c-1.39-.12-4.08,.39-5.51,.36,.91,.11,1.24-.07,2.25-.14,1.46-.02,.09,.28-1.88,.33l.04-.05-1.33,.2c-.16-.14-1.38-.14-1.54-.28-5.82,.43-9.77,.91-15.78,1.05,.61-.19-4.32,.16-3.12-.17-3.6,.21,.6,.22-1.04,.48-1.01,.02-2.07,.13-2.25,.01,.47-.07-.82-.18,0-.21l-2.41,.03c-.23-.02,.3-.06,.57-.08-2.45,.07-4.63,.08-6.73-.04-2.11-.11-4.15-.21-6.34-.19-.33,.1,1.74,.08,1.42,.18-4.43,.05-3.89-.41-8.01-.48l.86-.09c-1.33,.01-1.93,.14-4.09-.22-.36-.23,1.85,.08,2.91,.03-1.5-.08-5.27-.47-4.14-.18-1.8-.12-2.43-.35-3.39-.49-.04,.04,1.66,.29,.6,.26-.61-.08-1.29-.17-2.03-.27-.73-.12-1.52-.24-2.32-.37-1.6-.24-3.27-.49-4.75-.71,.03-.04-.16-.13,.1-.12-2.4-.19-2.08-.56-5.31-1.13Z"/>
    <path class="cls-5" d="M14,83.21l-.19,1.18s.07,.06,.05,.62l.14-1.8Z"/>
    <path class="cls-5" d="M21.89,139.28c.07,.14,.13,.27,.2,.39-.11-.27-.16-.35-.2-.39Z"/>
    <path class="cls-5" d="M27.54,151.98c-.45-.88-.12-.06,.04,.4,.04,0,.07-.03-.04-.4Z"/>
    <path class="cls-5" d="M24.85,53.25c-.11,.18-.16,.3-.11,.29,.13-.25,.15-.31,.11-.29Z"/>
    <path class="cls-5" d="M103.38,16.62c-.11,0-.22,0-.36,0,.07,0,.19,0,.36,0Z"/>
    <path class="cls-5" d="M98.37,16.83c-.24,.02-.56,.06-1.01,.14,.44-.04,.76-.09,1.01-.14Z"/>
    <path class="cls-5" d="M15.77,72.73c-.09,.32-.17,.63-.21,.91,.14-.49,.19-.74,.21-.91Z"/>
    <path class="cls-5" d="M96.34,17.13l-1.25,.13s-.02,.02-.02,.04l1.27-.16Z"/>
    <path class="cls-5" d="M104.96,16.51c-.49,.04-1.15,.08-1.58,.11,.63-.01,1.12-.05,1.58-.11Z"/>
    <path class="cls-5" d="M48.85,31.24s-.07,.05-.11,.07c-.8,.56-.29,.22,.11-.07Z"/>
    <path class="cls-5" d="M90.92,18.14c-.05,0-.11,.01-.17,.02l-.36,.1,.52-.12Z"/>
    <path class="cls-5" d="M110.43,16.12c-.24,.02-.46,.05-.63,.09,.2-.01,.43-.02,.72-.04-.07-.02-.09-.03-.09-.04Z"/>
    <path class="cls-5" d="M66.04,23.76c.31-.18,.43-.26,.43-.3-.39,.14-.63,.25-.43,.3Z"/>
  </g>
  <g>
    <path class="cls-3" d="M267.08,104.85c-.02-.06-.05-.1-.09-.12,.04,.11,.06,.13,.09,.12Z"/>
    <path class="cls-3" d="M254.62,154.14l.32-.51c-.22,.32-.3,.45-.32,.51Z"/>
    <path class="cls-3" d="M261.01,74.32s.03,.04,.04,.06c-.18-.45-.43-1.05-.84-2.03l.79,1.97Z"/>
    <path class="cls-3" d="M156.73,201.07l.69-.14c-.31,.06-.51,.09-.69,.14Z"/>
    <path class="cls-3" d="M219.74,181.69c-.17,.12-.48,.27-.78,.43,.39-.18,.69-.33,.78-.43Z"/>
    <path class="cls-3" d="M254.82,58.76l.39,.83s-.1-.34-.39-.83Z"/>
    <path class="cls-3" d="M231.1,37.21s.02,.03,.06,.06c.05,.01,0-.02-.06-.06Z"/>
    <path class="cls-3" d="M241.09,44.8c.22,.16,.47,.35,.72,.54-.3-.24-.67-.55-.72-.54Z"/>
    <path class="cls-3" d="M242.16,45.59c-.11-.08-.23-.17-.35-.25,.19,.15,.34,.27,.35,.25Z"/>
    <path class="cls-3" d="M157.81,7.81c.92,0,1.7-.11,2.52-.19l-2.52,.19Z"/>
    <path class="cls-3" d="M58.22,196.65l.2,.04c-.18-.06-.21-.06-.2-.04Z"/>
    <path class="cls-3" d="M158.94,6.8h.65c-.24,0-.45,0-.65,0Z"/>
    <path class="cls-3" d="M262.96,73.86c.42,.84,.96,2.7,1.05,2.65-.36-.93-.76-2.28-1.05-2.65Z"/>
    <path class="cls-3" d="M37.98,188.45l-.48-.4c.23,.19,.38,.31,.48,.4Z"/>
    <path class="cls-3" d="M158.94,6.8l-.75-.02c.06,.02,.15,.04,.23,.05,.17-.02,.34-.03,.53-.04Z"/>
    <path class="cls-3" d="M15.28,110.67s0,.02,0,.04c0,.08,0,.13,0,.21v-.25Z"/>
    <path class="cls-3" d="M16.08,105.19c-.05,.39-.07,.76-.11,1.18,.09-.62,.1-.95,.11-1.18Z"/>
    <path class="cls-3" d="M160.33,7.62l1.44-.11c-.52,.02-.99,.06-1.44,.11Z"/>
    <path class="cls-3" d="M36.69,50.26c-.11,.15-.22,.3-.32,.44,.14-.18,.25-.33,.32-.44Z"/>
    <path class="cls-3" d="M223.54,179.87c.12-.06,.29-.13,.44-.2,.03-.05,0-.05-.44,.2Z"/>
    <path class="cls-3" d="M185.64,197.46h-.02s0,0,0,0c0,0,.01,0,.01,0Z"/>
    <path class="cls-3" d="M187.74,196.69c-.68,.18-1.62,.54-2.11,.77,.68-.2,1.3-.41,2.11-.77Z"/>
    <path class="cls-3" d="M180.99,198.74c.09-.02,.15-.04,.26-.06-.09,.02-.17,.04-.26,.06Z"/>
    <path class="cls-3" d="M223.46,183.42s0-.01,0-.01c0,0-.02,.01-.02,.02h.02Z"/>
    <path class="cls-3" d="M215.3,187.2c-.15,.04-.36,.11-.59,.2,.15-.04,.34-.1,.59-.2Z"/>
    <path class="cls-3" d="M159.44,204.25s0,0,0,0c-.02,0-.03,0-.05,.01,.02,0,.03,0,.04,0Z"/>
    <path class="cls-3" d="M75.35,207.6c4.19,1,9.07,1.81,13.95,2.31,4.88,.52,9.77,.75,14,.85,1.84-.18,4.52-.19,7.21-.31l.29,.3c.75-.04,1.49-.11,2.24-.17,.92,.06-1.72,.12-.1,.18l.84-.22c.18,.13,5.75-.22,2.01,.2,2.9-.15,5.8-.35,8.69-.6,1.92-.15,1.1-.35,3.22-.48,.44,.05-.75,.13-.57,.23,6.37-.43,7.26-1.35,13.15-2.01l-.49,.11c.49-.11,1.22-.23,1.82-.33,.6-.1,1.08-.17,1.09-.2-.8-.2-1.03,.31-2.85,.39,.12-.28,2.21-.45,2.07-.63,1.39-.1,2.17-.39,3.36-.58,2.06-.14,4.96-.78,6.53-.83,.98-.26,2.04-.72,4.17-1.13,1.57-.09-.32,.27,1.77-.07l.3-.21c1.71-.32,1.45-.23,1.4-.15,1.82-.36,1.47-.5,3.77-.9l-1.24,.42c1.67-.43,2.36-.54,4.71-1.06-.03,.1-.97,.31-1.67,.43,1.32-.05,2.15-.59,2.85-.72-.21-.02-1.83,.33-1.08,0,1.16-.24,2.42-.78,3.29-.8l-1.23,.44c2.39-.68,1.25-.48,4.03-1.11-.15,.05-.06,.07-.12,.11,1.71-.61,4.03-1.04,6.6-1.72l-.48,.17c1.03-.32,1.56-.61,2.12-.76-1.48,.33-1.1,.17-1.27,.07,1.99-.31,2.88-1.09,6.05-1.88-.03,.1-.75,.43-1.64,.59-1.01,.55-1.08,.79-2.97,1.45,1.18-.39,2.58-.83,2.31-.64l.31-.33c.72-.21,1.29-.37,1.84-.53,.27-.24-1.53,.2,.12-.39,1.86-.64,1.07-.07,1.33-.26,2.56-.87,1-.55,3.51-1.26-.24,.1-.71,.29-.93,.33,1.81-.47,4.36-1.41,4.96-1.33-.24,.15-.27,.25-.95,.45v-.05c-1.88,.83,1.63-.58,1.09-.15-.18-.1,2.32-.89,3.45-1.24l-.41-.05c3.55-1.78-.09,.4,3.57-.95,2.3-.92-.9,.26,.49-.35,1.59-.53,2.23-.59,4.49-1.51,.66-.17,2-.58,2.18-.44,1.36-.6,4.25-1.58,4.96-2.08-2.42,.81-2.28,1.16-5.15,1.99l.71-.48c1.93-.73,4.33-1.82,5.67-2.31-.28,.08-.42,.08-.26-.02,2.67-1.23,3.37-1.73,5.98-2.89,.41,0-1.11,.7-2.22,1.2,1.74-.63,1.76-.78,4.36-1.98,.2,.07-1.74,.84-1.98,1.11,.95-.46,1.89-.95,2.84-1.43,0,.01,0,.02,.01,.03,.3-.43,2.18-1.06,3.85-2.07,4.03-2.24,4.44-2.93,6.48-4.46,.61-.31,.82-.36,.61-.16-1.01,.51-.8,.48-1.09,.75,1.3-.84,2.98-1.66,2.32-1.09,2.01-1.45-.81,.39,.4-.53,.95-.62,1.86-1.28,2.78-1.93-.4,.13-1.39,.8-.02-.3,1.15-.92,1.76-1.3,3.26-2.52-.18,.23,.6-.23-.54,.68,.75-.55,1.91-1.46,2.24-1.93-1.67,1.29,2.55-2.35,1.22-1.47l1.63-1.34c-.36,.32-.34,.42-.88,.89,.57-.27,1.25-1.2,1.75-1.74,.56-.49,1.94-1.84,2.1-1.92,.43-.52,1.58-1.68,1.85-1.85,.63-.77-.04-.15,.1-.4,.76-.83,1.49-1.69,2.21-2.56,.2-.07,.62-.1,.32,.32,.74-1.06,.04-.55,1.24-2.08-.5,1.02,1.67-1.96,.91-.51,.39-.41,1.04-1.26,1.72-2.21,.63-.97,1.33-2,1.74-2.78,.21-.51-.06-.12-.38,.38-.34,.49-.76,1.08-.8,.98,1.31-2.09,1.84-3.29,2.27-4.35,.46-1.05,.81-1.96,1.63-3.56l-.45,.82c.91-2.05,.76-1.84,1.17-3.08-.07,.65,1.6-2.1,2.63-5.68,0-.32-.83,1.91-.8,1.28,.26-.77,.48-1.56,.69-2.35,.07-.17,.03,.1-.04,.41,.56-2.12,1.29-3.88,1.2-4.54l.76-2.11-.31,.83c-.02-.16,.09-.84,.2-1.54,.09-.71,.19-1.44,.22-1.69,.32-2.48,.47-3.37,.8-4.7-.15,.42-.47,1.46-.27-.48,.35,.06,.55-4.08,.69-4,.05-.79,.26-2.19,.13-2.29l.21,.15c-.3-.2-.11-3.08-.17-5.29,.39,.5,.01-2.43,.33-3.41-.14-.21-.2-1.19-.25-2.16-.05-.98-.15-1.95-.27-2.14-.12-1.7,.15-1.55,.21-1.99-.05-.26-.11-.52-.17-.78,.05-.87-.23-4.06-.44-5.96-.17-.57-.31-1.15-.49-1.72v-.66c-.11-.27-.4-1.71-.34-.8l-.15-.94c-.27-.03-.29-1.31-.83-3.16-.05-.44,.04-.34,.16,.06-.2-.93,.02-.56,0-1.09,.04,.34-.26-.48-.52-1.05-.28-.57-.5-.91-.25,.35-.05,.19-.51-1.23-.7-2.15l.09-.61-.53-1.02c-.44-1.4-.5-2.03-.82-3.18,.37,1.15,1.25,2.45,.3-.56,.52,1.57,.89,2.31,1.19,3.12-.18-.63-.26-.95,.14,0-.8-2.34-.39-.75-1.14-3.07,.24,.06,.14-.62-.54-2.66l.4,1.56c-.05-.06-.11-.16-.16-.27,.19,.58,.2,.75,.16,.9-.13-.47-1.21-2.58-1.22-3.01,.26,1.21-.16,.23-.61-.86-.47-1.08-1.02-2.25-.81-1.49-.17-.23-.83-1.79-.8-2,.94,1.81-.36-1.51-.13-1.26-.37-.66,.52,1.52,.03,.62-.54-1.09-.81-1.94-1.04-2.59l.26,.44-.73-1.74c-.23-.23,.63,1.72-.17,.19-.16-.43-1.06-1.91-.95-1.91,.53,.65,.41,.03,1.16,1.31-.61-1.07-2.52-4.48-1.93-3-.22-.43-.49-.84-.75-1.26,.22,.41,.61,1.19,.74,1.56,.13,.37,.07,.3-.69-.95h.05s-1.22-1.64-1.22-1.64l-.38-.81c-.03,.05-.24-.19-.64-.83-.06-.2-.45-.79-.35-.79-1.28-1.78-1.27-1.57-1.49-1.76-.71-.99-.97-1.37-.52-1-1.05-1.31-2.86-3.62-3.6-4.49-1.6-1.59,.28,.37-.72-.5-.96-1.76-5.14-5.38-8.05-7.6,.57,.89-.79-.62-1.54-.74,.7,.38-2.66-2.24-.01-.44l-1.61-1.12c-.98-.93,2.71,1.79,1.21,.4-.9-.63-1.68-1.12-2.52-1.58-.86-.45-1.74-.93-2.8-1.67,.86,.26-1.73-.99-1.05-.86,.5,.21,1.1,.61,1.73,.99l-.36-.28c-.51-.32-.91-.58-1.23-.78-.33-.18-.57-.3-.75-.38-.36-.17-.47-.18-.52-.15-.1,.06,.03,.27-1.11-.25-2.59-1.36-1.95-1.25-2.05-1.43-.39-.25-1.76-.81-2.48-1.08,1.7,.6,2.94,1.52,2.13,1.29-1.06-.77-3.95-1.82-4.71-2.05,1.84,.99,2.49,1.29,3.12,1.58,.62,.31,1.25,.52,2.89,1.61,.51,.18,.54-.07,2.57,1.12-1.36-.59,.02,.16,.37,.39-.31-.37,1.41,.81,2.05,1.14,.49,.44-1.35-.47,.62,.83l.55-.03c.76,.54-.45-.03,1.24,.99-.97-.46,.13,.37-2.15-1,.63,.48,1.22,.86,1.76,1.22,.52,.37,1.02,.69,1.5,.99,.95,.61,1.92,1.06,2.91,1.81-.21-.15-.26-.13-.46-.27,.46,.27,1.2,.89,1.77,1.34,1.21,1.1-1.09-.71-.82-.37l2.04,1.68s.04,.05,.04,.06c.57,.4,1.04,.87,1.17,1.08-.64-.46-.92-.61-1.39-.87,.76,.53,1.45,1.14,2.18,1.72-.29-.13,1.53,1.7,.05,.4,.5,.47,1.01,.92,1.49,1.4l1.4,1.48,.07,.4c.69,.69,.74,.68-.03-.19,.98,.98,4.29,4.49,3.5,4.17,1.09,1.18,1.68,2.1,2.4,3.03,.73,.93,1.39,2,2.47,3.62-1.76-2.42,1.6,3.02-.16,.4,.91,1.61,1.23,1.87,1.98,3.11,.58,1.24,.1,.8-.69-.44l.92,1.47h-.05c.29,.41,.53,.85,.79,1.28,.59,1.49-.05,.4,.64,1.89l.33,.24c.12,.35,.27,.69,.37,1.06-.08-.42,.33,.46,.81,1.56h-.05s.6,1.32,.6,1.32c-.67-1.28,.48,1.24,.09,.68,.41,1.17,.43,1.19,1.22,3.29v-.41c1.05,2.73-.13,.17,.58,2.43l.1-.19c.39,1.66,.85,3.03,1.21,4.32,.39,1.28,.76,2.45,.93,3.71-.34-1.41-.43-1.01-.39-.99,.25,1.06,.58,2.44,.87,3.85,.26,1.41,.57,2.83,.81,3.93-.11,.84-.15,1.05,.06,3.34,.18,1.66,.22,1.91,.4,2.44,.11,1.62,.36,4.66,.23,4.75,.16,.37,.03,1.46,.16,2.35l-.06,.19,.15-.14c-.12,1.45-.07,2.66-.03,3.88,.06,1.22,.08,2.45-.14,3.9l-.02-.5v1.23c-.06,.19-.08-.31-.17-.37-.03,.95-.12,1.89-.19,2.83-.07,.94-.14,1.89-.26,2.82l.23-1.1c-.11,1.19-.04,2.01-.29,3.36,.01-1.14-.03-.67-.13,.12-.1,.79-.25,1.92-.36,2.08l.11-1.21q-.21,1.65-.04,1.53c-.28,2.14-.53,1.41-.69,3.4l.25-1.39c.16-.4,.11,.63-.06,1.56-.07,.22-.27,.86-.14,.15-.15,.84-.36,1.88-.56,2.8-.23,.91-.43,1.71-.49,2.08-.27,.88-.3,.56-.22,.07-.85,3.51-.42,1.58-1.42,5.04l-.06-.09c-.1,.4-.23,.8-.34,1.19-.27,.53-.53,1.06-.81,1.58,.12-.18,.23-.36,.34-.55-.43,1.1-.68,1.8-1.29,3.04,.05-.18,.09-.37,.12-.56-.69,1.52-1.14,2.37-1.64,3.18-.49,.81-.93,1.62-1.68,3.01-.13,.17,.09-.27,.2-.5-.66,1.32-1.01,1.75-1.37,2.19-.36,.43-.66,.9-1.43,2.16,.07-.17-.16,.06-.12-.06l-.71,1.15-.08-.19c-.14,.35-.31,.68-.46,1.03l-.64,.55-.25,.47c-1.14,.92-2.26,2.63-3.77,3.92l.38-.1c-1.51,1.98-3.57,3.96-5.86,5.86-2.28,1.91-4.79,3.71-7.18,5.53v-.2c-.64,.54-1.29,1.06-1.94,1.58-1.18,.63,.58-.57,.19-.41-2.15,1.56-.78,.83-3.36,2.53-1.42,.72,.41-.38,1-.85-2.38,1.64-6.08,3.82-7.96,4.67-.03,.04-.13,.13-.03,.09-1.68,.98-4.02,2.02-5.95,2.93,.01-.09,.49-.33,.96-.57-.7,.32-1.68,.71-2.24,1.05l.67-.47c-1.5,.66-4.35,2.03-4.77,2,.21-.01,.18,.14-1.13,.67-.82,.06-3.55,1.55-5.74,2.21,.24-.15,1.79-.76,1.35-.6-1.09,.35-2.01,.81-2.93,1.25l.25-.21c-1.65,.66-3.31,1.3-4.97,1.93-.82,.03-4.75,1.66-4.46,1.36-1.81,.59,1.55-.39-.72,.39-.64,.1-2.05,.74-2.01,.54l.24-.1-1.6,.52,.96-.48c-1.37,.47-2.33,.95-2.36,1.09-1.33,.33-3.18,.95-3.82,.99l.48-.19c-1.83,.59-3.4,.92-4.86,1.24-1.46,.33-2.81,.64-4.24,1.16-.22,.04-.21-.01,.25-.13l-2.3,.6,.52-.27c-1.25,.41-2.51,.77-3.76,1.16l.03-.1c-2.52,.61-6.47,1.57-9.74,2.3l.48-.15c-3.54,.91-3.46,.63-6.06,1.27,.09-.04,.17-.07,.27-.09l-2.36,.45,.51-.18c-1.71,.52-5.04,.68-3.93,.64-.98,.25-2.67,.64-2.94,.8-2.58,.45-.65,0-2.26,.18-1.87,.27-2.18,.5-4.73,.78l.04-.09c-1.19,.18-1.92,.35-3.57,.59l.49-.11c-2.68,.53-3.41,.18-5.49,.81-1.15,.06-3.3,.35-3.21,.16-3.37,.47-5.99,.76-9.35,1.06-.56-.25-.72,.08-2.77,.03l.16,.14c-4.76,.3-10.22,.06-15.44-.02l-.14-.15-1.05,.13c-2.81-.12-6.02-.39-9.07-.7-3.05-.36-5.95-.76-8.14-1.17-1.45-.16-3.67-.4-5.92-.98l.24,.04c-3.96-.8-8.06-1.98-12.14-3.61,.28,.04-.11-.16,.36-.02-1.03-.23-2.4-.94-3.27-1.29l.98,.51c-1.23-.29-2.8-1.2-3.33-1.55l-1.87-.67c-.11-.07-.28-.17-.3-.2l-.35-.09-.84-.66c-.44-.2-2.81-1.31-3.59-1.59-.13-.15-1.69-1.14-.45-.44-1.03-.62-2.07-1.22-3.08-1.87l-2.98-2.02,.9,.68c.04,.2-1.85-.89-2.68-1.65,1.25,.78,.22-.1-.21-.57-.83-.52,.6,.62,.14,.38-1.05-.65-3.18-2.17-3.6-2.68l.6,.43c-1.31-1.03-1.74-1.73-3-2.78-1.15-.92-1.87-1.76-1.83-1.36-1.59-1.43-.48-.69-.96-1.19-.85-.57-2.77-2.86-2.95-3.21-.26-.15-.66-.48-1.05-.93-.39-.46-.82-1.01-1.23-1.54-.82-1.07-1.59-2.05-1.82-2.15l-.87-1.52c-.1,0-.46-.16-1.32-1.3-.7-1.14-.36-.99-.51-1.37l-.74-.59c-.48-.84-.98-1.7-1.5-2.6-.46-.92-.94-1.87-1.43-2.83-.25-.48-.49-.97-.74-1.46-.22-.51-.44-1.01-.66-1.53-.44-1.03-.92-2.05-1.33-3.11-1.65-4.24-2.89-8.74-3.57-12.91-.82-3.68-1.59-8.4-1.8-12.84l.07,.49c-.09-1.46-.08-2.94-.12-4.41l-.02,3.21c-.08-.96-.17-1.71-.2-2.64-.03-4.85,.33-11.32,.78-17.3,.03-3.9,.59-2.53,.79-6.25-.01,.32,.02,.44,.02,.73,.42-3.98,.71-6.13,1.25-10.12,.26,.52,.53-2.55,.64-2.16l-.08-.36c.26-.86,.79-2.88,.82-2.57l.23-1.76,.19-.11c.56-2.27,1.85-7.13,2.56-8.19,.78-2.78,1.98-6.31,3.54-9.89,1.54-3.58,3.41-7.22,5.24-10.32,.41-.93,1.47-2.76,2.37-4.14l1.13-1.36c.89-1.41,1.76-2.98,2.81-4.13,.01,.02-.02,.08-.07,.17,1.01-1.36,2.11-2.54,3.04-3.83,1.23-1.39,2.57-2.6,2.29-2.08-.04-.16,.64-.87,1.36-1.5,.71-.64,1.46-1.2,1.46-1.2,0,0,1.07-1.02,3.12-2.65,1.03-.82,2.28-1.76,3.85-2.81,1.57-1.07,3.35-2.26,5.34-3.51,3.98-2.5,8.78-5.26,14.25-7.83,5.48-2.55,11.62-4.89,18.06-6.91,12.94-3.94,27.1-6.45,39.47-7.8,3.1-.3,6.08-.59,8.89-.87,2.82-.31,5.49-.4,7.95-.61,4.92-.42,9.05-.59,12.02-.84,.8-.16,3.01-.29,2.16-.45,1.71-.08,2.5,.17,2.83,.02-2.33-.06,.72-.4-1.56-.55l1.46-.06c.3-.11-1.99,.15-1.63-.05l-.41,.28c-1.19-.02-1.83-.07-2.25-.16-1.11,.13-1.82,.51-4.48,.39l.73-.03c-2.16,.04-1.33-.16-1.78-.2h.48s-1.83-.12-1.83-.12c1.38,.07,3.66-.19,2.47-.15-2.58-.04,.67,.06-1.26,.12-1.2,.03-.87-.12-.82-.21-.72,.01-1.44,.03-2.16,.07,.07-.13,1.43-.06,.55-.15l-2.71,.26c-.52-.3-2.95,.29-4.21,.05,1.95-.17-.18-.1,.12-.22-1.6,.09-3.2,.14-4.79,.27-.46,0,1.25-.2,.53-.13-.91-.02-1.47,.2-1.96,.24-.42-.06-3.57,.29-3.46,.06-3.26,.12-1.34,.38-4.38,.5-.41-.1,2.4-.22,1.04-.25-1.05,.09-2.09,.21-3.13,.36,.28-.09,.59-.29,1.76-.39-4.24,.42-7.53,.54-10.72,.81-1.59,.16-3.16,.33-4.81,.54-1.65,.22-3.39,.45-5.3,.9-1.11,.06,.76-.26,1.51-.51-2.76,.65-4.73,.95-6.61,1.21-1.88,.24-3.64,.6-5.99,1.16l-.05,.15c-6.65,1.24-14.41,3.79-21.54,6.6l.89-.25c-.96,.46-2.49,1.2-3.62,1.74-.2,.02,.72-.62-1.29,.33,.44-.14,1.32-.48,1.09-.31-.77,.3-1.64,.65-2.6,1.03-.95,.4-1.96,.9-3.05,1.41-2.19,.99-4.55,2.3-7.03,3.65-1.22,.72-2.46,1.45-3.72,2.19-1.23,.78-2.47,1.56-3.71,2.34-1.21,.81-2.42,1.61-3.61,2.4-1.19,.8-2.36,1.65-3.45,2.48-5.82,4.67-11.05,10.47-15.38,16.8-4.32,6.34-7.82,13.17-10.39,19.92,.78-2.06,.74-1.06,.08,.45-2.12,4.05-2.57,7.42-4.17,11.76-2.01,8.13-3.81,15.44-4.29,23.22l-.17,.13c-.21,1.14-.12,1.47-.23,2.69l-.04-.03c-.36,2.86-.41,6.36-.57,8.01l.17,.11c-.05,1.72-.17,.89-.13,2.65l-.08-.05c.03,.68,.09,1.37,.13,2.05-.32-.2-.05,4.85-.08,6.23,.11,2.23,.54,6.44,.94,9.8-.1,.65,.52,4.77,1.03,7.38,.58,2.53,1.35,5.59,2.44,8.74,1.05,3.17,2.46,6.4,3.89,9.4l.12-.19,.82,1.52s.04,.21-.1,0c.22,.64,.7,1.52,1.2,2.39,.55,.84,1.12,1.68,1.43,2.3-.31-.83-.62-1.04-1.13-1.88-.67-1.25,.21-.19,1.14,1.47h-.06s.78,1.04,.78,1.04c-.05,.2,.51,1.26,.48,1.46,.85,1.14,1.63,2.2,2.38,3.2,.75,1.01,1.59,1.87,2.36,2.8,.39,.46,.79,.91,1.19,1.38,.42,.44,.85,.89,1.29,1.35,.9,.9,1.76,1.93,2.82,2.94-.56-.29,3.08,2.86,2.03,2.27,2.68,2.28-.28-.55,1.05,.37,.75,.63,1.58,1.23,1.65,1.43-.4-.24,.49,.65-.13,.16l1.81,1.49c.16,.16-.26-.14-.47-.29,3.85,2.82,6.67,5.25,10.47,7.27,.33,.07-1.45-.89-1.12-.82,1.91,1,2.7,1.52,3.46,2.03,.78,.47,1.53,.93,3.35,1.79l-.8-.25c1.2,.51,1.75,.67,3.64,1.65,.27,.3-1.72-.59-2.66-1.01,1.3,.68,4.72,2.13,3.75,1.53,1.61,.69,2.16,1.03,3.02,1.43,.04-.03-1.48-.71-.49-.41,1.1,.47,2.48,1.1,3.98,1.63,1.5,.51,3.05,1.08,4.45,1.49-.04,.03,.14,.15-.11,.1,2.33,.4,1.97,.77,5.11,1.51Z"/>
    <path class="cls-3" d="M224.51,182.91l-1.05,.5s-.01,.1-.48,.37c.51-.29,1.02-.58,1.53-.88Z"/>
    <path class="cls-3" d="M172.75,201.05c-.14,.05-.27,.1-.39,.15,.27-.08,.35-.12,.39-.15Z"/>
    <path class="cls-3" d="M159.82,204.3c.93-.23,.08-.1-.38-.05-.01,.04,.02,.08,.38,.05Z"/>
    <path class="cls-3" d="M249.56,164.27c-.13,.16-.2,.27-.15,.27,.17-.22,.19-.28,.15-.27Z"/>
    <path class="cls-3" d="M265.92,82.98c.02,.11,.04,.21,.06,.34,0-.06-.03-.19-.06-.34Z"/>
    <path class="cls-3" d="M266.78,87.7c.05,.23,.12,.53,.23,.95-.08-.42-.16-.71-.23-.95Z"/>
    <path class="cls-3" d="M233.29,177.47c-.27,.18-.52,.36-.74,.53,.42-.26,.61-.42,.74-.53Z"/>
    <path class="cls-3" d="M267.26,89.62l.19,1.19s.02,.02,.04,.01l-.23-1.2Z"/>
    <path class="cls-3" d="M265.55,81.51c.11,.46,.27,1.08,.37,1.48-.11-.6-.22-1.06-.37-1.48Z"/>
    <path class="cls-3" d="M265.55,137.06s-.02,.08-.03,.13c-.19,.93-.06,.35,.03-.13Z"/>
    <path class="cls-3" d="M268.41,94.77s.01,.11,.02,.16l.09,.34-.11-.5Z"/>
    <path class="cls-3" d="M264.01,76.51c.08,.21,.16,.41,.24,.56-.06-.18-.13-.39-.22-.65,0,.07,0,.09-.02,.09Z"/>
    <path class="cls-3" d="M268.96,119.3c-.04-.34-.07-.48-.11-.49-.03,.4-.02,.66,.11,.49Z"/>
  </g>
  <g>
    <path class="cls-6" d="M272.06,101.93c-.03-.06-.05-.1-.09-.12,.04,.11,.07,.14,.09,.12Z"/>
    <path class="cls-6" d="M259.24,152.54l.36-.52c-.25,.33-.33,.46-.36,.52Z"/>
    <path class="cls-6" d="M263.75,70.59s.03,.04,.05,.06c-.21-.46-.5-1.07-.96-2.08l.91,2.02Z"/>
    <path class="cls-6" d="M163.01,209.98l.72-.1c-.32,.04-.53,.06-.72,.1Z"/>
    <path class="cls-6" d="M226.16,185.99c-.15,.15-.43,.38-.7,.59,.35-.26,.63-.48,.7-.59Z"/>
    <path class="cls-6" d="M256.42,54.81l.46,.83s-.12-.34-.46-.83Z"/>
    <path class="cls-6" d="M230.84,33.5s.02,.03,.07,.06c.05,.02,0-.02-.07-.06Z"/>
    <path class="cls-6" d="M241.6,40.86c.23,.16,.49,.36,.76,.55-.31-.25-.7-.56-.76-.55Z"/>
    <path class="cls-6" d="M242.72,41.67c-.12-.08-.24-.17-.36-.26,.2,.15,.36,.28,.36,.26Z"/>
    <path class="cls-6" d="M169.99,14.24c.91,.25,1.7,.4,2.53,.61-.83-.24-1.68-.43-2.53-.61Z"/>
    <path class="cls-6" d="M62.59,192.63l.19,.08c-.17-.1-.2-.11-.19-.08Z"/>
    <path class="cls-6" d="M171.39,13.64c.22,.06,.42,.15,.64,.22-.23-.09-.43-.17-.64-.22Z"/>
    <path class="cls-6" d="M265.63,70.06c.5,.84,1.15,2.74,1.24,2.68-.42-.94-.9-2.33-1.24-2.68Z"/>
    <path class="cls-6" d="M42.52,182.07l-.49-.42c.23,.2,.38,.32,.49,.42Z"/>
    <path class="cls-6" d="M171.39,13.64l-.74-.24c.06,.04,.14,.08,.21,.12,.17,.03,.35,.07,.53,.12Z"/>
    <path class="cls-6" d="M10.55,104.09s0,.02,0,.04c0,.08,0,.14,0,.22v-.25Z"/>
    <path class="cls-6" d="M11.23,98.44c-.03,.4-.06,.78-.09,1.21,.08-.64,.1-.97,.09-1.21Z"/>
    <path class="cls-6" d="M172.51,14.85l1.44,.38c-.51-.16-.98-.27-1.44-.38Z"/>
    <path class="cls-6" d="M40.22,46.39c-.15,.12-.3,.24-.44,.36,.19-.15,.34-.27,.44-.36Z"/>
    <path class="cls-6" d="M229.66,183.35c.11-.08,.27-.2,.4-.3,.03-.05-.01-.05-.4,.3Z"/>
    <path class="cls-6" d="M193.03,206.45h-.02s0,0,0,0c0,0,.02,0,.02,0Z"/>
    <path class="cls-6" d="M195.21,205.59c-.7,.21-1.67,.61-2.18,.86,.7-.23,1.35-.47,2.18-.86Z"/>
    <path class="cls-6" d="M188.23,207.96c.09-.02,.16-.03,.27-.06-.1,.02-.18,.04-.27,.06Z"/>
    <path class="cls-6" d="M230.18,186.81s0-.01,0,0c0,.01-.01,.02-.02,.02l.02-.02Z"/>
    <path class="cls-6" d="M222.57,192.29c-.15,.08-.35,.19-.56,.32,.14-.07,.33-.18,.56-.32Z"/>
    <path class="cls-6" d="M165.6,213.21s0,0,0,0c-.02,0-.03,0-.05,0,.02,0,.03,0,.04,0Z"/>
    <path class="cls-6" d="M78.4,206.64c2.08,.87,4.34,1.73,6.71,2.51,2.38,.76,4.85,1.46,7.34,2.06,4.98,1.2,10.01,2.03,14.36,2.65,1.92,.04,4.69,.36,7.47,.57l.27,.32,2.33,.11c.94,.17-1.79-.1-.13,.16l.89-.11c.17,.12,5.96,.48,2.05,.43l4.51,.31,4.52,.18c2,.08,1.18-.18,3.38-.06,.45,.09-.8,.05-.62,.16,3.32,.14,5.25,.01,7.11-.13,1.86-.19,3.66-.41,6.76-.41l-.52,.05c.53-.04,1.29-.1,1.92-.14,.63-.05,1.14-.09,1.15-.11-.81-.27-1.1,.27-3,.13,.16-.24,2.35-.22,2.21-.42,1.45,0,2.29-.19,3.55-.28,2.16,.07,5.22-.37,6.86-.33,1.04-.2,2.19-.49,4.43-.83,1.63-.03-.36,.24,1.84,.01l.33-.19c1.8-.22,1.52-.15,1.47-.07,1.92-.26,1.57-.4,3.98-.74l-1.31,.38c1.76-.37,2.49-.48,4.96-.91-.04,.09-1.03,.26-1.76,.37,1.38-.03,2.28-.5,3.01-.61-.22-.02-1.93,.25-1.12-.04,1.23-.17,2.55-.73,3.45-.75l-1.3,.44c2.51-.68,1.31-.48,4.23-1.08-.15,.05-.07,.06-.13,.11,1.8-.55,4.21-1.09,6.9-1.8l-.5,.18c1.07-.35,1.63-.63,2.22-.78-1.55,.34-1.15,.18-1.32,.09,2.1-.29,2.97-1.22,6.26-2.12-.03,.1-.78,.45-1.7,.66-1.04,.6-1.11,.85-3.06,1.6,1.22-.45,2.66-.97,2.39-.77l.32-.35c.75-.24,1.34-.43,1.9-.62,.27-.24-1.58,.27,.11-.39,1.92-.71,1.11-.12,1.38-.32,2.63-1.04,1.01-.63,3.58-1.53-.25,.12-.73,.34-.95,.41,1.85-.63,4.46-1.75,5.08-1.74-.24,.18-.25,.28-.96,.52v-.05c-1.91,.97,1.66-.7,1.12-.25-.19-.08,2.33-1.17,3.46-1.66h-.43c3.54-2.16-.05,.43,3.61-1.37,2.25-1.3-.89,.41,.47-.43,1.56-.78,2.21-.95,4.45-2.2,.68-.25,1.97-.93,2.17-.83,1.3-.87,4.11-2.37,4.78-2.98-2.37,1.23-2.18,1.54-4.98,2.93l.66-.61c.92-.56,1.97-1.2,2.94-1.8,.49-.3,.96-.58,1.39-.84,.42-.27,.8-.52,1.11-.72-.27,.14-.4,.18-.27,.04,2.48-1.8,3.13-2.42,5.58-4.1,.21-.05-.04,.18-.47,.52-.45,.31-1.06,.75-1.58,1.11,1.67-.97,1.67-1.12,4.08-2.88,.22,.03-1.61,1.2-1.8,1.53,.87-.67,1.75-1.34,2.6-2.05,0,.02,.01,.01,.02,.02,.23-.48,1.99-1.55,3.49-2.91,3.64-3.11,3.92-3.89,5.71-5.82,.56-.44,.75-.54,.58-.29-.92,.73-.71,.65-.97,.97,1.15-1.12,2.71-2.26,2.14-1.56,1.78-1.84-.75,.55,.32-.6,.83-.82,1.68-1.63,2.49-2.46-.38,.21-1.26,1.07-.06-.3,1.06-1.1,1.57-1.63,2.95-3.07-.15,.25,.57-.32-.46,.76,.71-.66,1.72-1.77,2.03-2.27-1.56,1.53,2.33-2.71,1.09-1.65l1.54-1.54c-.33,.37-.3,.47-.81,1,.56-.33,1.14-1.37,1.63-1.95,.54-.55,1.85-2.05,2.02-2.12,.41-.56,1.53-1.81,1.81-1.99,.63-.81-.04-.14,.1-.41l2.24-2.66c.2-.08,.61-.11,.31,.32,.76-1.08,.06-.56,1.32-2.1-.56,1.03,1.77-1.97,.93-.51,.84-.8,2.85-3.4,3.84-4.93,.52-1.01-1.22,1.55-1.29,1.34,1.48-2.07,2.12-3.27,2.67-4.33,.55-1.05,1-1.96,1.96-3.57l-.52,.82c1.07-2.07,.94-1.85,1.44-3.11-.12,.68,1.78-2.11,2.98-5.8,.02-.33-.92,1.96-.86,1.32,.29-.8,.56-1.61,.8-2.42,.07-.17,.02,.11-.06,.43,.63-2.19,1.43-4.02,1.33-4.72,.28-.73,.53-1.47,.77-2.21l-.3,.88c-.03-.33,.4-2.85,.42-3.38,.26-2.59,.41-3.52,.67-4.93-.12,.44-.41,1.55-.28-.49,.37,.05,.37-4.27,.52-4.2,.02-.83,.15-2.29,0-2.38l.21,.14c-.28-.19-.26-3.21-.46-5.5,.44,.5-.18-2.52,.08-3.56-.16-.2-.28-1.22-.4-2.23-.14-1.01-.28-2.01-.41-2.2-.25-1.75,.02-1.61,.04-2.07l-.22-.8c0-.9-.54-4.19-.88-6.14l-.62-1.75c-.01-.23-.03-.46-.05-.69-.13-.27-.52-1.75-.39-.81l-.22-.97c-.26-.02-.4-1.34-1.05-3.23-.08-.45,.01-.35,.16,.05-.26-.96-.01-.59-.09-1.13,.14,.69-1.49-3.28-.82-.69-.05,.21-.57-1.26-.82-2.2l.03-.63-.61-1.02c-.51-1.43-.62-2.08-1.03-3.25,.46,1.17,1.42,2.47,.25-.59,.64,1.6,1.08,2.34,1.4,3.17-.21-.65-.3-.97,.14,0-.92-2.4-.42-.76-1.34-3.12,.23,.06,.09-.65-.73-2.72l.51,1.59c-.05-.06-.12-.16-.18-.27,.22,.59,.24,.77,.22,.93-.15-.48-1.38-2.61-1.41-3.06,.34,1.24-.14,.23-.67-.87-.56-1.09-1.16-2.29-.9-1.51-.18-.24-.93-1.83-.95-2.03,1.12,1.81-.52-1.52-.24-1.28-.42-.67,.63,1.55,.07,.64-.6-1.11-.89-2-1.19-2.64l.3,.44-.89-1.74c-.25-.23,.79,1.72-.15,.2-.2-.43-1.14-1.97-1.06-1.95,.57,.66,.41,.03,1.21,1.34-.6-1.13-2.87-4.5-2.13-3.02l-.82-1.28c.44,.85,1.74,3.18,.08,.64h.05c-.41-.57-.88-1.11-1.33-1.65l-.45-.81c-.03,.05-.26-.19-.71-.83-.06-.21-.49-.81-.39-.81-1.42-1.78-1.39-1.57-1.62-1.76-.79-.99-1.09-1.37-.6-1-1.12-1.33-3.15-3.6-3.95-4.49-1.7-1.6,.31,.37-.75-.5-.55-.88-1.98-2.18-3.58-3.62-1.68-1.35-3.54-2.84-5.13-3.88,.66,.86-.87-.57-1.6-.74,.36,.2-.33-.39-.79-.75-.47-.35-.65-.58,.75,.31-.55-.4-1.15-.71-1.73-1.07-1.08-.9,2.91,1.7,1.28,.36-1.97-1.19-3.36-1.77-5.69-3.11,.9,.23-1.86-.92-1.15-.82,.53,.19,1.18,.57,1.86,.92l-.4-.26c-2.19-1.24-2.55-1.33-2.65-1.27-.1,.06,.06,.26-1.16-.22-2.77-1.26-2.1-1.18-2.22-1.35-.4-.27-1.86-.78-2.62-1.02,.89,.28,1.68,.62,2.13,.89,.44,.28,.56,.46,.15,.34-1.12-.78-4.19-1.69-4.98-1.91,1.97,.92,2.66,1.2,3.33,1.47,.33,.13,.66,.27,1.13,.47,.46,.23,1.06,.56,1.95,1.05,.54,.17,.56-.11,2.72,1.05-1.42-.59,.04,.15,.4,.4-.35-.34,1.51,.76,2.19,1.06,.54,.42-1.43-.43,.71,.79,.19-.02,.38-.03,.56-.04,.8,.55-.46-.02,1.32,1-1.03-.43,.17,.36-2.25-1,2.7,1.92,4.41,2.5,6.56,3.94-.23-.14-.27-.12-.5-.25,.5,.25,1.31,.83,1.94,1.27,.64,.56,.36,.38-.05,.1-.42-.26-.98-.6-.82-.44,.76,.51,1.45,1.11,2.17,1.68,.04,.04,.04,.06,.04,.06,.59,.42,1.14,.83,1.29,1.05-.7-.43-1.02-.56-1.49-.84,.78,.56,1.61,1.06,2.36,1.67-.3-.13,1.64,1.73,.07,.41,1.04,.96,2.16,1.84,3.13,2.87l.1,.4c.74,.7,.79,.69-.05-.2,.47,.55,1.72,1.58,2.62,2.57,.92,.97,1.62,1.76,1.2,1.61,2.28,2.44,2.97,3.43,5.38,6.68-.98-1.21-.51-.45-.05,.28,.43,.76,.85,1.48-.07,.13,.96,1.67,1.37,1.88,2.21,3.14,.63,1.29,.16,.82-.72-.44,.36,.48,.67,.99,1.01,1.5h-.05s.89,1.29,.89,1.29c.73,1.49,0,.4,.78,1.92l.34,.24,.44,1.08c-.14-.42,.41,.44,.93,1.57h-.05s.68,1.35,.68,1.35c-.74-1.31,.55,1.27,.14,.7,.52,1.18,.53,1.21,1.47,3.34l-.04-.43c1.24,2.79-.12,.18,.76,2.49l.08-.2c1.04,3.39,2.13,5.65,2.73,8.21-.46-1.43-.52-1.02-.47-1,.37,1.07,.74,2.51,1.15,3.95,.37,1.45,.78,2.9,1.09,4.03-.04,.88-.02,1.08,.32,3.46,.34,1.71,.37,1.97,.59,2.51,.21,1.68,.72,4.81,.57,4.91,.17,.38,.15,1.51,.34,2.43l-.04,.2,.13-.16c-.06,3.01,.59,5.04,.35,8.07l-.04-.52,.07,1.27c-.06,.2-.1-.32-.19-.37,0,1.97-.06,3.94-.18,5.89l.17-1.15c-.04,1.24,.05,2.09-.15,3.49-.03-2.37-.16,1.95-.41,2.31l.08-1.26c-.16,1.71-.18,1.71-.01,1.59-.24,2.23-.46,1.48-.64,3.54,.08-.48,.18-.96,.24-1.44,.15-.42,.12,.65-.06,1.61-.06,.23-.25,.9-.13,.16-.24,1.75-.95,4.29-1.1,5.04-.31,.9-.32,.57-.22,.07-.45,1.82-.63,2.2-.75,2.61-.14,.4-.28,.8-.91,2.56l-.05-.09c-.13,.41-.26,.82-.41,1.22-.3,.54-.61,1.07-.93,1.59l.38-.55c-.52,1.11-.8,1.83-1.55,3.06l.17-.57c-1.64,3.06-2.18,3.36-3.91,6.19-.15,.17,.12-.27,.25-.5-1.62,2.62-1.51,1.76-3.2,4.37,.08-.18-.16,.06-.12-.06l-.81,1.16-.06-.19-.53,1.06-.68,.57-.29,.48c-1.21,.97-2.39,2.78-3.92,4.2l.39-.13c-3.05,4.3-8.04,8.87-12.35,13.45l-.04-.2-1.71,1.97c-1.1,.87,.5-.68,.13-.45-1.95,1.98-.65,1-2.98,3.23-1.29,1.04,.34-.48,.87-1.05-2.13,2.15-5.45,5.15-7.19,6.41-.02,.05-.11,.15-.01,.09-1.52,1.33-3.65,2.92-5.47,4.19,0-.1,.45-.4,.88-.75-.65,.47-1.59,1.02-2.1,1.48l.61-.59c-1.42,.94-4.05,2.9-4.45,2.97,.2-.07,.22,.12-1.05,.86-.84,.19-3.37,2.17-5.48,3.22,.24-.16,1.69-1.09,1.28-.83-1.03,.57-1.94,1.13-2.82,1.69l.23-.24c-1.61,.88-3.2,1.8-4.83,2.65-.85,.1-4.72,2.17-4.45,1.84-1.79,.8,1.55-.57-.71,.47-.63,.2-2.06,.91-2.02,.72l.24-.11-1.61,.64,.96-.55c-1.38,.57-2.34,1.12-2.37,1.26-1.35,.44-3.21,1.22-3.88,1.25l.49-.2c-1.88,.65-3.48,1.06-4.97,1.46-1.48,.42-2.9,.68-4.37,1.25-.23,.04-.21,0,.26-.14l-2.37,.64,.53-.27-1.94,.63-1.96,.54,.03-.09c-1.31,.29-2.99,.67-4.77,1.07-1.79,.34-3.67,.69-5.37,1.01l.5-.13c-1.84,.41-2.75,.52-3.53,.59-.78,.08-1.44,.14-2.8,.38,.09-.04,.18-.06,.28-.07l-2.46,.34,.53-.16c-1.8,.45-5.26,.3-4.11,.36-1.03,.18-2.81,.45-3.11,.58-2.7,.24-.67-.05-2.35,0-1.96,.11-2.3,.27-4.96,.36l.05-.09c-1.24,.1-2.01,.14-3.75,.21l.51-.05c-2.83,.23-3.53-.12-5.75,.23-1.19-.08-3.44-.04-3.33-.21-.88,.02-1.72,.03-2.52,.05-.81-.01-1.59-.02-2.37-.03-1.57-.03-3.13-.06-4.88-.1-.55-.31-.75-.03-2.86-.34l.15,.16c-4.96-.28-10.59-1.18-15.97-1.89l-.13-.17h-1.1c-2.88-.48-6.17-1.12-9.27-1.86-3.1-.74-6.01-1.6-8.19-2.33-1.46-.4-3.69-.99-5.88-1.98l.24,.08c-3.9-1.51-7.9-3.46-11.8-5.88,.28,.09-.09-.18,.37,.05-1.03-.4-2.3-1.39-3.14-1.91l.92,.7c-1.19-.56-2.69-1.71-3.18-2.16l-1.81-1.03c-.1-.09-.27-.23-.27-.26l-.34-.15-.79-.79c-.45-.25-2.7-1.82-3.49-2.2-.12-.17-1.64-1.38-.42-.5-2.01-1.53-3.99-3.11-5.95-4.73l.88,.8c.03,.2-1.82-1.15-2.69-1.96,1.27,.9,.23-.08-.21-.59-.85-.6,.61,.67,.14,.39-1.07-.75-3.21-2.49-3.69-2.99l.63,.46c-1.38-1.1-1.83-1.83-3.14-2.97-1.25-.94-2.02-1.8-1.96-1.4-1.71-1.48-.53-.71-1.05-1.22-.87-.62-3.09-2.85-3.27-3.23-1.17-.58-4.13-4.4-4.64-4.54-.38-.49-.73-.99-1.09-1.48-.1,0-.49-.13-1.48-1.25-.84-1.12-.5-.97-.71-1.35l-.83-.53c-1.18-1.63-2.5-3.37-3.69-5.29-.62-.94-1.25-1.91-1.89-2.88-.58-1.02-1.16-2.04-1.74-3.08l-.88-1.55-.78-1.61c-.51-1.07-1.03-2.15-1.54-3.21-.43-1.1-.86-2.18-1.28-3.25-.42-1.07-.83-2.12-1.12-3.18-.65-1.85-1.46-3.92-2.04-6.16-.3-1.11-.67-2.23-.91-3.38-.23-1.15-.46-2.3-.69-3.42l.14,.49c-.13-.75-.3-1.49-.39-2.25l-.27-2.27c.12,1.1,.17,2.21,.35,3.3-.25-.97-.36-1.74-.51-2.7-.12-1.25-.34-2.59-.42-4.02-.09-1.43-.18-2.92-.27-4.46-.02-1.53-.05-3.11-.07-4.68-.04-.79,0-1.57,.03-2.36,.02-.78,.04-1.56,.06-2.34-.12-2.01,.09-2.66,.24-3.29,.16-.63,.33-1.23,.4-3.15,0,.33,.04,.46,.04,.75,.04-.51,.08-1,.12-1.46,.07-.46,.13-.89,.19-1.32,.12-.85,.23-1.63,.34-2.42,.17-1.59,.53-3.13,.9-5.17,.22,.55,.62-2.61,.75-2.2l-.04-.37c.36-.85,1.03-2.9,1.03-2.57,.13-.6,.24-1.2,.38-1.79l.2-.1c.43-1.12,1.11-2.89,1.74-4.53,.68-1.62,1.42-3.05,1.83-3.55,1.19-2.73,3-6.14,5.25-9.47,2.24-3.35,4.94-6.58,7.56-9.23,.65-.83,2.19-2.39,3.46-3.53,.49-.37,.99-.72,1.48-1.08,1.27-1.18,2.58-2.52,3.94-3.42,0,.02-.04,.07-.12,.15,1.38-1.12,2.81-2.04,4.07-3.14,1.6-1.12,3.24-2.09,2.83-1.62,0-.18,.87-.74,1.74-1.26,.88-.51,1.76-.97,1.76-.97,0,0,1.33-.84,3.74-2.27,2.4-1.43,5.9-3.43,10.28-5.64,4.38-2.22,9.63-4.66,15.51-7.02,5.87-2.36,12.37-4.6,19.15-6.55,6.78-1.95,13.86-3.52,20.84-4.66,6.99-1.12,13.89-1.74,20.31-1.9,6.41-.15,12.33,.2,17.36,.8,5.03,.61,9.21,1.39,12.19,2.08,.84,.05,3.03,.68,2.26,.25,1.69,.5,2.38,.99,2.75,.96-2.25-.84,.83-.12-1.34-1.03l1.45,.44c.33,0-1.99-.53-1.58-.59l-.49,.12c-1.15-.43-1.77-.68-2.17-.88-.57-.1-1.06-.12-1.73-.22-.67-.11-1.51-.29-2.84-.66l.74,.16c-2.18-.5-1.3-.48-1.74-.63l.48,.12c-.6-.18-1.2-.38-1.81-.55,1.38,.39,3.73,.73,2.52,.46-2.59-.68,.66,.22-1.3-.2-1.22-.27-.85-.33-.77-.4l-2.2-.42c.1-.11,1.46,.28,.59-.01-.94-.12-1.87-.28-2.81-.38-.48-.38-3.06-.34-4.31-.76,2.03,.15-.17-.13,.17-.19-1.66-.18-3.31-.37-4.98-.47-.47-.08,1.32,0,.56-.04-.93-.16-1.55-.04-2.05-.08-.43-.15-3.73-.16-3.58-.37-3.39-.24-1.43,.24-4.59,.08-.42-.13,2.51-.01,1.11-.16-1.09,0-2.19,.02-3.28,.08,.3-.07,.63-.23,1.87-.22-4.44-.01-7.87-.06-11.2,.09-3.33,.12-6.57,.39-10.58,1.1-1.16,.04,.8-.25,1.59-.45-2.9,.55-4.96,.81-6.91,1.09-1.96,.25-3.8,.52-6.26,1.07l-.06,.14c-6.93,1.2-15.01,3.75-22.5,6.34l.92-.24c-.98,.49-2.64,1.09-3.83,1.62-.21,.01,.78-.59-1.34,.29,.46-.13,1.38-.44,1.14-.28-3.24,1.05-8.18,3-13.49,5.46-5.32,2.44-10.99,5.42-15.85,8.25-6.47,3.94-13.11,8.29-19.17,13.5-3.02,2.6-5.87,5.42-8.42,8.45-2.55,3.02-4.79,6.22-6.72,9.48,1.2-1.97,.94-.98-.02,.47-1.44,1.91-2.39,3.75-3.26,5.63-.85,1.89-1.69,3.78-2.69,6.01-3.05,8.24-5.2,15.92-5.58,24.12l-.16,.14c-.21,1.21-.11,1.55-.15,2.83l-.04-.03c-.08,1.51-.19,3.19-.15,4.7,.05,1.51,.09,2.86,.07,3.73l.17,.11c.04,1.8-.12,.94,.11,2.77l-.09-.05,.32,2.13c-.14-.09-.1,1.18,.11,2.64,.22,1.46,.48,3.12,.52,3.84,.15,1.16,.58,2.79,.96,4.59,.35,1.8,.9,3.71,1.33,5.42,.03,.33,.25,1.57,.71,3,.46,1.44,.99,3.13,1.41,4.45,1.03,2.49,2.21,5.54,3.82,8.61,.4,.77,.73,1.58,1.19,2.34,.44,.76,.88,1.53,1.32,2.3,.45,.77,.87,1.55,1.33,2.29,.48,.73,.96,1.46,1.44,2.18l.09-.21,1.01,1.48s.07,.22-.1,0c.56,1.31,2.48,3.3,3.25,4.51-.42-.82-.75-1-1.37-1.81-.8-1.23,.17-.21,1.31,1.4h-.06s.92,.98,.92,.98c-.02,.21,.7,1.2,.69,1.41,3.84,4.45,6.83,7.11,11.17,11.24-.58-.28,3.22,2.86,2.14,2.27,2.77,2.3-.29-.57,1.08,.37,.75,.67,1.6,1.29,1.67,1.49-.4-.26,.5,.67-.13,.15l1.84,1.54c.16,.16-.27-.15-.48-.3,3.83,3.02,6.54,5.67,10.13,8.22,.32,.12-1.36-1.09-1.05-.98,3.64,2.51,2.99,2.53,6.44,4.81l-.78-.38c1.15,.69,1.69,.93,3.45,2.25,.23,.35-1.64-.92-2.54-1.47,1.22,.89,4.45,2.95,3.56,2.18,1.55,.95,2.03,1.42,2.84,1.97,.05-.02-1.38-.99-.44-.49,2.04,1.4,5.35,3.32,8.06,4.69-.04,.02,.12,.18-.13,.08,2.29,.88,1.88,1.13,4.97,2.47Z"/>
    <path class="cls-6" d="M231.15,186.08l-.97,.73s0,.1-.41,.48l1.38-1.21Z"/>
    <path class="cls-6" d="M179.61,210.37c-.14,.05-.28,.1-.41,.14,.28-.07,.37-.11,.41-.14Z"/>
    <path class="cls-6" d="M165.99,213.28c.98-.17,.09-.1-.39-.07-.02,.04,.01,.07,.39,.07Z"/>
    <path class="cls-6" d="M253.85,162.99c-.13,.17-.19,.28-.14,.28,.16-.23,.18-.29,.14-.28Z"/>
    <path class="cls-6" d="M269.24,79.34c.03,.11,.06,.21,.09,.35,0-.07-.04-.19-.09-.35Z"/>
    <path class="cls-6" d="M270.45,84.18c.06,.23,.15,.54,.29,.97-.11-.43-.2-.73-.29-.97Z"/>
    <path class="cls-6" d="M238.98,178.76c-.24,.23-.47,.46-.65,.68,.37-.35,.55-.54,.65-.68Z"/>
    <path class="cls-6" d="M271.05,86.13c.11,.4,.19,.81,.29,1.22,.01,0,.02,.02,.04,.01-.11-.41-.2-.82-.32-1.23Z"/>
    <path class="cls-6" d="M268.75,77.84c.15,.47,.36,1.1,.49,1.5-.16-.61-.32-1.07-.49-1.5Z"/>
    <path class="cls-6" d="M271.52,135.38s-.02,.08-.04,.13c-.24,.96-.07,.36,.04-.13Z"/>
    <path class="cls-6" d="M272.58,91.41c0,.05,.02,.11,.03,.17l.12,.35-.15-.51Z"/>
    <path class="cls-6" d="M266.87,72.74c.1,.22,.19,.41,.27,.57-.07-.18-.15-.39-.26-.66,0,.07,0,.09-.01,.1Z"/>
    <path class="cls-6" d="M274.78,116.83c-.05-.36-.09-.49-.12-.5-.01,.42,0,.68,.12,.5Z"/>
  </g>
  <g>
    <path class="cls-4" d="M118.22,49.08l-8.57,31.86c-.84,3.19-1.62,3.98-3.02,3.98h-7.28c-1.74,0-2.35-.95-2.86-3.7l-4.87-25.14c-.11-.45-.11-.78-.45-.78-.28,0-.34,.28-.45,.73l-4.93,25.37c-.62,3.14-1.46,3.98-2.86,3.98h-7.62c-1.74,0-2.13-1.01-2.86-3.7l-8.46-32.37c-.11-.39-.17-.62-.17-1.01,0-.45,.28-.73,.95-.73h7c.78,0,1.01,.34,1.06,.67l6.72,28.84c.11,.39,.22,.73,.5,.73s.34-.28,.45-.73l5.04-25.76c.5-2.63,.95-3.75,2.86-3.75h7.22c2.18,0,2.46,1.74,2.86,3.75l4.82,25.14c.11,.45,.17,.9,.5,.9,.28,0,.34-.28,.45-.73l6.55-28.39c.06-.34,.28-.67,1.06-.67h5.49c.67,0,.95,.28,.95,.73q0,.39-.11,.78Z"/>
    <path class="cls-4" d="M126.17,52.72c-3.02,0-4.7-1.34-4.7-3.75s1.74-3.7,4.7-3.7,4.7,1.34,4.7,3.75-1.74,3.7-4.7,3.7Zm3.19,32.2h-6.38c-.45,0-1.01-.11-1.01-1.01v-26.43c0-.9,.56-1.01,1.01-1.01h6.38c.45,0,1.01,.17,1.01,1.06v26.38c0,.9-.56,1.01-1.01,1.01Z"/>
    <path class="cls-4" d="M162.96,84.92h-6.38c-.45,0-1.01-.11-1.01-1.01v-15.62c0-2.24-.22-3.64-.95-4.59-.84-1.06-2.13-1.57-3.92-1.57-.95,0-2.13,.17-2.97,.56-1.12,.5-1.68,1.29-1.68,2.69v18.54c0,.9-.56,1.01-1.01,1.01h-6.38c-.45,0-1.01-.11-1.01-1.01v-26.43c0-.9,.56-1.01,1.01-1.01h6.33c.67,0,.78,.34,.78,.73,0,.22,.06,.39,.62,.39,.67,0,1.51-.28,2.02-.5,1.62-.67,3.86-1.12,5.6-1.12,3.19,0,6.05,.84,7.84,2.8,1.85,2.02,2.13,4.48,2.13,9.07v16.07c0,.9-.56,1.01-1.01,1.01Z"/>
    <path class="cls-4" d="M182.83,72.99h-12.32c-.78,0-1.01-.39-1.01-.95v-3.36c0-.56,.22-.95,1.01-.95h12.32c.78,0,1.01,.39,1.01,.95v3.36c0,.56-.22,.95-1.01,.95Z"/>
    <path class="cls-7" d="M187.09,76.4h-12.32c-.78,0-1.01-.39-1.01-.95v-3.36c0-.56,.22-.95,1.01-.95h12.32c.78,0,1.01,.39,1.01,.95v3.36c0,.56-.22,.95-1.01,.95Z"/>
    <path class="cls-7" d="M164.08,94.08l-8.57,31.86c-.84,3.19-1.62,3.98-3.02,3.98h-7.28c-1.74,0-2.35-.95-2.86-3.7l-4.87-25.14c-.11-.45-.11-.78-.45-.78-.28,0-.34,.28-.45,.73l-4.93,25.37c-.62,3.14-1.46,3.98-2.86,3.98h-7.62c-1.74,0-2.13-1.01-2.86-3.7l-8.46-32.37c-.11-.39-.17-.62-.17-1.01,0-.45,.28-.73,.95-.73h7c.78,0,1.01,.34,1.06,.67l6.72,28.84c.11,.39,.22,.73,.5,.73s.34-.28,.45-.73l5.04-25.76c.5-2.63,.95-3.75,2.86-3.75h7.22c2.18,0,2.46,1.74,2.86,3.75l4.82,25.14c.11,.45,.17,.9,.5,.9,.28,0,.34-.28,.45-.73l6.55-28.39c.06-.34,.28-.67,1.06-.67h5.49c.67,0,.95,.28,.95,.73q0,.39-.11,.78Z"/>
    <path class="cls-7" d="M172.03,97.72c-3.02,0-4.7-1.34-4.7-3.75s1.74-3.7,4.7-3.7,4.7,1.34,4.7,3.75-1.74,3.7-4.7,3.7Zm3.19,32.2h-6.38c-.45,0-1.01-.11-1.01-1.01v-26.43c0-.9,.56-1.01,1.01-1.01h6.38c.45,0,1.01,.17,1.01,1.06v26.38c0,.9-.56,1.01-1.01,1.01Z"/>
    <path class="cls-7" d="M208.83,129.92h-6.38c-.45,0-1.01-.11-1.01-1.01v-15.62c0-2.24-.22-3.64-.95-4.59-.84-1.06-2.13-1.57-3.92-1.57-.95,0-2.13,.17-2.97,.56-1.12,.5-1.68,1.29-1.68,2.69v18.54c0,.9-.56,1.01-1.01,1.01h-6.38c-.45,0-1.01-.11-1.01-1.01v-26.43c0-.9,.56-1.01,1.01-1.01h6.33c.67,0,.78,.34,.78,.73,0,.22,.06,.39,.62,.39,.67,0,1.51-.28,2.02-.5,1.62-.67,3.86-1.12,5.6-1.12,3.19,0,6.05,.84,7.84,2.8,1.85,2.02,2.13,4.48,2.13,9.07v16.07c0,.9-.56,1.01-1.01,1.01Z"/>
  </g>
</svg>